{
.appVersion = "3408";
.formatVersion = 3;
axes = (
{
name = Width;
tag = wdth;
}
);
date = "2023-04-23 11:39:00 +0000";
familyName = Tanklager;
featurePrefixes = (
{
automatic = 1;
code = "languagesystem DFLT dflt;

languagesystem latn dflt;
languagesystem latn AZE;
languagesystem latn CRT;
languagesystem latn KAZ;
languagesystem latn TAT;
languagesystem latn TRK;
languagesystem latn ROM;
languagesystem latn MOL;
languagesystem latn MAH;
languagesystem latn NLD;
";
name = Languagesystems;
}
);
features = (
{
automatic = 1;
code = "feature locl;
";
tag = aalt;
},
{
automatic = 1;
code = "lookup ccmp_DFLT_1 {
	@CombiningTopAccents = [acutecomb brevecomb caroncomb circumflexcomb commaturnedabovecomb dieresiscomb dotaccentcomb gravecomb hungarumlautcomb macroncomb ringcomb tildecomb];
	lookupflag UseMarkFilteringSet @CombiningTopAccents;
	sub i' @CombiningTopAccents by idotless;
	sub j' @CombiningTopAccents by jdotless;
} ccmp_DFLT_1;
";
tag = ccmp;
},
{
automatic = 1;
code = "script latn;
language AZE;
lookup locl_latn_0 {
	sub i by idotaccent;
} locl_latn_0;
language CRT;
lookup locl_latn_0;
language KAZ;
lookup locl_latn_0;
language TAT;
lookup locl_latn_0;
language TRK;
lookup locl_latn_0;

script latn;
language ROM;
lookup locl_latn_1 {
	sub Scedilla by Scommaaccent;
	sub scedilla by scommaaccent;
	sub Tcedilla by Tcommaaccent;
	sub tcedilla by tcommaaccent;
} locl_latn_1;
language MOL;
lookup locl_latn_1;

script latn;
language MAH;
lookup locl_latn_2 {
	sub Lcommaaccent by Lcommaaccent.loclMAH;
	sub Ncommaaccent by Ncommaaccent.loclMAH;
	sub lcommaaccent by lcommaaccent.loclMAH;
	sub ncommaaccent by ncommaaccent.loclMAH;
} locl_latn_2;

script latn;
language NLD;
lookup locl_latn_3 {
	sub iacute j' by jacute;
	sub Iacute J' by Jacute;
} locl_latn_3;
";
tag = locl;
}
);
fontMaster = (
{
axesValues = (
80
);
iconName = Condensed;
id = m01;
metricValues = (
{
pos = 720;
},
{
pos = 700;
},
{
pos = 470;
},
{
},
{
pos = -240;
},
{
}
);
name = Kompakt;
userData = {

glyphs = (
{
color = 4;
glyphname = A;
kernLeft = A;
kernRight = A;
lastChange = "2024-06-19 07:32:29 +0000";
layers = (
{
anchors = (
{
name = bottom;
pos = (224,0);
},
{
name = ogonek;
pos = (426,10);
},
{
name = top;
pos = (224,700);
}
);
layerId = m01;
shapes = (
{
closed = 1;
nodes = (
(448,0,l),
(332,700,l),
(212,700,l),
(328,0,l)
);
},
{
closed = 1;
nodes = (
(343,98,l),
(343,188,l),
(86,188,l),
(86,98,l)
);
},
{
closed = 1;
nodes = (
(120,0,l),
(236,700,l),
(136,700,l),
(20,0,l)
);
}
);
width = 468;
},
{
associatedMasterId = m01;
backgroundImage = {
crop = (0,0,182.845,240.72);
imagePath = AcapV.jpg;
locked = 1;
pos = (0,-44);
scale = (3.2815,3.2815);
};
layerId = "91DBDECE-0694-4A4F-8A24-5C73761200E9";
name = "23 avr. 23 à 13:59";
shapes = (
{
closed = 1;
nodes = (
(434,0,l),
(554,0,l),
(424,700,l),
(304,700,l)
);
},
{
closed = 1;
nodes = (
(236,700,l),
(106,0,l),
(196,0,l),
(326,700,l)
);
},
{
closed = 1;
nodes = (
(172,98,l),
(429,98,l),
(429,188,l),
(172,188,l)
);
}
);
width = 600;
},
{
anchors = (
{
name = bottom;
pos = (268,0);
},
{
name = ogonek;
pos = (505,10);
},
{
name = top;
pos = (280,700);
}
);
layerId = m002;
shapes = (
{
closed = 1;
nodes = (
(535,0,l),
(389,700,l),
(256,700,l),
(402,0,l)
);
},
{
closed = 1;
nodes = (
(387,98,l),
(387,188,l),
(110,188,l),
(110,98,l)
);
},
{
closed = 1;
nodes = (
(134,0,l),
(280,700,l),
(166,700,l),
(20,0,l)
);
}
);
width = 561;
},
{
anchors = (
{
name = bottom;
pos = (240,0);
},
{
name = ogonek;
pos = (432,10);
},
{
name = top;
pos = (240,700);
}
);
associatedMasterId = m01;
layerId = "55ABDC73-072B-4CF1-9ECD-5486C1D13EDC";
name = "19 avr. 24 à 18:27";
shapes = (
{
closed = 1;
nodes = (
(454,0,l),
(348,700,l),
(228,700,l),
(334,0,l)
);
},
{
closed = 1;
nodes = (
(349,98,l),
(349,188,l),
(92,188,l),
(92,98,l)
);
},
{
closed = 1;
nodes = (
(126,0,l),
(232,700,l),
(132,700,l),
(26,0,l)
);
}
);
width = 480;
}
);
unicode = 65;
},
{
color = 4;
glyphname = Aogonek;
kernLeft = A;
kernRight = A;
lastChange = "2024-06-19 07:50:30 +0000";
layers = (
{
layerId = m01;
shapes = (
{
closed = 1;
nodes = (
(448,0,l),
(332,700,l),
(212,700,l),
(328,0,l)
);
},
{
closed = 1;
nodes = (
(343,98,l),
(343,188,l),
(86,188,l),
(86,98,l)
);
},
{
closed = 1;
nodes = (
(120,0,l),
(236,700,l),
(136,700,l),
(20,0,l)
);
},
{
closed = 1;
nodes = (
(499,-240,l),
(499,-150,l),
(431,-150,ls),
(413,-150,o),
(409,-140,o),
(414,-123,cs),
(448,0,l),
(401,81,l),
(340,-135,ls),
(335,-153,o),
(332,-168,o),
(332,-182,cs),
(332,-221,o),
(355,-240,o),
(407,-240,cs)
);
}
);
width = 468;
},
{
layerId = m002;
shapes = (
{
closed = 1;
nodes = (
(535,0,l),
(389,700,l),
(256,700,l),
(402,0,l)
);
},
{
closed = 1;
nodes = (
(387,98,l),
(387,188,l),
(110,188,l),
(110,98,l)
);
},
{
closed = 1;
nodes = (
(134,0,l),
(280,700,l),
(166,700,l),
(20,0,l)
);
},
{
closed = 1;
nodes = (
(571,-240,l),
(571,-150,l),
(503,-150,ls),
(485,-150,o),
(479,-140,o),
(486,-123,cs),
(535,0,l),
(481,38,l),
(412,-135,ls),
(405,-153,o),
(401,-169,o),
(401,-183,cs),
(401,-221,o),
(428,-240,o),
(479,-240,cs)
);
}
);
width = 561;
}
);
unicode = 260;
},
{
color = 4;
glyphname = AE;
kernLeft = A;
kernRight = E;
lastChange = "2024-06-19 06:09:39 +0000";
layers = (
{
layerId = m01;
shapes = (
{
closed = 1;
nodes = (
(381,98,l),
(381,188,l),
(124,188,l),
(124,98,l)
);
},
{
closed = 1;
nodes = (
(126,0,l),
(312,700,l),
(206,700,l),
(20,0,l)
);
},
{
closed = 1;
nodes = (
(410,0,l),
(410,700,l),
(290,700,l),
(290,0,l)
);
},
{
closed = 1;
nodes = (
(584,0,l),
(584,90,l),
(338,90,l),
(338,0,l)
);
},
{
closed = 1;
nodes = (
(544,380,l),
(544,470,l),
(338,470,l),
(338,380,l)
);
},
{
closed = 1;
nodes = (
(584,610,l),
(584,700,l),
(338,700,l),
(338,610,l)
);
}
);
width = 620;
},
{
layerId = m002;
shapes = (
{
closed = 1;
nodes = (
(424,98,l),
(424,188,l),
(147,188,l),
(147,98,l)
);
},
{
closed = 1;
nodes = (
(141,0,l),
(327,700,l),
(206,700,l),
(20,0,l)
);
},
{
closed = 1;
nodes = (
(453,0,l),
(453,700,l),
(313,700,l),
(313,0,l)
);
},
{
closed = 1;
nodes = (
(647,0,l),
(647,90,l),
(381,90,l),
(381,0,l)
);
},
{
closed = 1;
nodes = (
(607,380,l),
(607,470,l),
(381,470,l),
(381,380,l)
);
},
{
closed = 1;
nodes = (
(647,610,l),
(647,700,l),
(381,700,l),
(381,610,l)
);
}
);
width = 687;
}
);
metricLeft = A;
metricRight = E;
unicode = 198;
},
{
color = 4;
glyphname = B;
kernRight = B;
lastChange = "2024-06-19 06:09:39 +0000";
layers = (
{
anchors = (
{
name = bottom;
pos = (225,0);
},
{
name = center;
pos = (225,350);
},
{
name = top;
pos = (225,700);
}
);
guides = (
{
angle = 180;
pos = (148,371);
}
);
layerId = m01;
shapes = (
{
closed = 1;
nodes = (
(180,0,l),
(180,700,l),
(60,700,l),
(60,0,l)
);
},
{
closed = 1;
nodes = (
(398,0,o),
(482,55,o),
(482,206,cs),
(482,359,o),
(435,379,o),
(261,379,c),
(261,329,l),
(319,329,o),
(362,285,o),
(362,196,cs),
(362,142,o),
(346,90,o),
(286,90,c),
(286,0,l)
);
},
{
closed = 1;
nodes = (
(286,0,l),
(286,90,l),
(80,90,l),
(80,0,l)
);
},
{
closed = 1;
nodes = (
(296,329,l),
(296,419,l),
(80,419,l),
(80,329,l)
);
},
{
closed = 1;
nodes = (
(266,610,l),
(266,700,l),
(80,700,l),
(80,610,l)
);
},
{
closed = 1;
nodes = (
(435,369,o),
(470,443,o),
(470,550,cs),
(470,676,o),
(368,700,o),
(266,700,c),
(266,610,l),
(324,610,o),
(351,595,o),
(351,535,cs),
(351,495,o),
(341,419,o),
(261,419,c),
(261,369,l)
);
}
);
width = 512;
},
{
associatedMasterId = m01;
backgroundImage = {
imagePath = Bcap.jpg;
locked = 1;
pos = (27,-49);
scale = (3.2936,3.2936);
};
layerId = "23E15AC6-8B44-421A-A1B1-BA1581154968";
name = "1 mai 23 à 15:55";
shapes = (
{
closed = 1;
nodes = (
(213,350,ls),
(410,350,o),
(487,449,o),
(487,542,cs),
(487,623,o),
(431,700,o),
(301,700,cs),
(131,700,l),
(131,610,l),
(302,610,ls),
(348,610,o),
(369,562,o),
(369,514,cs),
(369,465,o),
(347,388,o),
(179,388,cs),
(131,388,l),
(131,350,l)
);
},
{
closed = 1;
nodes = (
(180,0,l),
(180,700,l),
(60,700,l),
(60,0,l)
);
},
{
closed = 1;
nodes = (
(403,-2,o),
(467,112,o),
(467,203,cs),
(467,359,o),
(291,372,o),
(213,372,cs),
(131,372,l),
(131,310,l),
(213,310,ls),
(310,310,o),
(347,270,o),
(347,211,cs),
(347,167,o),
(327,91,o),
(211,91,cs),
(131,91,l),
(131,1,l),
(217,0,ls)
);
}
);
width = 600;
},
{
associatedMasterId = m01;
layerId = "6F9301C6-57A4-42EB-B4BD-24F6817A44D4";
name = "19 janv. 24 à 09:41";
shapes = (
{
closed = 1;
nodes = (
(213,383,ls),
(390,383,o),
(491,450,o),
(491,573,cs),
(491,668,o),
(431,700,o),
(301,700,cs),
(131,700,l),
(131,610,l),
(302,610,ls),
(347,610,o),
(372,581,o),
(372,545,cs),
(372,469,o),
(313,421,o),
(179,421,cs),
(131,421,l),
(131,383,l)
);
},
{
closed = 1;
nodes = (
(180,0,l),
(180,700,l),
(60,700,l),
(60,0,l)
);
},
{
closed = 1;
nodes = (
(397,-2,o),
(471,109,o),
(471,229,cs),
(471,340,o),
(375,405,o),
(213,405,cs),
(131,405,l),
(131,343,l),
(213,343,ls),
(309,343,o),
(351,311,o),
(351,236,cs),
(351,161,o),
(329,91,o),
(231,91,cs),
(131,91,l),
(131,1,l),
(237,0,ls)
);
}
);
width = 531;
},
{
associatedMasterId = m01;
layerId = "87238113-4099-44CB-9848-BD2FC31DC52C";
name = "19 janv. 24 à 09:49";
shapes = (
{
closed = 1;
nodes = (
(267,0,l),
(267,90,l),
(80,90,l),
(80,0,l)
);
},
{
closed = 1;
nodes = (
(267,329,l),
(267,419,l),
(80,419,l),
(80,329,l)
);
},
{
closed = 1;
nodes = (
(180,0,l),
(180,700,l),
(60,700,l),
(60,0,l)
);
},
{
closed = 1;
nodes = (
(232,329,l),
(290,329,o),
(343,287,o),
(343,196,cs),
(343,132,o),
(317,90,o),
(267,90,c),
(267,0,l),
(359,0,o),
(461,76,o),
(461,207,cs),
(461,344,o),
(356,389,o),
(232,389,c)
);
},
{
closed = 1;
nodes = (
(356,359,o),
(461,396,o),
(461,533,cs),
(461,664,o),
(359,700,o),
(267,700,c),
(267,610,l),
(317,610,o),
(343,588,o),
(343,524,cs),
(343,433,o),
(290,419,o),
(232,419,c),
(232,359,l)
);
},
{
closed = 1;
nodes = (
(267,610,l),
(267,700,l),
(80,700,l),
(80,610,l)
);
}
);
width = 531;
},
{
anchors = (
{
name = bottom;
pos = (287,0);
},
{
name = center;
pos = (287,350);
},
{
name = top;
pos = (287,700);
}
);
guides = (
{
angle = 180;
pos = (200,371);
}
);
layerId = m002;
shapes = (
{
closed = 1;
nodes = (
(206,0,l),
(206,700,l),
(66,700,l),
(66,0,l)
);
},
{
closed = 1;
nodes = (
(424,0,o),
(528,55,o),
(528,206,cs),
(528,359,o),
(451,379,o),
(287,379,c),
(287,329,l),
(345,329,o),
(388,285,o),
(388,196,cs),
(388,142,o),
(372,90,o),
(312,90,c),
(312,0,l)
);
},
{
closed = 1;
nodes = (
(312,0,l),
(312,90,l),
(106,90,l),
(106,0,l)
);
},
{
closed = 1;
nodes = (
(322,329,l),
(322,419,l),
(106,419,l),
(106,329,l)
);
},
{
closed = 1;
nodes = (
(312,610,l),
(312,700,l),
(106,700,l),
(106,610,l)
);
},
{
closed = 1;
nodes = (
(450,369,o),
(516,427,o),
(516,550,cs),
(516,676,o),
(414,700,o),
(312,700,c),
(312,610,l),
(370,610,o),
(376,566,o),
(376,535,cs),
(376,495,o),
(366,419,o),
(286,419,c),
(286,369,l)
);
}
);
width = 568;
},
{
anchors = (
{
name = bottom;
pos = (251,0);
},
{
name = center;
pos = (251,350);
},
{
name = top;
pos = (251,700);
}
);
associatedMasterId = m01;
guides = (
{
angle = 180;
pos = (174,371);
}
);
layerId = "42BEA9AF-EA52-4A71-AB42-913A5B06FA37";
name = "30 avr. 24 à 16:24";
shapes = (
{
closed = 1;
nodes = (
(180,0,l),
(180,700,l),
(60,700,l),
(60,0,l)
);
},
{
closed = 1;
nodes = (
(359,0,o),
(461,35,o),
(461,186,cs),
(461,371,o),
(356,389,o),
(232,389,c),
(232,329,l),
(290,329,o),
(343,315,o),
(343,176,cs),
(343,122,o),
(317,90,o),
(267,90,c),
(267,0,l)
);
},
{
closed = 1;
nodes = (
(267,0,l),
(267,90,l),
(80,90,l),
(80,0,l)
);
},
{
closed = 1;
nodes = (
(267,329,l),
(267,419,l),
(80,419,l),
(80,329,l)
);
},
{
closed = 1;
nodes = (
(267,610,l),
(267,700,l),
(80,700,l),
(80,610,l)
);
},
{
closed = 1;
nodes = (
(356,359,o),
(461,423,o),
(461,550,cs),
(461,681,o),
(359,700,o),
(267,700,c),
(267,610,l),
(317,610,o),
(343,606,o),
(343,542,cs),
(343,461,o),
(290,419,o),
(232,419,c),
(232,359,l)
);
}
);
width = 501;
}
);
metricLeft = H;
unicode = 66;
},
{
color = 4;
glyphname = C;
kernLeft = O;
kernRight = O;
lastChange = "2024-06-19 06:09:39 +0000";
layers = (
{
anchors = (
{
name = bottom;
pos = (249,0);
},
{
name = top;
pos = (249,700);
}
);
guides = (
{
angle = 180;
pos = (392,268);
}
);
layerId = m01;
shapes = (
{
closed = 1;
nodes = (
(401,-10,o),
(452,38,o),
(452,132,cs),
(452,268,l),
(332,268,l),
(332,132,ls),
(332,85,o),
(301,70,o),
(251,70,cs),
(201,70,o),
(170,85,o),
(170,132,cs),
(170,568,ls),
(170,615,o),
(201,630,o),
(251,630,cs),
(301,630,o),
(332,615,o),
(332,568,cs),
(332,432,l),
(452,432,l),
(452,568,ls),
(452,662,o),
(401,710,o),
(251,710,cs),
(102,710,o),
(50,662,o),
(50.002,569,cs),
(50,132,ls),
(50,38,o),
(101,-10,o),
(251,-10,cs)
);
}
);
width = 498;
},
{
anchors = (
{
name = bottom;
pos = (291,0);
},
{
name = top;
pos = (291,700);
}
);
guides = (
{
pos = (452,132);
}
);
layerId = m002;
shapes = (
{
closed = 1;
nodes = (
(451,-10,o),
(522,38,o),
(522,132,cs),
(522,282,l),
(382,282,l),
(382,132,ls),
(382,85,o),
(351,70,o),
(291,70,cs),
(231,70,o),
(200,85,o),
(200,132,cs),
(200,568,ls),
(200,615,o),
(231,630,o),
(291,630,cs),
(351,630,o),
(382,615,o),
(382,568,cs),
(382,418,l),
(522,418,l),
(522,568,ls),
(522,662,o),
(451,710,o),
(291,710,cs),
(131,710,o),
(60,662,o),
(60,568,cs),
(60,132,ls),
(60,38,o),
(131,-10,o),
(291,-10,cs)
);
}
);
width = 582;
}
);
unicode = 67;
},
{
color = 4;
glyphname = D;
kernRight = O;
lastChange = "2024-06-19 06:09:39 +0000";
layers = (
{
anchors = (
{
name = bottom;
pos = (254,0);
},
{
name = center;
pos = (254,350);
},
{
name = top;
pos = (254,700);
}
);
layerId = m01;
shapes = (
{
closed = 1;
nodes = (
(180,0,l),
(180,700,l),
(60,700,l),
(60,0,l)
);
},
{
closed = 1;
nodes = (
(251,0,l),
(251,80,l),
(136,80,l),
(136,0,l)
);
},
{
closed = 1;
nodes = (
(401,0,o),
(452,48,o),
(452,142,c),
(332,142,l),
(332,95,o),
(301,80,o),
(251,80,c),
(251,0,l)
);
},
{
closed = 1;
nodes = (
(452,142,l),
(452,558,l),
(332,558,l),
(332,142,l)
);
},
{
closed = 1;
nodes = (
(251,620,l),
(251,700,l),
(136,700,l),
(136,620,l)
);
},
{
closed = 1;
nodes = (
(452,558,l),
(452,652,o),
(401,700,o),
(251,700,c),
(251,620,l),
(301,620,o),
(332,605,o),
(332,558,c)
);
}
);
width = 508;
},
{
anchors = (
{
name = bottom;
pos = (293,0);
},
{
name = center;
pos = (293,350);
},
{
name = top;
pos = (293,700);
}
);
layerId = m002;
shapes = (
{
closed = 1;
nodes = (
(206,0,l),
(206,700,l),
(66,700,l),
(66,0,l)
);
},
{
closed = 1;
nodes = (
(325,0,l),
(325,90,l),
(156,90,l),
(156,0,l)
);
},
{
closed = 1;
nodes = (
(495,0,o),
(526,58,o),
(526,152,c),
(386,152,l),
(386,105,o),
(375,90,o),
(325,90,c),
(325,0,l)
);
},
{
closed = 1;
nodes = (
(526,152,l),
(526,548,l),
(386,548,l),
(386,152,l)
);
},
{
closed = 1;
nodes = (
(325,610,l),
(325,700,l),
(156,700,l),
(156,610,l)
);
},
{
closed = 1;
nodes = (
(526,548,l),
(526,642,o),
(495,700,o),
(325,700,c),
(325,610,l),
(375,610,o),
(386,595,o),
(386,548,c)
);
}
);
width = 586;
}
);
metricLeft = H;
unicode = 68;
},
{
color = 4;
glyphname = Eth;
kernRight = O;
lastChange = "2024-06-19 06:09:39 +0000";
layers = (
{
layerId = m01;
shapes = (
{
pos = (6,0);
ref = D;
},
{
closed = 1;
nodes = (
(278,330,l),
(278,420,l),
(16,420,l),
(16,330,l)
);
}
);
width = 514;
},
{
guides = (
{
pos = (151,330);
}
);
layerId = m002;
shapes = (
{
pos = (10,0);
ref = D;
},
{
closed = 1;
nodes = (
(282,330,l),
(282,420,l),
(20,420,l),
(20,330,l)
);
}
);
width = 596;
}
);
metricLeft = t;
metricRight = D;
unicode = 208;
},
{
color = 4;
glyphname = E;
kernRight = E;
lastChange = "2024-06-19 06:09:39 +0000";
layers = (
{
anchors = (
{
name = bottom;
pos = (232,0);
},
{
name = ogonek;
pos = (406,10);
},
{
name = top;
pos = (232,700);
},
{
name = topleft;
pos = (20,700);
}
);
guides = (
{
angle = 180;
pos = (182,470);
}
);
layerId = m01;
shapes = (
{
closed = 1;
nodes = (
(180,0,l),
(180,700,l),
(60,700,l),
(60,0,l)
);
},
{
closed = 1;
nodes = (
(385,0,l),
(385,90,l),
(128,90,l),
(128,0,l)
);
},
{
closed = 1;
nodes = (
(345,380,l),
(345,470,l),
(128,470,l),
(128,380,l)
);
},
{
closed = 1;
nodes = (
(385,610,l),
(385,700,l),
(128,700,l),
(128,610,l)
);
}
);
width = 421;
},
{
anchors = (
{
name = bottom;
pos = (261,0);
},
{
name = ogonek;
pos = (451,10);
},
{
name = top;
pos = (261,700);
},
{
name = topleft;
pos = (20,700);
}
);
guides = (
{
angle = 180;
pos = (188,470);
}
);
layerId = m002;
shapes = (
{
closed = 1;
nodes = (
(206,0,l),
(206,700,l),
(66,700,l),
(66,0,l)
);
},
{
closed = 1;
nodes = (
(460,0,l),
(460,90,l),
(134,90,l),
(134,0,l)
);
},
{
closed = 1;
nodes = (
(420,380,l),
(420,470,l),
(134,470,l),
(134,380,l)
);
},
{
closed = 1;
nodes = (
(460,610,l),
(460,700,l),
(134,700,l),
(134,610,l)
);
}
);
width = 500;
}
);
metricLeft = H;
unicode = 69;
},
{
color = 4;
glyphname = Eogonek;
kernRight = E;
lastChange = "2024-06-19 07:50:56 +0000";
layers = (
{
layerId = m01;
shapes = (
{
closed = 1;
nodes = (
(180,0,l),
(180,700,l),
(60,700,l),
(60,0,l)
);
},
{
closed = 1;
nodes = (
(385,0,l),
(385,90,l),
(128,90,l),
(128,0,l)
);
},
{
closed = 1;
nodes = (
(345,380,l),
(345,470,l),
(128,470,l),
(128,380,l)
);
},
{
closed = 1;
nodes = (
(385,610,l),
(385,700,l),
(128,700,l),
(128,610,l)
);
},
{
closed = 1;
nodes = (
(436,-240,l),
(436,-150,l),
(368,-150,ls),
(350,-150,o),
(346,-140,o),
(351,-123,cs),
(385,0,l),
(338,81,l),
(277,-135,ls),
(272,-153,o),
(269,-168,o),
(269,-182,cs),
(269,-221,o),
(292,-240,o),
(344,-240,cs)
);
}
);
width = 421;
},
{
layerId = m002;
shapes = (
{
closed = 1;
nodes = (
(206,0,l),
(206,700,l),
(66,700,l),
(66,0,l)
);
},
{
closed = 1;
nodes = (
(460,0,l),
(460,90,l),
(134,90,l),
(134,0,l)
);
},
{
closed = 1;
nodes = (
(420,380,l),
(420,470,l),
(134,470,l),
(134,380,l)
);
},
{
closed = 1;
nodes = (
(460,610,l),
(460,700,l),
(134,700,l),
(134,610,l)
);
},
{
closed = 1;
nodes = (
(496,-240,l),
(496,-150,l),
(428,-150,ls),
(410,-150,o),
(404,-140,o),
(411,-123,cs),
(460,0,l),
(406,38,l),
(337,-135,ls),
(330,-153,o),
(326,-169,o),
(326,-183,cs),
(326,-221,o),
(353,-240,o),
(404,-240,cs)
);
}
);
width = 500;
}
);
unicode = 280;
},
{
color = 4;
glyphname = Schwa;
kernLeft = O;
kernRight = O;
lastChange = "2024-06-19 06:09:39 +0000";
layers = (
{
layerId = m01;
shapes = (
{
closed = 1;
nodes = (
(401,-10,o),
(452,38,o),
(452,132,cs),
(452,569,ls),
(452,662,o),
(400,710,o),
(251,710,cs),
(101,710,o),
(50,662,o),
(50,568,cs),
(50,432,l),
(170,432,l),
(170,568,ls),
(170,615,o),
(201,630,o),
(251,630,cs),
(301,630,o),
(332,615,o),
(332,568,cs),
(332,132,ls),
(332,85,o),
(301,70,o),
(251,70,cs),
(201,70,o),
(170,85,o),
(170,132,cs),
(170,351,l),
(50,351,l),
(50,132,ls),
(50,38,o),
(101,-10,o),
(251,-10,cs)
);
},
{
closed = 1;
nodes = (
(347,261,l),
(347,351,l),
(130,351,l),
(130,261,l)
);
}
);
width = 502;
},
{
layerId = m002;
shapes = (
{
closed = 1;
nodes = (
(451,-10,o),
(522,38,o),
(522,132,cs),
(522,568,ls),
(522,662,o),
(451,710,o),
(291,710,cs),
(131,710,o),
(60,662,o),
(60,568,cs),
(60,418,l),
(200,418,l),
(200,568,ls),
(200,615,o),
(231,630,o),
(291,630,cs),
(351,630,o),
(382,615,o),
(382,568,cs),
(382,132,ls),
(382,85,o),
(351,70,o),
(291,70,cs),
(231,70,o),
(200,85,o),
(200,132,cs),
(200,340,l),
(60,340,l),
(60,132,ls),
(60,38,o),
(131,-10,o),
(291,-10,cs)
);
},
{
closed = 1;
nodes = (
(402,250,l),
(402,340,l),
(116,340,l),
(116,250,l)
);
}
);
width = 582;
}
);
unicode = 399;
},
{
color = 4;
glyphname = F;
kernRight = F;
lastChange = "2024-06-19 06:09:39 +0000";
layers = (
{
anchors = (
{
name = bottom;
pos = (208,0);
},
{
name = top;
pos = (208,700);
}
);
layerId = m01;
shapes = (
{
closed = 1;
nodes = (
(180,0,l),
(180,700,l),
(60,700,l),
(60,0,l)
);
},
{
closed = 1;
nodes = (
(355,380,l),
(355,470,l),
(128,470,l),
(128,380,l)
);
},
{
closed = 1;
nodes = (
(395,610,l),
(395,700,l),
(128,700,l),
(128,610,l)
);
}
);
width = 415;
},
{
anchors = (
{
name = bottom;
pos = (231,0);
},
{
name = top;
pos = (231,700);
}
);
layerId = m002;
shapes = (
{
closed = 1;
nodes = (
(200,0,l),
(200,700,l),
(60,700,l),
(60,0,l)
);
},
{
closed = 1;
nodes = (
(394,380,l),
(394,470,l),
(128,470,l),
(128,380,l)
);
},
{
closed = 1;
nodes = (
(434,610,l),
(434,700,l),
(128,700,l),
(128,610,l)
);
}
);
width = 454;
}
);
unicode = 70;
},
{
color = 4;
glyphname = G;
kernLeft = O;
kernRight = G;
lastChange = "2024-06-19 06:09:39 +0000";
layers = (
{
anchors = (
{
name = bottom;
pos = (251,0);
},
{
name = top;
pos = (251,700);
}
);
guides = (
{
pos = (204,-10);
},
{
pos = (280,79);
}
);
layerId = m01;
shapes = (
{
closed = 1;
nodes = (
(275,-11,o),
(318,22,o),
(364,77,c),
(364,228,l),
(332,228,l),
(332,125,o),
(295,79,o),
(245,79,cs),
(205,79,o),
(170,108,o),
(170,160,cs),
(170,568,l),
(50,569,l),
(50,142,ls),
(50,35,o),
(123,-11,o),
(205,-11,cs)
);
},
{
closed = 1;
nodes = (
(452,0,l),
(452,470,l),
(332,470,l),
(332,0,l)
);
},
{
closed = 1;
nodes = (
(444,380,l),
(444,470,l),
(232,470,l),
(232,380,l)
);
},
{
closed = 1;
nodes = (
(170,568,l),
(170,615,o),
(201,630,o),
(251,630,c),
(251,710,l),
(101,710,o),
(50,662,o),
(50,568,c)
);
},
{
closed = 1;
nodes = (
(452,551,l),
(452,568,l),
(452,662,o),
(401,710,o),
(251,710,c),
(251,630,l),
(301,630,o),
(332,615,o),
(332,568,c),
(332,551,l)
);
}
);
width = 502;
},
{
associatedMasterId = m01;
backgroundImage = {
imagePath = Gcap.jpg;
locked = 1;
pos = (0,-46);
scale = (3.3004,3.3004);
};
layerId = "826DB920-477B-4F2C-A971-536A2D9F7502";
name = "23 avr. 23 à 17:56";
shapes = (
{
closed = 1;
nodes = (
(50,142,l),
(170,142,l),
(170,558,l),
(50,559,l)
);
},
{
closed = 1;
nodes = (
(332,0,l),
(452,0,l),
(452,470,l),
(332,470,l)
);
},
{
closed = 1;
nodes = (
(125,-10,o),
(204,-10,cs),
(275,-10,o),
(349,31,o),
(371,129,c),
(332,213,l),
(332,122,o),
(279,80,o),
(233,80,cs),
(199,80,o),
(170,103,o),
(170,142,c),
(50,142,l),
(50,40,o)
);
},
{
closed = 1;
nodes = (
(101,710,o),
(50,652,o),
(50,558,c),
(170,558,l),
(170,605,o),
(201,620,o),
(251,620,c),
(251,710,l)
);
},
{
closed = 1;
nodes = (
(251,620,l),
(301,620,o),
(332,605,o),
(332,558,c),
(452,558,l),
(452,652,o),
(401,710,o),
(251,710,c)
);
},
{
closed = 1;
nodes = (
(232,380,l),
(444,380,l),
(444,470,l),
(232,470,l)
);
}
);
width = 600;
},
{
associatedMasterId = m01;
backgroundImage = {
imagePath = Gcap.jpg;
locked = 1;
pos = (0,-46);
scale = (3.3004,3.3004);
};
layerId = "D5C02C17-F7A1-47F7-9E81-62957C2F7AE7";
name = "23 avr. 23 à 17:56";
shapes = (
{
closed = 1;
nodes = (
(50,142,l),
(170,142,l),
(170,558,l),
(50,559,l)
);
},
{
closed = 1;
nodes = (
(332,0,l),
(452,0,l),
(452,470,l),
(332,470,l)
);
},
{
closed = 1;
nodes = (
(125,-10,o),
(204,-10,cs),
(236,-10,o),
(270,-1,o),
(298,17,c),
(347,113,l),
(332,213,l),
(332,122,o),
(279,80,o),
(233,80,cs),
(199,80,o),
(170,103,o),
(170,142,c),
(50,142,l),
(50,40,o)
);
},
{
closed = 1;
nodes = (
(101,710,o),
(50,652,o),
(50,558,c),
(170,558,l),
(170,605,o),
(201,620,o),
(251,620,c),
(251,710,l)
);
},
{
closed = 1;
nodes = (
(251,620,l),
(301,620,o),
(332,605,o),
(332,558,c),
(452,558,l),
(452,652,o),
(401,710,o),
(251,710,c)
);
},
{
closed = 1;
nodes = (
(232,380,l),
(444,380,l),
(444,470,l),
(232,470,l)
);
}
);
width = 600;
},
{
anchors = (
{
name = bottom;
pos = (291,0);
},
{
name = top;
pos = (291,700);
}
);
guides = (
{
pos = (244,-10);
},
{
pos = (98,79);
}
);
layerId = m002;
shapes = (
{
closed = 1;
nodes = (
(285,-11,o),
(356,22,o),
(402,77,c),
(402,228,l),
(382,228,l),
(382,125,o),
(325,79,o),
(275,79,cs),
(235,79,o),
(200,108,o),
(200,160,cs),
(200,568,l),
(60,569,l),
(60,142,ls),
(60,35,o),
(133,-11,o),
(215,-11,cs)
);
},
{
closed = 1;
nodes = (
(522,0,l),
(522,470,l),
(382,470,l),
(382,0,l)
);
},
{
closed = 1;
nodes = (
(514,380,l),
(514,470,l),
(262,470,l),
(262,380,l)
);
},
{
closed = 1;
nodes = (
(200,568,l),
(200,615,o),
(231,630,o),
(291,630,c),
(291,710,l),
(131,710,o),
(60,662,o),
(60,568,c)
);
},
{
closed = 1;
nodes = (
(522,548,l),
(522,568,l),
(522,662,o),
(451,710,o),
(291,710,c),
(291,630,l),
(351,630,o),
(382,615,o),
(382,568,c),
(382,548,l)
);
}
);
width = 582;
}
);
metricLeft = O;
unicode = 71;
},
{
color = 4;
glyphname = H;
lastChange = "2024-06-19 06:09:39 +0000";
layers = (
{
anchors = (
{
name = bottom;
pos = (260,0);
},
{
name = center;
pos = (260,350);
},
{
name = top;
pos = (260,700);
},
{
name = topleft;
pos = (20,700);
}
);
guides = (
{
angle = 180;
pos = (400,700);
}
);
layerId = m01;
shapes = (
{
closed = 1;
nodes = (
(460,0,l),
(460,700,l),
(340,700,l),
(340,0,l)
);
},
{
closed = 1;
nodes = (
(180,0,l),
(180,700,l),
(60,700,l),
(60,0,l)
);
},
{
closed = 1;
nodes = (
(385,380,l),
(385,470,l),
(128,470,l),
(128,380,l)
);
}
);
width = 520;
},
{
anchors = (
{
name = bottom;
pos = (296,0);
},
{
name = center;
pos = (296,350);
},
{
name = top;
pos = (296,700);
},
{
name = topleft;
pos = (20,700);
}
);
guides = (
{
angle = 180;
pos = (426,700);
},
{
pos = (293,380);
}
);
layerId = m002;
shapes = (
{
closed = 1;
nodes = (
(526,0,l),
(526,700,l),
(386,700,l),
(386,0,l)
);
},
{
closed = 1;
nodes = (
(206,0,l),
(206,700,l),
(66,700,l),
(66,0,l)
);
},
{
closed = 1;
nodes = (
(425,380,l),
(425,470,l),
(168,470,l),
(168,380,l)
);
}
);
width = 592;
}
);
unicode = 72;
},
{
color = 4;
glyphname = Hbar;
lastChange = "2024-06-19 06:09:39 +0000";
layers = (
{
layerId = m01;
shapes = (
{
closed = 1;
nodes = (
(456,0,l),
(456,700,l),
(336,700,l),
(336,0,l)
);
},
{
closed = 1;
nodes = (
(176,0,l),
(176,700,l),
(56,700,l),
(56,0,l)
);
},
{
closed = 1;
nodes = (
(381,380,l),
(381,470,l),
(124,470,l),
(124,380,l)
);
},
{
closed = 1;
nodes = (
(496,560,l),
(496,620,l),
(16,620,l),
(16,560,l)
);
}
);
width = 512;
},
{
layerId = m002;
shapes = (
{
closed = 1;
nodes = (
(526,0,l),
(526,700,l),
(386,700,l),
(386,0,l)
);
},
{
closed = 1;
nodes = (
(206,0,l),
(206,700,l),
(66,700,l),
(66,0,l)
);
},
{
closed = 1;
nodes = (
(425,380,l),
(425,470,l),
(168,470,l),
(168,380,l)
);
},
{
closed = 1;
nodes = (
(572,560,l),
(572,620,l),
(20,620,l),
(20,560,l)
);
}
);
width = 592;
}
);
unicode = 294;
},
{
color = 4;
glyphname = I;
lastChange = "2024-06-19 06:09:39 +0000";
layers = (
{
anchors = (
{
name = bottom;
pos = (126,0);
},
{
name = ogonek;
pos = (227,10);
},
{
name = top;
pos = (126,700);
},
{
name = topleft;
pos = (20,700);
}
);
layerId = m01;
shapes = (
{
closed = 1;
nodes = (
(186,0,l),
(186,700,l),
(66,700,l),
(66,0,l)
);
}
);
width = 252;
},
{
anchors = (
{
name = bottom;
pos = (140,0);
},
{
name = ogonek;
pos = (252,10);
},
{
name = top;
pos = (140,700);
},
{
name = topleft;
pos = (20,700);
}
);
layerId = m002;
shapes = (
{
closed = 1;
nodes = (
(210,0,l),
(210,700,l),
(70,700,l),
(70,0,l)
);
}
);
width = 280;
}
);
unicode = 73;
},
{
color = 4;
glyphname = Iogonek;
lastChange = "2024-06-19 06:09:39 +0000";
layers = (
{
layerId = m01;
shapes = (
{
closed = 1;
nodes = (
(186,0,l),
(186,700,l),
(66,700,l),
(66,0,l)
);
},
{
closed = 1;
nodes = (
(237,-240,l),
(237,-150,l),
(169,-150,ls),
(151,-150,o),
(147,-140,o),
(152,-123,cs),
(186,0,l),
(139,81,l),
(78,-135,ls),
(73,-153,o),
(70,-168,o),
(70,-182,cs),
(70,-221,o),
(93,-240,o),
(145,-240,cs)
);
}
);
width = 252;
},
{
layerId = m002;
shapes = (
{
closed = 1;
nodes = (
(210,0,l),
(210,700,l),
(70,700,l),
(70,0,l)
);
},
{
closed = 1;
nodes = (
(246,-240,l),
(246,-150,l),
(178,-150,ls),
(160,-150,o),
(154,-140,o),
(161,-123,cs),
(210,0,l),
(156,38,l),
(87,-135,ls),
(80,-153,o),
(76,-169,o),
(76,-183,cs),
(76,-221,o),
(103,-240,o),
(154,-240,cs)
);
}
);
width = 280;
}
);
unicode = 302;
},
{
color = 4;
glyphname = J;
kernLeft = J;
kernRight = U;
lastChange = "2024-06-19 07:07:00 +0000";
layers = (
{
anchors = (
{
name = bottom;
pos = (156,0);
},
{
name = top;
pos = (206,700);
}
);
layerId = m01;
shapes = (
{
closed = 1;
nodes = (
(266,142,l),
(266,700,l),
(146,700,l),
(146,142,l)
);
},
{
closed = 1;
nodes = (
(85,0,l),
(85,80,l),
(16,80,l),
(16,0,l)
);
},
{
closed = 1;
nodes = (
(235,0,o),
(266,48,o),
(266,142,c),
(146,142,l),
(146,95,o),
(135,80,o),
(85,80,c),
(85,0,l)
);
}
);
width = 326;
},
{
associatedMasterId = m01;
layerId = "50262746-6136-47C9-9B39-61A6DF24348A";
name = "19 janv. 24 à 08:53";
shapes = (
{
closed = 1;
nodes = (
(160,138,l),
(280,138,l),
(280,700,l),
(160,700,l)
);
},
{
closed = 1;
nodes = (
(124,90,ls),
(149,90,o),
(160,105,o),
(160,138,c),
(280,138,l),
(280,31,o),
(245,0,o),
(142,0,cs),
(30,0,l),
(30,90,l)
);
}
);
width = 340;
},
{
anchors = (
{
name = bottom;
pos = (178,0);
},
{
name = top;
pos = (231,700);
}
);
layerId = m002;
shapes = (
{
closed = 1;
nodes = (
(301,152,l),
(301,700,l),
(161,700,l),
(161,152,l)
);
},
{
closed = 1;
nodes = (
(100,0,l),
(100,90,l),
(20,90,l),
(20,0,l)
);
},
{
closed = 1;
nodes = (
(270,0,o),
(301,58,o),
(301,152,c),
(161,152,l),
(161,105,o),
(150,90,o),
(100,90,c),
(100,0,l)
);
}
);
width = 361;
}
);
unicode = 74;
},
{
color = 4;
glyphname = K;
kernRight = K;
lastChange = "2024-06-19 06:09:39 +0000";
layers = (
{
anchors = (
{
name = bottom;
pos = (236,0);
},
{
name = top;
pos = (236,700);
}
);
backgroundImage = {
imagePath = Kcap.jpg;
locked = 1;
pos = (20,-48);
scale = (3.2796,3.2796);
};
layerId = m01;
shapes = (
{
closed = 1;
nodes = (
(180,280,l),
(434,700,l),
(334,700,l),
(80,280,l)
);
},
{
closed = 1;
nodes = (
(180,0,l),
(180,700,l),
(60,700,l),
(60,0,l)
);
},
{
closed = 1;
nodes = (
(446,0,l),
(305,542,l),
(222,410,l),
(331,0,l)
);
}
);
width = 472;
},
{
associatedMasterId = m01;
backgroundImage = {
imagePath = Kcap.jpg;
locked = 1;
pos = (20,-48);
scale = (3.2796,3.2796);
};
layerId = "3074CCE0-0A6E-4AA2-9301-3A5A897298FF";
name = "24 avr. 23 à 13:08";
shapes = (
{
closed = 1;
nodes = (
(60,0,l),
(180,0,l),
(180,700,l),
(60,700,l)
);
},
{
closed = 1;
nodes = (
(339,410,l),
(218,410,l),
(326,0,l),
(446,0,l)
);
},
{
closed = 1;
nodes = (
(180,280,l),
(434,700,l),
(334,700,l),
(80,280,l)
);
}
);
width = 472;
},
{
anchors = (
{
name = bottom;
pos = (279,0);
},
{
name = top;
pos = (279,700);
}
);
layerId = m002;
shapes = (
{
closed = 1;
nodes = (
(190,202,l),
(510,700,l),
(398,700,l),
(78,202,l)
);
},
{
closed = 1;
nodes = (
(206,0,l),
(206,700,l),
(66,700,l),
(66,0,l)
);
},
{
closed = 1;
nodes = (
(532,0,l),
(371,542,l),
(265,410,l),
(394,0,l)
);
}
);
width = 552;
}
);
unicode = 75;
},
{
color = 4;
glyphname = L;
kernRight = L;
lastChange = "2024-06-19 06:09:39 +0000";
layers = (
{
anchors = (
{
name = bottom;
pos = (180,0);
},
{
name = center;
pos = (180,350);
},
{
name = top;
pos = (120,700);
},
{
name = topright;
pos = (340,700);
}
);
layerId = m01;
shapes = (
{
closed = 1;
nodes = (
(180,0,l),
(180,700,l),
(60,700,l),
(60,0,l)
);
},
{
closed = 1;
nodes = (
(340,0,l),
(340,90,l),
(128,90,l),
(128,0,l)
);
}
);
width = 360;
},
{
associatedMasterId = m01;
layerId = "59900948-0294-459D-B7E7-9F51F7606F1F";
name = "21 janv. 24 à 12:20";
shapes = (
{
closed = 1;
nodes = (
(60,0,l),
(180,0,l),
(180,700,l),
(60,700,l)
);
},
{
closed = 1;
nodes = (
(128,0,l),
(315,0,l),
(315,90,l),
(128,90,l)
);
}
);
width = 345;
},
{
anchors = (
{
name = bottom;
pos = (216,0);
},
{
name = center;
pos = (196,350);
},
{
name = top;
pos = (136,700);
},
{
name = topright;
pos = (372,700);
}
);
layerId = m002;
shapes = (
{
closed = 1;
nodes = (
(206,0,l),
(206,700,l),
(66,700,l),
(66,0,l)
);
},
{
closed = 1;
nodes = (
(366,0,l),
(366,90,l),
(134,90,l),
(134,0,l)
);
}
);
width = 386;
}
);
metricLeft = H;
unicode = 76;
},
{
color = 4;
glyphname = Lslash;
kernRight = L;
lastChange = "2024-06-19 06:09:39 +0000";
layers = (
{
layerId = m01;
shapes = (
{
alignment = -1;
ref = L;
},
{
closed = 1;
nodes = (
(268,414,l),
(268,516,l),
(16,420,l),
(16,318,l)
);
}
);
width = 360;
},
{
layerId = m002;
shapes = (
{
alignment = -1;
pos = (10,0);
ref = L;
},
{
closed = 1;
nodes = (
(303,526,l),
(26,420,l),
(26,318,l),
(303,424,l)
);
}
);
width = 396;
}
);
metricRight = L;
unicode = 321;
},
{
color = 4;
glyphname = M;
lastChange = "2024-06-19 06:09:39 +0000";
layers = (
{
anchors = (
{
name = bottom;
pos = (354,0);
},
{
name = top;
pos = (354,700);
}
);
guides = (
{
pos = (884,630);
}
);
layerId = m01;
shapes = (
{
closed = 1;
nodes = (
(360,0,l),
(260,700,l),
(175,700,l),
(275,0,l)
);
},
{
closed = 1;
nodes = (
(180,0,l),
(180,700,l),
(60,700,l),
(60,0,l)
);
},
{
closed = 1;
nodes = (
(432,0,l),
(533,700,l),
(453,700,l),
(352,0,l)
);
},
{
closed = 1;
nodes = (
(648,0,l),
(648,700,l),
(528,700,l),
(528,0,l)
);
}
);
width = 708;
},
{
associatedMasterId = m01;
backgroundImage = {
imagePath = M.jpg;
locked = 1;
pos = (20,-48);
scale = (3.2804,3.2804);
};
guides = (
{
pos = (298,604);
}
);
layerId = "C362588A-B3C1-48D5-A6F7-7CDC4E14BA35";
name = "23 avr. 23 à 17:35";
shapes = (
{
closed = 1;
nodes = (
(60,0,l),
(180,0,l),
(180,700,l),
(60,700,l)
);
},
{
closed = 1;
nodes = (
(506,0,l),
(626,0,l),
(626,700,l),
(506,700,l)
);
},
{
closed = 1;
nodes = (
(244,700,l),
(164,700,l),
(279,0,l),
(359,0,l)
);
},
{
closed = 1;
nodes = (
(407,0,l),
(522,700,l),
(452,700,l),
(337,0,l)
);
}
);
width = 686;
},
{
anchors = (
{
name = bottom;
pos = (392,0);
},
{
name = top;
pos = (392,700);
}
);
guides = (
{
pos = (910,630);
}
);
layerId = m002;
shapes = (
{
closed = 1;
nodes = (
(416,0,l),
(302,700,l),
(201,700,l),
(315,0,l)
);
},
{
closed = 1;
nodes = (
(206,0,l),
(206,700,l),
(66,700,l),
(66,0,l)
);
},
{
closed = 1;
nodes = (
(482,0,l),
(596,700,l),
(515,700,l),
(401,0,l)
);
},
{
closed = 1;
nodes = (
(718,0,l),
(718,700,l),
(588,700,l),
(588,0,l)
);
}
);
width = 784;
}
);
metricLeft = H;
metricRight = H;
unicode = 77;
},
{
color = 4;
glyphname = N;
lastChange = "2024-06-19 06:09:39 +0000";
layers = (
{
anchors = (
{
name = bottom;
pos = (290,0);
},
{
name = top;
pos = (290,700);
}
);
layerId = m01;
shapes = (
{
closed = 1;
nodes = (
(404,0,l),
(259,700,l),
(174,700,l),
(319,0,l)
);
},
{
closed = 1;
nodes = (
(180,0,l),
(180,700,l),
(60,700,l),
(60,0,l)
);
},
{
closed = 1;
nodes = (
(520,0,l),
(520,700,l),
(400,700,l),
(400,0,l)
);
}
);
width = 580;
},
{
anchors = (
{
name = bottom;
pos = (320,0);
},
{
name = top;
pos = (320,700);
}
);
layerId = m002;
shapes = (
{
closed = 1;
nodes = (
(448,0,l),
(302,700,l),
(200,700,l),
(346,0,l)
);
},
{
closed = 1;
nodes = (
(206,0,l),
(206,700,l),
(66,700,l),
(66,0,l)
);
},
{
closed = 1;
nodes = (
(574,0,l),
(574,700,l),
(444,700,l),
(444,0,l)
);
}
);
width = 640;
}
);
metricLeft = H;
metricRight = H;
unicode = 78;
},
{
color = 4;
glyphname = O;
kernLeft = O;
kernRight = O;
lastChange = "2024-06-19 06:09:39 +0000";
layers = (
{
anchors = (
{
name = bottom;
pos = (251,0);
},
{
name = center;
pos = (251,350);
},
{
name = ogonek;
pos = (452,10);
},
{
name = top;
pos = (251,700);
},
{
name = topleft;
pos = (20,700);
},
{
name = topright;
pos = (482,700);
}
);
guides = (
{
pos = (251,-10);
}
);
layerId = m01;
shapes = (
{
closed = 1;
nodes = (
(401,-10,o),
(452,38,o),
(452,132,cs),
(452,568,ls),
(452,662,o),
(401,710,o),
(251,710,cs),
(102,710,o),
(50,662,o),
(50.002,569,cs),
(50,132,ls),
(50,38,o),
(101,-10,o),
(251,-10,cs)
);
},
{
closed = 1;
nodes = (
(201,70,o),
(170,85,o),
(170,132,cs),
(170,568,ls),
(170,615,o),
(201,630,o),
(251,630,cs),
(301,630,o),
(332,615,o),
(332,568,cs),
(332,132,ls),
(332,85,o),
(301,70,o),
(251,70,cs)
);
}
);
width = 502;
},
{
associatedMasterId = m01;
backgroundImage = {
imagePath = OQ.jpg;
locked = 1;
pos = (0,-98);
scale = (3.2786,3.2786);
};
layerId = "48A4F1CB-03F3-4143-AF2B-0E07FDA46BF1";
name = "23 avr. 23 à 14:10";
shapes = (
{
closed = 1;
nodes = (
(41,162,l),
(161,162,l),
(161,538,l),
(41,539,l)
);
},
{
closed = 1;
nodes = (
(363,162,l),
(483,162,l),
(483,538,l),
(363,539,l)
);
},
{
closed = 1;
nodes = (
(262,80,l),
(192,80,o),
(161,115,o),
(161,162,c),
(41,162,l),
(41,68,o),
(92,-10,o),
(262,-10,c)
);
},
{
closed = 1;
nodes = (
(432,-10,o),
(483,68,o),
(483,162,c),
(363,162,l),
(363,115,o),
(332,80,o),
(262,80,c),
(262,-10,l)
);
},
{
closed = 1;
nodes = (
(92,710,o),
(41,632,o),
(41,538,c),
(161,538,l),
(161,585,o),
(192,620,o),
(262,620,c),
(262,710,l)
);
},
{
closed = 1;
nodes = (
(262,620,l),
(332,620,o),
(363,585,o),
(363,538,c),
(483,538,l),
(483,632,o),
(432,710,o),
(262,710,c)
);
}
);
width = 600;
},
{
associatedMasterId = m01;
backgroundImage = {
imagePath = OQ.jpg;
locked = 1;
pos = (-11,-98);
scale = (3.2786,3.2786);
};
layerId = "EF7A6310-872E-4CE0-B163-E46A82DBA748";
name = "23 avr. 23 à 14:18";
shapes = (
{
closed = 1;
nodes = (
(50,162,l),
(170,162,l),
(170,538,l),
(50,539,l)
);
},
{
closed = 1;
nodes = (
(332,162,l),
(452,162,l),
(452,538,l),
(332,539,l)
);
},
{
closed = 1;
nodes = (
(251,80,l),
(201,80,o),
(170,115,o),
(170,162,c),
(50,162,l),
(50,68,o),
(101,-10,o),
(251,-10,c)
);
},
{
closed = 1;
nodes = (
(401,-10,o),
(452,68,o),
(452,162,c),
(332,162,l),
(332,115,o),
(301,80,o),
(251,80,c),
(251,-10,l)
);
},
{
closed = 1;
nodes = (
(101,710,o),
(50,632,o),
(50,538,c),
(170,538,l),
(170,585,o),
(201,620,o),
(251,620,c),
(251,710,l)
);
},
{
closed = 1;
nodes = (
(251,620,l),
(301,620,o),
(332,585,o),
(332,538,c),
(452,538,l),
(452,632,o),
(401,710,o),
(251,710,c)
);
}
);
width = 502;
},
{
anchors = (
{
name = bottom;
pos = (291,0);
},
{
name = center;
pos = (291,350);
},
{
name = ogonek;
pos = (529,10);
},
{
name = top;
pos = (291,700);
},
{
name = topleft;
pos = (14,700);
},
{
name = topright;
pos = (568,700);
}
);
guides = (
{
pos = (261,-10);
}
);
layerId = m002;
shapes = (
{
closed = 1;
nodes = (
(451,-10,o),
(522,38,o),
(522,132,cs),
(522,568,ls),
(522,662,o),
(451,710,o),
(291,710,cs),
(132,710,o),
(60,661,o),
(60,568,cs),
(60,132,ls),
(60,39,o),
(132,-10,o),
(291,-10,cs)
);
},
{
closed = 1;
nodes = (
(231,70,o),
(200,85,o),
(200,132,cs),
(200,568,ls),
(200,615,o),
(231,630,o),
(291,630,cs),
(351,630,o),
(382,615,o),
(382,568,cs),
(382,132,ls),
(382,85,o),
(351,70,o),
(291,70,cs)
);
}
);
width = 582;
}
);
unicode = 79;
},
{
color = 4;
glyphname = Oslash;
kernLeft = O;
kernRight = O;
lastChange = "2024-06-19 06:09:39 +0000";
layers = (
{
layerId = m01;
shapes = (
{
closed = 1;
nodes = (
(426,-10,o),
(482,38,o),
(482,132,cs),
(482,568,ls),
(482,662,o),
(426,710,o),
(266,710,cs),
(102,710,o),
(50,662,o),
(50,569,cs),
(50,132,ls),
(50,38,o),
(101,-10,o),
(266,-10,cs)
);
},
{
closed = 1;
nodes = (
(201,70,o),
(170,85,o),
(170,132,cs),
(170,568,ls),
(170,615,o),
(201,630,o),
(266,630,cs),
(331,630,o),
(362,615,o),
(362,568,cs),
(362,132,ls),
(362,85,o),
(331,70,o),
(266,70,cs)
);
},
{
closed = 1;
nodes = (
(261,-46,l),
(330,739,l),
(266,744,l),
(197,-41,l)
);
}
);
width = 532;
},
{
layerId = m002;
shapes = (
{
closed = 1;
nodes = (
(471,-10,o),
(542,38,o),
(542,132,cs),
(542,568,ls),
(542,662,o),
(471,710,o),
(301,710,cs),
(132,710,o),
(60,661,o),
(60,568,cs),
(60,132,ls),
(60,39,o),
(132,-10,o),
(301,-10,cs)
);
},
{
closed = 1;
nodes = (
(231,70,o),
(200,85,o),
(200,132,cs),
(200,568,ls),
(200,615,o),
(231,630,o),
(301,630,cs),
(371,630,o),
(402,615,o),
(402,568,cs),
(402,132,ls),
(402,85,o),
(371,70,o),
(301,70,cs)
);
},
{
closed = 1;
nodes = (
(299,-46,l),
(368,739,l),
(304,744,l),
(235,-41,l)
);
}
);
width = 602;
}
);
metricLeft = O;
metricRight = O;
unicode = 216;
},
{
color = 4;
glyphname = OE;
kernLeft = O;
kernRight = E;
lastChange = "2024-06-19 06:09:39 +0000";
layers = (
{
layerId = m01;
shapes = (
{
closed = 1;
nodes = (
(587,0,l),
(587,90,l),
(313,90,l),
(313,0,l)
);
},
{
closed = 1;
nodes = (
(547,380,l),
(547,470,l),
(340,470,l),
(340,380,l)
);
},
{
closed = 1;
nodes = (
(587,610,l),
(587,700,l),
(313,700,l),
(313,610,l)
);
},
{
closed = 1;
nodes = (
(381,-10,o),
(432,38,o),
(432,132,cs),
(432,568,ls),
(432,662,o),
(381,710,o),
(241,710,cs),
(102,710,o),
(50,661,o),
(50,568,cs),
(50,132,ls),
(50,39,o),
(102,-10,o),
(241,-10,cs)
);
},
{
closed = 1;
nodes = (
(201,70,o),
(170,85,o),
(170,132,cs),
(170,568,ls),
(170,615,o),
(201,630,o),
(241,630,cs),
(281,630,o),
(312,615,o),
(312,568,cs),
(312,132,ls),
(312,85,o),
(281,70,o),
(241,70,cs)
);
}
);
width = 623;
},
{
guides = (
{
angle = 90;
pos = (512,350);
}
);
layerId = m002;
shapes = (
{
closed = 1;
nodes = (
(667,0,l),
(667,90,l),
(370,90,l),
(370,0,l)
);
},
{
closed = 1;
nodes = (
(627,380,l),
(627,470,l),
(370,470,l),
(370,380,l)
);
},
{
closed = 1;
nodes = (
(667,610,l),
(667,700,l),
(370,700,l),
(370,610,l)
);
},
{
closed = 1;
nodes = (
(411,-10,o),
(482,38,o),
(482,132,cs),
(482,568,ls),
(482,662,o),
(411,710,o),
(271,710,cs),
(132,710,o),
(60,661,o),
(60,568,cs),
(60,132,ls),
(60,39,o),
(132,-10,o),
(271,-10,cs)
);
},
{
closed = 1;
nodes = (
(231,70,o),
(200,85,o),
(200,132,cs),
(200,568,ls),
(200,615,o),
(231,630,o),
(271,630,cs),
(311,630,o),
(342,615,o),
(342,568,cs),
(342,132,ls),
(342,85,o),
(311,70,o),
(271,70,cs)
);
}
);
width = 707;
},
{
associatedMasterId = m002;
layerId = "F5B2E036-9DBE-4503-B35C-971CF9E4857F";
name = "14 avr. 24 à 20:46";
shapes = (
{
closed = 1;
nodes = (
(334,80,l),
(237,80,o),
(206,95,o),
(206,142,cs),
(206,558,ls),
(206,605,o),
(237,620,o),
(334,620,c),
(334,700,l),
(138,700,o),
(66,651,o),
(66,558,cs),
(66,142,ls),
(66,49,o),
(138,0,o),
(334,0,c)
);
},
{
closed = 1;
nodes = (
(629,0,l),
(629,90,l),
(402,90,l),
(402,0,l)
);
},
{
closed = 1;
nodes = (
(474,0,l),
(474,700,l),
(334,700,l),
(334,0,l)
);
},
{
closed = 1;
nodes = (
(589,380,l),
(589,470,l),
(402,470,l),
(402,380,l)
);
},
{
closed = 1;
nodes = (
(629,610,l),
(629,700,l),
(402,700,l),
(402,610,l)
);
}
);
width = 669;
}
);
metricLeft = O;
metricRight = E;
unicode = 338;
},
{
color = 4;
glyphname = P;
kernRight = P;
lastChange = "2024-06-19 06:09:39 +0000";
layers = (
{
anchors = (
{
name = bottom;
pos = (246,0);
},
{
name = top;
pos = (246,700);
}
);
guides = (
{
angle = 180;
pos = (174,371);
}
);
layerId = m01;
shapes = (
{
closed = 1;
nodes = (
(180,0,l),
(180,700,l),
(60,700,l),
(60,0,l)
);
},
{
closed = 1;
nodes = (
(251,191,l),
(251,271,l),
(136,271,l),
(136,191,l)
);
},
{
closed = 1;
nodes = (
(401,191,o),
(452,239,o),
(452,333,c),
(332,333,l),
(332,286,o),
(301,271,o),
(251,271,c),
(251,191,l)
);
},
{
closed = 1;
nodes = (
(452,333,l),
(452,558,l),
(332,558,l),
(332,333,l)
);
},
{
closed = 1;
nodes = (
(251,620,l),
(251,700,l),
(136,700,l),
(136,620,l)
);
},
{
closed = 1;
nodes = (
(452,558,l),
(452,652,o),
(401,700,o),
(251,700,c),
(251,620,l),
(301,620,o),
(332,605,o),
(332,558,c)
);
}
);
width = 492;
},
{
anchors = (
{
name = bottom;
pos = (278,0);
},
{
name = top;
pos = (278,700);
}
);
guides = (
{
angle = 180;
pos = (200,371);
}
);
layerId = m002;
shapes = (
{
closed = 1;
nodes = (
(206,0,l),
(206,700,l),
(66,700,l),
(66,0,l)
);
},
{
closed = 1;
nodes = (
(315,140,l),
(315,230,l),
(156,230,l),
(156,140,l)
);
},
{
closed = 1;
nodes = (
(485,140,o),
(516,198,o),
(516,292,c),
(376,292,l),
(376,245,o),
(365,230,o),
(315,230,c),
(315,140,l)
);
},
{
closed = 1;
nodes = (
(516,292,l),
(516,548,l),
(376,548,l),
(376,292,l)
);
},
{
closed = 1;
nodes = (
(315,610,l),
(315,700,l),
(156,700,l),
(156,610,l)
);
},
{
closed = 1;
nodes = (
(516,548,l),
(516,642,o),
(485,700,o),
(315,700,c),
(315,610,l),
(365,610,o),
(376,595,o),
(376,548,c)
);
}
);
width = 556;
}
);
unicode = 80;
},
{
color = 4;
glyphname = Thorn;
kernRight = eth;
lastChange = "2024-06-19 06:57:35 +0000";
layers = (
{
layerId = m01;
shapes = (
{
closed = 1;
nodes = (
(180,0,l),
(180,700,l),
(60,700,l),
(60,0,l)
);
},
{
closed = 1;
nodes = (
(251,160,l),
(251,240,l),
(136,240,l),
(136,160,l)
);
},
{
closed = 1;
nodes = (
(401,160,o),
(452,208,o),
(452,302,c),
(332,302,l),
(332,255,o),
(301,240,o),
(251,240,c),
(251,160,l)
);
},
{
closed = 1;
nodes = (
(452,302,l),
(452,468,l),
(332,468,l),
(332,302,l)
);
},
{
closed = 1;
nodes = (
(251,530,l),
(251,610,l),
(136,610,l),
(136,530,l)
);
},
{
closed = 1;
nodes = (
(452,468,l),
(452,562,o),
(401,610,o),
(251,610,c),
(251,530,l),
(301,530,o),
(332,515,o),
(332,468,c)
);
}
);
width = 482;
},
{
layerId = m002;
shapes = (
{
closed = 1;
nodes = (
(206,0,l),
(206,700,l),
(66,700,l),
(66,0,l)
);
},
{
closed = 1;
nodes = (
(315,140,l),
(315,230,l),
(156,230,l),
(156,140,l)
);
},
{
closed = 1;
nodes = (
(485,140,o),
(516,198,o),
(516,292,c),
(376,292,l),
(376,245,o),
(365,230,o),
(315,230,c),
(315,140,l)
);
},
{
closed = 1;
nodes = (
(516,292,l),
(516,458,l),
(376,458,l),
(376,292,l)
);
},
{
closed = 1;
nodes = (
(315,520,l),
(315,610,l),
(156,610,l),
(156,520,l)
);
},
{
closed = 1;
nodes = (
(516,458,l),
(516,552,o),
(485,610,o),
(315,610,c),
(315,520,l),
(365,520,o),
(376,505,o),
(376,458,c)
);
}
);
width = 556;
}
);
metricLeft = H;
unicode = 222;
},
{
color = 4;
glyphname = Q;
kernLeft = O;
kernRight = O;
lastChange = "2024-06-19 06:09:56 +0000";
layers = (
{
anchors = (
{
name = bottom;
pos = (251,0);
},
{
name = top;
pos = (251,700);
}
);
layerId = m01;
shapes = (
{
ref = O;
},
{
closed = 1;
nodes = (
(284,188,l),
(216,188,l),
(242,-90,l),
(310,-90,l)
);
}
);
width = 502;
},
{
associatedMasterId = m01;
layerId = "2C65C817-67E3-4153-92A2-34516F831D4C";
name = "24 avr. 23 à 09:09";
shapes = (
{
closed = 1;
nodes = (
(50,142,l),
(170,142,l),
(170,558,l),
(50,559,l)
);
},
{
closed = 1;
nodes = (
(342,142,l),
(462,142,l),
(462,558,l),
(342,558,l)
);
},
{
closed = 1;
nodes = (
(256,80,l),
(201,80,o),
(170,95,o),
(170,142,c),
(50,142,l),
(50,48,o),
(101,-10,o),
(256,-10,c)
);
},
{
closed = 1;
nodes = (
(411,-10,o),
(462,48,o),
(462,142,c),
(342,142,l),
(342,95,o),
(311,80,o),
(256,80,c),
(256,-10,l)
);
},
{
closed = 1;
nodes = (
(101,710,o),
(50,652,o),
(50,558,c),
(170,558,l),
(170,605,o),
(201,620,o),
(256,620,c),
(256,710,l)
);
},
{
closed = 1;
nodes = (
(256,620,l),
(311,620,o),
(342,605,o),
(342,558,c),
(462,558,l),
(462,652,o),
(411,710,o),
(256,710,c)
);
},
{
closed = 1;
nodes = (
(281,188,l),
(211,188,l),
(336,-90,l),
(406,-90,l)
);
}
);
width = 512;
},
{
anchors = (
{
name = bottom;
pos = (297,0);
},
{
name = top;
pos = (297,700);
}
);
layerId = m002;
shapes = (
{
ref = O;
},
{
closed = 1;
nodes = (
(342,188,l),
(252,188,l),
(278,-90,l),
(368,-90,l)
);
}
);
width = 582;
}
);
metricLeft = O;
metricRight = O;
unicode = 81;
},
{
color = 4;
glyphname = R;
kernRight = R;
lastChange = "2024-06-19 06:09:56 +0000";
layers = (
{
anchors = (
{
name = bottom;
pos = (256,0);
},
{
name = top;
pos = (256,700);
}
);
guides = (
{
angle = 180;
pos = (174,371);
}
);
layerId = m01;
shapes = (
{
closed = 1;
nodes = (
(180,0,l),
(180,700,l),
(60,700,l),
(60,0,l)
);
},
{
closed = 1;
nodes = (
(461,0,l),
(461,187,ls),
(461,372,o),
(406,380,o),
(232,380,c),
(232,330,l),
(290,330,o),
(343,316,o),
(343,177,cs),
(343,0,l)
);
},
{
closed = 1;
nodes = (
(267,330,l),
(267,420,l),
(80,420,l),
(80,330,l)
);
},
{
closed = 1;
nodes = (
(257,610,l),
(257,700,l),
(80,700,l),
(80,610,l)
);
},
{
closed = 1;
nodes = (
(436,370,o),
(462,444,o),
(462,550,cs),
(462,676,o),
(359,700,o),
(257,700,c),
(257,610,l),
(315,610,o),
(342,595,o),
(342,535,cs),
(342,496,o),
(332,420,o),
(252,420,c),
(252,370,l)
);
}
);
width = 508;
},
{
associatedMasterId = m01;
backgroundImage = {
imagePath = "../../Documents/TYPEFACES/_GURZ/Rcap.jpg";
locked = 1;
pos = (38,-54);
scale = (3.3013,3.3013);
};
layerId = "F1F00B3B-010F-4490-A839-D8BE803AC824";
name = "19 janv. 24 à 09:26";
shapes = (
{
closed = 1;
nodes = (
(128,610,l),
(315,610,l),
(315,700,l),
(128,700,l)
);
},
{
closed = 1;
nodes = (
(128,281,l),
(315,281,l),
(315,371,l),
(128,371,l)
);
},
{
closed = 1;
nodes = (
(444,311,o),
(564,396,o),
(564,533,cs),
(564,664,o),
(447,700,o),
(315,700,c),
(315,610,l),
(405,610,o),
(431,573,o),
(431,504,cs),
(431,413,o),
(378,371,o),
(280,371,c),
(280,311,l)
);
},
{
closed = 1;
nodes = (
(538,-1,l),
(442,221,ls),
(409,298,o),
(359,331,o),
(294,331,cs),
(268,331,l),
(268,281,l),
(297,281,o),
(335,238,o),
(360,148,cs),
(398,-1,l)
);
},
{
closed = 1;
nodes = (
(60,0,l),
(180,0,l),
(180,700,l),
(60,700,l)
);
}
);
width = 600;
},
{
associatedMasterId = m01;
backgroundImage = {
imagePath = "../../Documents/TYPEFACES/_GURZ/Rcap.jpg";
locked = 1;
pos = (38,-54);
scale = (3.3013,3.3013);
};
layerId = "FE8045DA-E1B9-4418-A38E-01DBA9B4D239";
name = "19 janv. 24 à 09:41";
shapes = (
{
closed = 1;
nodes = (
(128,610,l),
(315,610,l),
(315,700,l),
(128,700,l)
);
},
{
closed = 1;
nodes = (
(128,281,l),
(315,281,l),
(315,371,l),
(128,371,l)
);
},
{
closed = 1;
nodes = (
(444,311,o),
(564,396,o),
(564,533,cs),
(564,664,o),
(447,700,o),
(315,700,c),
(315,610,l),
(405,610,o),
(431,573,o),
(431,504,cs),
(431,413,o),
(378,371,o),
(280,371,c),
(280,311,l)
);
},
{
closed = 1;
nodes = (
(538,-1,l),
(442,221,ls),
(409,298,o),
(359,331,o),
(294,331,cs),
(268,331,l),
(268,281,l),
(297,281,o),
(335,238,o),
(360,148,cs),
(398,-1,l)
);
},
{
closed = 1;
nodes = (
(108,0,l),
(228,0,l),
(228,700,l),
(108,700,l)
);
}
);
width = 600;
},
{
associatedMasterId = m01;
guides = (
{
angle = 180;
pos = (174,371);
}
);
layerId = "DD402833-7116-4319-A784-589FE451890A";
name = "21 janv. 24 à 13:01";
shapes = (
{
closed = 1;
nodes = (
(80,610,l),
(267,610,l),
(267,700,l),
(80,700,l)
);
},
{
closed = 1;
nodes = (
(80,281,l),
(267,281,l),
(267,371,l),
(80,371,l)
);
},
{
closed = 1;
nodes = (
(356,311,o),
(461,396,o),
(461,533,cs),
(461,664,o),
(359,700,o),
(267,700,c),
(267,610,l),
(317,610,o),
(343,568,o),
(343,504,cs),
(343,413,o),
(290,371,o),
(232,371,c),
(232,311,l)
);
},
{
closed = 1;
nodes = (
(480,-1,l),
(394,211,ls),
(359,298,o),
(297,331,o),
(236,331,cs),
(210,331,l),
(210,281,l),
(251,281,o),
(294,227,o),
(312,138,cs),
(340,-1,l)
);
},
{
closed = 1;
nodes = (
(60,0,l),
(180,0,l),
(180,700,l),
(60,700,l)
);
}
);
width = 500;
},
{
anchors = (
{
name = bottom;
pos = (287,0);
},
{
name = top;
pos = (287,700);
}
);
guides = (
{
angle = 180;
pos = (200,371);
}
);
layerId = m002;
shapes = (
{
closed = 1;
nodes = (
(206,0,l),
(206,700,l),
(66,700,l),
(66,0,l)
);
},
{
closed = 1;
nodes = (
(528,0,l),
(528,187,ls),
(528,372,o),
(451,380,o),
(287,380,c),
(287,330,l),
(345,330,o),
(388,316,o),
(388,177,cs),
(388,0,l)
);
},
{
closed = 1;
nodes = (
(322,330,l),
(322,420,l),
(106,420,l),
(106,330,l)
);
},
{
closed = 1;
nodes = (
(322,610,l),
(322,700,l),
(106,700,l),
(106,610,l)
);
},
{
closed = 1;
nodes = (
(451,370,o),
(526,424,o),
(526,550,cs),
(526,676,o),
(424,700,o),
(322,700,c),
(322,610,l),
(372,610,o),
(386,589,o),
(386,542,cs),
(386,462,o),
(345,420,o),
(287,420,c),
(287,370,l)
);
}
);
width = 578;
}
);
metricLeft = H;
unicode = 82;
},
{
color = 4;
glyphname = S;
kernLeft = S;
kernRight = S;
lastChange = "2024-06-19 06:09:56 +0000";
layers = (
{
anchors = (
{
name = bottom;
pos = (245,0);
},
{
name = top;
pos = (245,700);
}
);
guides = (
{
angle = 90;
pos = (891,562);
},
{
pos = (613,-10);
},
{
angle = 90;
pos = (245,80);
},
{
angle = 180;
pos = (392,248);
}
);
layerId = m01;
shapes = (
{
closed = 1;
nodes = (
(383,-10,o),
(456,82,o),
(456,190,cs),
(456,311,o),
(361,378,o),
(294,412,cs),
(245,437,ls),
(194,463,o),
(159,498,o),
(159,548,cs),
(159,592,o),
(186,630,o),
(245,630,cs),
(314,630,o),
(342,607,o),
(342,493,c),
(462,493,l),
(462,651,o),
(402,720,o),
(245,720,cs),
(100,720,o),
(38,633,o),
(38,534,cs),
(38,464,o),
(69,384,o),
(185,322,cs),
(230,298,ls),
(285,269,o),
(336,234,o),
(336,176,cs),
(336,113,o),
(293,80,o),
(245,80,cs),
(177,80,o),
(143,127,o),
(143,238,c),
(21,238,l),
(21,72,o),
(95,-10,o),
(245,-10,cs)
);
}
);
width = 485;
},
{
anchors = (
{
name = bottom;
pos = (262,0);
},
{
name = top;
pos = (262,700);
}
);
guides = (
{
angle = 90;
pos = (907,562);
},
{
pos = (629,-10);
},
{
angle = 90;
pos = (544,547);
},
{
angle = 90;
pos = (264,621);
},
{
angle = 180;
pos = (392,238);
}
);
layerId = m002;
shapes = (
{
closed = 1;
nodes = (
(399,-10,o),
(482,92,o),
(482,196,cs),
(482,307,o),
(386,378,o),
(315,414,cs),
(252,446,ls),
(216,464,o),
(174,493,o),
(174,544,cs),
(174,594,o),
(215,620,o),
(264,620,cs),
(316,620,o),
(358,596,o),
(358,502,c),
(494,502,l),
(494,672,o),
(374,720,o),
(264,720,cs),
(114,720,o),
(44,630,o),
(44,534,cs),
(44,455,o),
(77,385,o),
(182,331,cs),
(246,298,ls),
(302,269,o),
(352,234,o),
(352,176,cs),
(352,123,o),
(310,90,o),
(264,90,cs),
(170,90,o),
(168,172,o),
(168,238,c),
(27,238,l),
(27,73,o),
(117,-10,o),
(264,-10,cs)
);
}
);
width = 517;
},
{
anchors = (
{
name = bottom;
pos = (241,0);
},
{
name = top;
pos = (241,700);
}
);
associatedMasterId = m01;
guides = (
{
angle = 90;
pos = (887,562);
},
{
pos = (609,-10);
},
{
angle = 90;
pos = (524,547);
}
);
layerId = "C75DFF49-FC67-46D3-9253-CD55CD0EE00E";
name = "2 mai 24 à 14:04";
shapes = (
{
closed = 1;
nodes = (
(366,-10,o),
(452,66,o),
(452,196,cs),
(452,320,o),
(355,378,o),
(276,419,cs),
(223,447,o),
(144,477,o),
(144,554,cs),
(144,599,o),
(188,640,o),
(245,640,cs),
(296,640,o),
(338,604,o),
(338,512,c),
(461,537,l),
(449,604,o),
(414,720,o),
(244,720,cs),
(108,720,o),
(34,630,o),
(34,534,cs),
(34,456,o),
(72,392,o),
(181,324,cs),
(244,285,o),
(342,251,o),
(342,176,cs),
(342,113,o),
(289,80,o),
(243,80,cs),
(189,80,o),
(139,126,o),
(147,233,c),
(16,213,l),
(18,52,o),
(131,-10,o),
(243,-10,cs)
);
}
);
width = 481;
},
{
anchors = (
{
name = bottom;
pos = (241,0);
},
{
name = top;
pos = (241,700);
}
);
associatedMasterId = m01;
guides = (
{
angle = 90;
pos = (887,562);
},
{
pos = (609,-10);
},
{
angle = 90;
pos = (524,547);
}
);
layerId = "FE4360EB-7FEA-4D4B-B337-D9FC33EC3D71";
name = "2 mai 24 à 14:05";
shapes = (
{
closed = 1;
nodes = (
(366,-10,o),
(452,66,o),
(452,196,cs),
(452,320,o),
(355,378,o),
(276,419,cs),
(223,447,o),
(144,477,o),
(144,554,cs),
(144,599,o),
(188,640,o),
(245,640,cs),
(296,640,o),
(338,604,o),
(338,512,c),
(461,537,l),
(449,604,o),
(414,720,o),
(244,720,cs),
(108,720,o),
(34,630,o),
(34,534,cs),
(34,456,o),
(72,392,o),
(181,324,cs),
(244,285,o),
(342,251,o),
(342,176,cs),
(342,113,o),
(289,80,o),
(243,80,cs),
(189,80,o),
(139,126,o),
(147,233,c),
(16,213,l),
(18,52,o),
(131,-10,o),
(243,-10,cs)
);
}
);
width = 481;
},
{
anchors = (
{
name = bottom;
pos = (241,0);
},
{
name = top;
pos = (241,700);
}
);
associatedMasterId = m01;
guides = (
{
angle = 90;
pos = (887,562);
},
{
pos = (609,-10);
},
{
angle = 90;
pos = (524,547);
},
{
angle = 90;
pos = (243,80);
}
);
layerId = "BBDA283B-8C43-45E8-946A-14EEE20FEE34";
name = "2 mai 24 à 14:07";
shapes = (
{
closed = 1;
nodes = (
(378,-10,o),
(452,79,o),
(452,196,cs),
(452,326,o),
(355,378,o),
(276,419,cs),
(223,447,o),
(155,477,o),
(155,554,cs),
(155,599,o),
(188,630,o),
(245,630,cs),
(296,630,o),
(338,604,o),
(338,512,c),
(461,537,l),
(449,604,o),
(414,720,o),
(244,720,cs),
(108,720,o),
(34,630,o),
(34,534,cs),
(34,465,o),
(72,392,o),
(181,324,cs),
(244,285,o),
(332,251,o),
(332,176,cs),
(332,113,o),
(289,80,o),
(243,80,cs),
(189,80,o),
(139,126,o),
(147,233,c),
(16,213,l),
(18,52,o),
(131,-10,o),
(243,-10,cs)
);
}
);
width = 481;
},
{
anchors = (
{
name = bottom;
pos = (241,0);
},
{
name = top;
pos = (241,700);
}
);
associatedMasterId = m002;
guides = (
{
angle = 90;
pos = (887,562);
},
{
pos = (609,-10);
},
{
angle = 90;
pos = (524,547);
}
);
layerId = "60652707-BBAD-4FC3-B9AA-57A3C7DE0DB6";
name = "2 mai 24 à 14:09";
shapes = (
{
closed = 1;
nodes = (
(366,-10,o),
(452,66,o),
(452,196,cs),
(452,320,o),
(355,378,o),
(276,419,cs),
(223,447,o),
(144,477,o),
(144,554,cs),
(144,599,o),
(188,640,o),
(245,640,cs),
(296,640,o),
(338,604,o),
(338,512,c),
(461,537,l),
(449,604,o),
(414,720,o),
(244,720,cs),
(108,720,o),
(34,630,o),
(34,534,cs),
(34,456,o),
(72,392,o),
(181,324,cs),
(244,285,o),
(342,251,o),
(342,176,cs),
(342,113,o),
(289,80,o),
(243,80,cs),
(189,80,o),
(139,126,o),
(147,233,c),
(16,213,l),
(18,52,o),
(131,-10,o),
(243,-10,cs)
);
}
);
width = 481;
},
{
anchors = (
{
name = bottom;
pos = (247,0);
},
{
name = top;
pos = (247,700);
}
);
associatedMasterId = m01;
guides = (
{
angle = 90;
pos = (891,562);
},
{
pos = (613,-10);
},
{
angle = 90;
pos = (247,80);
}
);
layerId = "A114FBB3-14F6-414D-B4B1-1086650657FE";
name = "10 mai 24 à 16:54";
shapes = (
{
closed = 1;
nodes = (
(392,-10,o),
(456,93,o),
(456,190,cs),
(456,311,o),
(359,376,o),
(294,412,cs),
(245,439,ls),
(194,467,o),
(159,500,o),
(159,548,cs),
(159,592,o),
(188,630,o),
(247,630,cs),
(296,630,o),
(342,604,o),
(342,512,c),
(465,537,l),
(465,618,o),
(404,720,o),
(247,720,cs),
(104,720,o),
(38,633,o),
(38,534,cs),
(38,464,o),
(71,390,o),
(185,324,cs),
(230,298,ls),
(283,267,o),
(336,234,o),
(336,176,cs),
(336,113,o),
(293,80,o),
(247,80,cs),
(193,80,o),
(143,125,o),
(143,233,c),
(20,213,l),
(20,45,o),
(141,-10,o),
(247,-10,cs)
);
}
);
width = 485;
},
{
anchors = (
{
name = bottom;
pos = (247,0);
},
{
name = top;
pos = (247,700);
}
);
associatedMasterId = m01;
guides = (
{
angle = 90;
pos = (891,562);
},
{
pos = (613,-10);
},
{
angle = 90;
pos = (247,80);
}
);
layerId = "3AE97D6E-FF44-4317-991E-9B13F1BCBF0C";
name = "12 juin 24 à 17:51";
shapes = (
{
closed = 1;
nodes = (
(392,-10,o),
(456,93,o),
(456,190,cs),
(456,311,o),
(359,376,o),
(294,412,cs),
(245,439,ls),
(194,467,o),
(159,500,o),
(159,548,cs),
(159,592,o),
(188,630,o),
(247,630,cs),
(296,630,o),
(342,604,o),
(342,512,c),
(465,537,l),
(465,618,o),
(394,720,o),
(247,720,cs),
(114,720,o),
(38,633,o),
(38,534,cs),
(38,468,o),
(71,390,o),
(185,324,cs),
(230,298,ls),
(283,267,o),
(336,234,o),
(336,176,cs),
(336,113,o),
(293,80,o),
(247,80,cs),
(193,80,o),
(143,125,o),
(143,233,c),
(20,213,l),
(20,45,o),
(141,-10,o),
(247,-10,cs)
);
}
);
width = 485;
},
{
anchors = (
{
name = bottom;
pos = (261,0);
},
{
name = top;
pos = (261,700);
}
);
associatedMasterId = m002;
guides = (
{
angle = 90;
pos = (907,562);
},
{
pos = (629,-10);
},
{
angle = 90;
pos = (544,547);
},
{
angle = 90;
pos = (264,621);
}
);
layerId = "6FE2B319-7F53-4EBA-81B8-626F57F9EEAA";
name = "18 juin 24 à 10:24";
shapes = (
{
closed = 1;
nodes = (
(399,-10,o),
(482,92,o),
(482,196,cs),
(482,307,o),
(388,381,o),
(315,414,cs),
(252,443,ls),
(215,459,o),
(174,494,o),
(174,544,cs),
(174,596,o),
(217,620,o),
(264,620,cs),
(313,620,o),
(358,594,o),
(358,512,c),
(491,537,l),
(479,604,o),
(434,720,o),
(264,720,cs),
(128,720,o),
(44,630,o),
(44,534,cs),
(44,455,o),
(75,379,o),
(182,328,cs),
(246,298,ls),
(302,272,o),
(352,234,o),
(352,176,cs),
(352,123,o),
(310,90,o),
(264,90,cs),
(210,90,o),
(159,136,o),
(167,233,c),
(26,213,l),
(26,45,o),
(165,-10,o),
(264,-10,cs)
);
}
);
width = 517;
},
{
anchors = (
{
name = bottom;
pos = (247,0);
},
{
name = top;
pos = (247,700);
}
);
associatedMasterId = m01;
guides = (
{
angle = 90;
pos = (891,562);
},
{
pos = (613,-10);
},
{
angle = 90;
pos = (247,80);
}
);
layerId = "0C3F3A9F-284D-4BC6-A5F2-B69C91A37540";
name = "18 juin 24 à 10:24";
shapes = (
{
closed = 1;
nodes = (
(382,-10,o),
(456,84,o),
(456,190,cs),
(456,311,o),
(359,376,o),
(294,412,cs),
(245,439,ls),
(194,467,o),
(159,500,o),
(159,548,cs),
(159,592,o),
(188,630,o),
(247,630,cs),
(296,630,o),
(342,604,o),
(342,512,c),
(465,537,l),
(465,618,o),
(394,720,o),
(247,720,cs),
(112,720,o),
(38,633,o),
(38,534,cs),
(38,468,o),
(71,390,o),
(185,324,cs),
(230,298,ls),
(283,267,o),
(336,234,o),
(336,176,cs),
(336,113,o),
(293,80,o),
(247,80,cs),
(193,80,o),
(143,125,o),
(143,233,c),
(20,213,l),
(20,45,o),
(144,-10,o),
(247,-10,cs)
);
}
);
width = 485;
},
{
anchors = (
{
name = bottom;
pos = (245,0);
},
{
name = top;
pos = (245,700);
}
);
associatedMasterId = m01;
guides = (
{
angle = 90;
pos = (891,562);
},
{
pos = (613,-10);
},
{
angle = 90;
pos = (245,80);
},
{
angle = 180;
pos = (392,248);
}
);
layerId = "240EB99C-BBA7-43FF-8FBF-EBFC305DC6B6";
name = "18 juin 24 à 11:40";
shapes = (
{
closed = 1;
nodes = (
(383,-10,o),
(456,84,o),
(456,190,cs),
(456,311,o),
(361,378,o),
(294,412,cs),
(245,437,ls),
(194,463,o),
(159,498,o),
(159,548,cs),
(159,592,o),
(186,630,o),
(245,630,cs),
(314,630,o),
(342,607,o),
(342,493,c),
(462,493,l),
(462,651,o),
(402,720,o),
(245,720,cs),
(100,720,o),
(38,633,o),
(38,534,cs),
(38,464,o),
(69,384,o),
(185,322,cs),
(230,298,ls),
(285,269,o),
(336,234,o),
(336,176,cs),
(336,113,o),
(293,80,o),
(245,80,cs),
(185,80,o),
(140,102,o),
(140,195,cs),
(140,209,o),
(141,232,o),
(143,248,c),
(21,248,l),
(19,232,o),
(18,207,o),
(18,192,cs),
(18,26,o),
(144,-10,o),
(245,-10,cs)
);
}
);
width = 485;
},
{
anchors = (
{
name = bottom;
pos = (262,0);
},
{
name = top;
pos = (262,700);
}
);
associatedMasterId = m002;
guides = (
{
angle = 90;
pos = (907,562);
},
{
pos = (629,-10);
},
{
angle = 90;
pos = (544,547);
},
{
angle = 90;
pos = (264,621);
},
{
angle = 180;
pos = (392,248);
}
);
layerId = "B9F9121F-A82D-4D1E-82E1-C67E3A5D6351";
name = "18 juin 24 à 11:40";
shapes = (
{
closed = 1;
nodes = (
(399,-10,o),
(482,92,o),
(482,196,cs),
(482,307,o),
(386,378,o),
(315,414,cs),
(252,446,ls),
(216,464,o),
(174,493,o),
(174,544,cs),
(174,594,o),
(215,620,o),
(264,620,cs),
(316,620,o),
(358,596,o),
(358,502,c),
(494,502,l),
(494,672,o),
(374,720,o),
(264,720,cs),
(114,720,o),
(44,630,o),
(44,534,cs),
(44,455,o),
(77,385,o),
(182,331,cs),
(246,298,ls),
(302,269,o),
(352,234,o),
(352,176,cs),
(352,123,o),
(310,90,o),
(264,90,cs),
(214,90,o),
(165,121,o),
(165,203,cs),
(165,220,o),
(166,231,o),
(168,248,c),
(27,248,l),
(25,228,o),
(24,218,o),
(24,198,cs),
(24,34,o),
(166,-10,o),
(264,-10,cs)
);
}
);
width = 517;
}
);
unicode = 83;
},
{
color = 4;
glyphname = Germandbls;
kernRight = o;
lastChange = "2024-06-19 06:21:37 +0000";
layers = (
{
layerId = m01;
shapes = (
{
closed = 1;
nodes = (
(60,0,l),
(180,0,l),
(180,700,l),
(60,700,l)
);
},
{
closed = 1;
nodes = (
(68,610,l),
(456,610,l),
(456,700,l),
(68,700,l)
);
},
{
closed = 1;
nodes = (
(256,409,l),
(256,319,l),
(321,319,l),
(456,610,l),
(346,610,l)
);
},
{
closed = 1;
nodes = (
(422,0,o),
(526,5,o),
(526,206,cs),
(526,354,o),
(469,409,o),
(315,409,c),
(315,319,l),
(363,319,o),
(406,285,o),
(406,196,cs),
(406,142,o),
(390,90,o),
(340,90,c),
(340,0,l)
);
},
{
closed = 1;
nodes = (
(340,0,l),
(340,90,l),
(250,90,l),
(250,0,l)
);
}
);
width = 550;
},
{
layerId = m002;
shapes = (
{
closed = 1;
nodes = (
(66,0,l),
(206,0,l),
(206,700,l),
(66,700,l)
);
},
{
closed = 1;
nodes = (
(94,610,l),
(522,610,l),
(522,700,l),
(94,700,l)
);
},
{
closed = 1;
nodes = (
(292,409,l),
(292,319,l),
(377,319,l),
(522,610,l),
(392,610,l)
);
},
{
closed = 1;
nodes = (
(488,0,o),
(592,17,o),
(592,206,cs),
(592,354,o),
(527,409,o),
(351,409,c),
(351,319,l),
(409,319,o),
(452,285,o),
(452,196,cs),
(452,142,o),
(436,90,o),
(376,90,c),
(376,0,l)
);
},
{
closed = 1;
nodes = (
(376,0,l),
(376,90,l),
(286,90,l),
(286,0,l)
);
}
);
width = 628;
}
);
metricLeft = H;
metricRight = o;
unicode = 7838;
},
{
color = 4;
glyphname = T;
kernLeft = T;
kernRight = T;
lastChange = "2024-06-19 07:29:43 +0000";
layers = (
{
anchors = (
{
name = bottom;
pos = (205,0);
},
{
name = center;
pos = (205,350);
},
{
name = top;
pos = (205,700);
}
);
layerId = m01;
shapes = (
{
closed = 1;
nodes = (
(265,0,l),
(265,700,l),
(145,700,l),
(145,0,l)
);
},
{
closed = 1;
nodes = (
(390,610,l),
(390,700,l),
(20,700,l),
(20,610,l)
);
}
);
width = 410;
},
{
anchors = (
{
name = bottom;
pos = (251,0);
},
{
name = center;
pos = (251,350);
},
{
name = top;
pos = (251,700);
}
);
layerId = m002;
shapes = (
{
closed = 1;
nodes = (
(321,0,l),
(321,700,l),
(181,700,l),
(181,0,l)
);
},
{
closed = 1;
nodes = (
(476,610,l),
(476,700,l),
(26,700,l),
(26,610,l)
);
}
);
width = 502;
}
);
unicode = 84;
},
{
color = 4;
glyphname = U;
kernLeft = U;
kernRight = U;
lastChange = "2024-06-19 06:09:53 +0000";
layers = (
{
anchors = (
{
name = bottom;
pos = (253,0);
},
{
name = ogonek;
pos = (455,10);
},
{
name = top;
pos = (253,700);
},
{
name = topright;
pos = (486,700);
}
);
layerId = m01;
shapes = (
{
closed = 1;
nodes = (
(399,-10,o),
(450,38,o),
(450,132,cs),
(450,700,l),
(330,700,l),
(330,132,ls),
(330,85,o),
(299,70,o),
(253,70,cs),
(207,70,o),
(176,85,o),
(176,132,cs),
(176,700,l),
(56,700,l),
(56,132,ls),
(56,38,o),
(107,-10,o),
(253,-10,cs)
);
}
);
width = 506;
},
{
anchors = (
{
name = bottom;
pos = (289,0);
},
{
name = ogonek;
pos = (525,10);
},
{
name = top;
pos = (289,700);
},
{
name = topright;
pos = (564,700);
}
);
layerId = m002;
shapes = (
{
closed = 1;
nodes = (
(447,-10,o),
(518,38,o),
(518,132,cs),
(518,700,l),
(378,700,l),
(378,132,ls),
(378,85,o),
(347,70,o),
(289,70,cs),
(231,70,o),
(200,85,o),
(200,132,cs),
(200,700,l),
(60,700,l),
(60,132,ls),
(60,39,o),
(132,-10,o),
(289,-10,cs)
);
}
);
width = 578;
}
);
unicode = 85;
},
{
color = 4;
glyphname = Uogonek;
kernLeft = U;
kernRight = U;
lastChange = "2024-06-19 07:52:28 +0000";
layers = (
{
layerId = m01;
shapes = (
{
closed = 1;
nodes = (
(399,-10,o),
(450,38,o),
(450,132,cs),
(450,700,l),
(330,700,l),
(330,132,ls),
(330,85,o),
(299,70,o),
(253,70,cs),
(207,70,o),
(176,85,o),
(176,132,cs),
(176,700,l),
(56,700,l),
(56,132,ls),
(56,38,o),
(107,-10,o),
(253,-10,cs)
);
},
{
closed = 1;
nodes = (
(472,-240,l),
(472,-150,l),
(404,-150,ls),
(386,-150,o),
(382,-140,o),
(387,-123,cs),
(443,81,l),
(374,81,l),
(313,-135,ls),
(308,-153,o),
(305,-168,o),
(305,-182,cs),
(305,-221,o),
(328,-240,o),
(380,-240,cs)
);
}
);
width = 506;
},
{
layerId = m002;
shapes = (
{
closed = 1;
nodes = (
(447,-10,o),
(518,38,o),
(518,132,cs),
(518,700,l),
(378,700,l),
(378,132,ls),
(378,85,o),
(347,70,o),
(289,70,cs),
(231,70,o),
(200,85,o),
(200,132,cs),
(200,700,l),
(60,700,l),
(60,132,ls),
(60,39,o),
(132,-10,o),
(289,-10,cs)
);
},
{
closed = 1;
nodes = (
(513,-240,l),
(513,-150,l),
(445,-150,ls),
(427,-150,o),
(421,-140,o),
(428,-123,cs),
(509,80,l),
(440,80,l),
(354,-135,ls),
(347,-153,o),
(343,-169,o),
(343,-183,cs),
(343,-221,o),
(370,-240,o),
(421,-240,cs)
);
}
);
width = 578;
}
);
unicode = 370;
},
{
color = 4;
glyphname = V;
kernLeft = V;
kernRight = V;
lastChange = "2024-06-19 07:31:11 +0000";
layers = (
{
anchors = (
{
name = bottom;
pos = (244,0);
},
{
name = top;
pos = (241,700);
}
);
layerId = m01;
shapes = (
{
closed = 1;
nodes = (
(256,0,l),
(140,700,l),
(20,700,l),
(136,0,l)
);
},
{
closed = 1;
nodes = (
(332,0,l),
(448,700,l),
(348,700,l),
(232,0,l)
);
}
);
width = 464;
},
{
anchors = (
{
name = bottom;
pos = (293,0);
},
{
name = top;
pos = (293,700);
}
);
layerId = m002;
shapes = (
{
closed = 1;
nodes = (
(305,0,l),
(159,700,l),
(26,700,l),
(172,0,l)
);
},
{
closed = 1;
nodes = (
(395,0,l),
(541,700,l),
(427,700,l),
(281,0,l)
);
}
);
width = 561;
}
);
unicode = 86;
},
{
color = 4;
glyphname = W;
kernLeft = V;
kernRight = V;
lastChange = "2024-06-19 06:09:53 +0000";
layers = (
{
anchors = (
{
name = bottom;
pos = (369,0);
},
{
name = top;
pos = (369,700);
}
);
guides = (
{
pos = (352,105);
}
);
layerId = m01;
shapes = (
{
closed = 1;
nodes = (
(245,0,l),
(140,700,l),
(20,700,l),
(125,0,l)
);
},
{
closed = 1;
nodes = (
(305,0,l),
(374,700,l),
(294,700,l),
(225,0,l)
);
},
{
closed = 1;
nodes = (
(532,0,l),
(462,700,l),
(362,700,l),
(432,0,l)
);
},
{
closed = 1;
nodes = (
(622,0,l),
(727,700,l),
(617,700,l),
(512,0,l)
);
}
);
width = 743;
},
{
associatedMasterId = m01;
backgroundImage = {
imagePath = W.jpg;
locked = 1;
pos = (0,-39);
scale = (3.2983,3.2983);
};
layerId = "F44FB03E-C54D-4FE3-989F-69E9D09E7838";
name = "24 avr. 23 à 09:33";
shapes = (
{
closed = 1;
nodes = (
(156,700,l),
(36,700,l),
(151,0,l),
(271,0,l)
);
},
{
closed = 1;
nodes = (
(289,0,l),
(404,700,l),
(364,700,l),
(249,0,l)
);
},
{
closed = 1;
nodes = (
(599,0,l),
(714,700,l),
(614,700,l),
(499,0,l)
);
},
{
closed = 1;
nodes = (
(1198,700,l),
(1113,700,l),
(1228,0,l),
(1313,0,l)
);
},
{
closed = 1;
nodes = (
(1021,0,l),
(1136,700,l),
(1056,700,l),
(941,0,l)
);
}
);
width = 600;
},
{
associatedMasterId = m01;
guides = (
{
pos = (368,105);
}
);
layerId = "71052436-11B0-406A-B3C9-AAFD555353C5";
name = "19 janv. 24 à 19:05";
shapes = (
{
closed = 1;
nodes = (
(156,700,l),
(36,700,l),
(141,0,l),
(261,0,l)
);
},
{
closed = 1;
nodes = (
(638,0,l),
(743,700,l),
(633,700,l),
(528,0,l)
);
},
{
closed = 1;
nodes = (
(468,700,l),
(383,700,l),
(463,0,l),
(548,0,l)
);
},
{
closed = 1;
nodes = (
(316,0,l),
(395,700,l),
(320,700,l),
(241,0,l)
);
}
);
width = 769;
},
{
anchors = (
{
name = bottom;
pos = (398,0);
},
{
name = top;
pos = (398,700);
}
);
guides = (
{
pos = (386,105);
}
);
layerId = m002;
shapes = (
{
closed = 1;
nodes = (
(261,0,l),
(166,700,l),
(26,700,l),
(121,0,l)
);
},
{
closed = 1;
nodes = (
(332,0,l),
(406,700,l),
(325,700,l),
(251,0,l)
);
},
{
closed = 1;
nodes = (
(566,0,l),
(492,700,l),
(391,700,l),
(465,0,l)
);
},
{
closed = 1;
nodes = (
(676,0,l),
(771,700,l),
(651,700,l),
(556,0,l)
);
}
);
width = 791;
}
);
metricLeft = V;
metricRight = V;
unicode = 87;
},
{
color = 4;
glyphname = X;
kernLeft = X;
kernRight = X;
lastChange = "2024-06-19 07:18:57 +0000";
layers = (
{
anchors = (
{
name = bottom;
pos = (230,0);
},
{
name = top;
pos = (230,700);
}
);
layerId = m01;
shapes = (
{
closed = 1;
nodes = (
(436,0,l),
(136,700,l),
(16,700,l),
(316,0,l)
);
},
{
closed = 1;
nodes = (
(123,0,l),
(284,410,l),
(184,410,l),
(23,0,l)
);
},
{
closed = 1;
nodes = (
(283,290,l),
(444,700,l),
(344,700,l),
(183,290,l)
);
}
);
width = 460;
},
{
associatedMasterId = m01;
layerId = "4E7D8E0F-7A90-4C72-9CBA-71EAF4E2B9B5";
name = "19 janv. 24 à 13:09";
shapes = (
{
closed = 1;
nodes = (
(146,700,l),
(26,700,l),
(326,0,l),
(446,0,l)
);
},
{
closed = 1;
nodes = (
(293,290,l),
(454,700,l),
(354,700,l),
(193,290,l)
);
},
{
closed = 1;
nodes = (
(133,0,l),
(294,410,l),
(194,410,l),
(33,0,l)
);
}
);
width = 480;
},
{
anchors = (
{
name = bottom;
pos = (250,0);
},
{
name = top;
pos = (250,700);
}
);
layerId = m002;
shapes = (
{
closed = 1;
nodes = (
(480,0,l),
(160,700,l),
(20,700,l),
(340,0,l)
);
},
{
closed = 1;
nodes = (
(130,0,l),
(307,410,l),
(197,410,l),
(20,0,l)
);
},
{
closed = 1;
nodes = (
(303,290,l),
(480,700,l),
(370,700,l),
(193,290,l)
);
}
);
width = 500;
}
);
unicode = 88;
},
{
color = 4;
glyphname = Y;
kernLeft = Y;
kernRight = Y;
lastChange = "2024-06-19 06:09:53 +0000";
layers = (
{
anchors = (
{
name = bottom;
pos = (218,0);
},
{
name = top;
pos = (218,700);
},
{
name = topleft;
pos = (0,700);
}
);
layerId = m01;
shapes = (
{
closed = 1;
nodes = (
(280,164,l),
(131,700,l),
(16,700,l),
(165,164,l)
);
},
{
closed = 1;
nodes = (
(283,0,l),
(283,256,l),
(163,256,l),
(163,0,l)
);
},
{
closed = 1;
nodes = (
(281,164,l),
(430,699,l),
(335,699,l),
(186,164,l)
);
}
);
width = 440;
},
{
associatedMasterId = m01;
backgroundImage = {
imagePath = NY.jpg;
locked = 1;
pos = (-111,-48);
scale = (3.2909,3.2909);
};
layerId = "C67D896B-7706-4EC5-9D5D-328527756888";
name = "23 avr. 23 à 18:13";
shapes = (
{
closed = 1;
nodes = (
(163,0,l),
(283,0,l),
(283,270,l),
(163,270,l)
);
},
{
closed = 1;
nodes = (
(268,221,l),
(131,700,l),
(26,700,l),
(163,221,l)
);
},
{
closed = 1;
nodes = (
(420,699,l),
(335,699,l),
(198,221,l),
(283,221,l)
);
}
);
width = 456;
},
{
anchors = (
{
name = bottom;
pos = (258,0);
},
{
name = top;
pos = (258,700);
},
{
name = topleft;
pos = (14,700);
}
);
layerId = m002;
shapes = (
{
closed = 1;
nodes = (
(315,184,l),
(156,700,l),
(20,700,l),
(192,141,l)
);
},
{
closed = 1;
nodes = (
(328,0,l),
(328,256,l),
(188,256,l),
(188,0,l)
);
},
{
closed = 1;
nodes = (
(497,699,l),
(380,699,l),
(221,184,l),
(325,141,l)
);
}
);
width = 513;
}
);
unicode = 89;
},
{
color = 4;
glyphname = Z;
kernLeft = Z;
kernRight = Z;
lastChange = "2024-06-19 06:09:53 +0000";
layers = (
{
anchors = (
{
name = bottom;
pos = (200,0);
},
{
name = center;
pos = (200,350);
},
{
name = top;
pos = (200,700);
}
);
layerId = m01;
shapes = (
{
closed = 1;
nodes = (
(160,90,l),
(380,610,l),
(250,610,l),
(30,90,l)
);
},
{
closed = 1;
nodes = (
(390,0,l),
(390,90,l),
(30,90,l),
(30,0,l)
);
},
{
closed = 1;
nodes = (
(380,610,l),
(380,700,l),
(20,700,l),
(20,610,l)
);
}
);
width = 410;
},
{
associatedMasterId = m01;
backgroundImage = {
imagePath = Z.jpg;
locked = 1;
pos = (0,-47);
scale = (3.279,3.279);
};
layerId = "F2AA4455-7A36-4678-B0FE-D21507135B08";
name = "24 avr. 23 à 09:15";
shapes = (
{
closed = 1;
nodes = (
(30,90,l),
(160,90,l),
(460,610,l),
(330,610,l)
);
},
{
closed = 1;
nodes = (
(30,610,l),
(460,610,l),
(460,700,l),
(30,700,l)
);
},
{
closed = 1;
nodes = (
(30,0,l),
(460,0,l),
(460,90,l),
(30,90,l)
);
}
);
width = 600;
},
{
anchors = (
{
name = bottom;
pos = (226,0);
},
{
name = center;
pos = (226,350);
},
{
name = top;
pos = (226,700);
}
);
layerId = m002;
shapes = (
{
closed = 1;
nodes = (
(179,90,l),
(416,610,l),
(273,610,l),
(36,90,l)
);
},
{
closed = 1;
nodes = (
(416,0,l),
(416,90,l),
(36,90,l),
(36,0,l)
);
},
{
closed = 1;
nodes = (
(416,610,l),
(416,700,l),
(26,700,l),
(26,610,l)
);
}
);
width = 442;
}
);
unicode = 90;
},
{
color = 4;
glyphname = Saltillo;
lastChange = "2024-06-19 06:09:53 +0000";
layers = (
{
layerId = m01;
shapes = (
{
closed = 1;
nodes = (
(123,410,l),
(128,700,l),
(28,700,l),
(33,410,l)
);
}
);
width = 156;
},
{
layerId = m002;
shapes = (
{
closed = 1;
nodes = (
(153,410,l),
(158,700,l),
(38,700,l),
(43,410,l)
);
}
);
width = 196;
}
);
unicode = 42891;
},
{
color = 4;
glyphname = a;
kernLeft = a;
kernRight = n;
lastChange = "2024-06-19 07:38:05 +0000";
layers = (
{
anchors = (
{
name = bottom;
pos = (226,0);
},
{
name = ogonek;
pos = (411,10);
},
{
name = top;
pos = (229,470);
}
);
annotations = (
{
angle = 132.44751;
pos = (36,408);
type = Arrow;
}
);
layerId = m01;
shapes = (
{
closed = 1;
nodes = (
(80,-10,o),
(161,-10,cs),
(247,-10,o),
(299,37,o),
(299,120,c),
(285,120,l),
(285,0,l),
(397,0,l),
(397,350,ls),
(397,442,o),
(331,480,o),
(229,480,cs),
(88,480,o),
(30,407,o),
(30,300,c),
(150,300,l),
(150,376,o),
(190,400,o),
(229,400,cs),
(263,400,o),
(285,381,o),
(285,346,cs),
(285,228,o),
(30,302,o),
(30,120,cs),
(30,39,o)
);
},
{
closed = 1;
nodes = (
(171,72,o),
(150,94,o),
(150,124,cs),
(150,160,o),
(180,175,o),
(213,188,cs),
(250,203,o),
(304,220,o),
(304,269,c),
(285,269,l),
(285,181,ls),
(285,103,o),
(248,72,o),
(206,72,cs)
);
}
);
width = 443;
},
{
associatedMasterId = m01;
backgroundImage = {
imagePath = abdc.jpg;
locked = 1;
pos = (-12,-50);
scale = (3.3145,3.3145);
};
layerId = "BF30D684-9283-430B-AC25-B1A511E4285A";
name = "24 avr. 23 à 14:15";
shapes = (
{
closed = 1;
nodes = (
(59,120,l),
(59,36,o),
(130,-8,o),
(199,-8,cs),
(226,-8,o),
(258,-1,o),
(279,10,c),
(327,105,l),
(326,181,l),
(316,181,l),
(316,103,o),
(277,72,o),
(226,72,cs),
(180,72,o),
(161,97,o),
(161,143,c)
);
},
{
closed = 1;
nodes = (
(418,277,l),
(316,277,l),
(316,0,l),
(418,0,l)
);
},
{
closed = 1;
nodes = (
(148,480,o),
(70,439,o),
(50,341,c),
(180,321,l),
(189,374,o),
(213,400,o),
(249,400,cs),
(286,400,o),
(316,378,o),
(316,338,cs),
(316,297,o),
(293,251,o),
(233,251,cs),
(173,251,o),
(59,226,o),
(59,120,c),
(161,143,l),
(161,178,o),
(208,187,o),
(236,187,cs),
(264,187,o),
(327,222,o),
(340,250,c),
(418,250,l),
(418,388,ls),
(418,431,o),
(344,480,o),
(245,480,cs)
);
}
);
width = 468;
},
{
associatedMasterId = m01;
layerId = "2B6D9BE3-E579-4A38-B8DB-04A0BF2B32A0";
name = "19 janv. 24 à 11:16";
shapes = (
{
closed = 1;
nodes = (
(141,216,o),
(273,171,o),
(296,233,c),
(296,181,ls),
(296,103,o),
(257,72,o),
(206,72,cs),
(167,72,o),
(141,96,o),
(141,130,cs)
);
},
{
closed = 1;
nodes = (
(398,350,ls),
(398,442,o),
(327,480,o),
(225,480,cs),
(99,480,o),
(36,411,o),
(26,293,c),
(155,293,l),
(155,369,o),
(183,400,o),
(225,400,cs),
(262,400,o),
(296,388,o),
(296,348,cs),
(296,211,o),
(39,312,o),
(39,120,cs),
(39,36,o),
(120,-8,o),
(189,-8,cs),
(216,-8,o),
(238,-1,o),
(259,10,c),
(296,68,l),
(296,0,l),
(398,0,l)
);
}
);
width = 446;
},
{
anchors = (
{
name = bottom;
pos = (232,0);
},
{
name = ogonek;
pos = (425,10);
},
{
name = top;
pos = (242,470);
}
);
guides = (
{
angle = 90;
pos = (236,72);
},
{
pos = (326,400);
}
);
layerId = m002;
shapes = (
{
closed = 1;
nodes = (
(101,-10,o),
(182,-10,cs),
(268,-10,o),
(325,37,o),
(325,120,c),
(301,120,l),
(301,0,l),
(423,0,l),
(423,330,ls),
(423,454,o),
(325,480,o),
(236,480,cs),
(101,480,o),
(36,421,o),
(36,293,c),
(160,293,l),
(160,367,o),
(187,400,o),
(236,400,cs),
(279,400,o),
(301,380,o),
(301,346,cs),
(301,228,o),
(37,312,o),
(37,120,cs),
(37,26,o)
);
},
{
closed = 1;
nodes = (
(191,72,o),
(161,95,o),
(161,130,cs),
(161,165,o),
(193,177,o),
(225,186,cs),
(269,198,o),
(326,215,o),
(326,279,c),
(301,279,l),
(301,181,ls),
(301,103,o),
(271,72,o),
(226,72,cs)
);
}
);
width = 473;
},
{
anchors = (
{
name = bottom;
pos = (224,0);
},
{
name = ogonek;
pos = (403,10);
},
{
name = top;
pos = (224,470);
}
);
associatedMasterId = m01;
layerId = "38E61B7A-5044-4D12-8338-BD69B87F928A";
name = "30 avr. 24 à 12:07";
shapes = (
{
closed = 1;
nodes = (
(218,-8,o),
(239,-3,o),
(256,5,c),
(296,68,l),
(296,0,l),
(398,0,l),
(398,350,ls),
(398,442,o),
(327,480,o),
(225,480,cs),
(99,480,o),
(36,421,o),
(26,293,c),
(155,293,l),
(155,379,o),
(183,400,o),
(225,400,cs),
(262,400,o),
(296,388,o),
(296,348,cs),
(296,211,o),
(32,310,o),
(32,120,cs),
(32,36,o),
(90,-8,o),
(189,-8,cs)
);
},
{
closed = 1;
nodes = (
(167,72,o),
(141,96,o),
(141,130,cs),
(141,216,o),
(273,171,o),
(296,233,c),
(296,181,ls),
(296,103,o),
(260,72,o),
(206,72,cs)
);
}
);
width = 448;
},
{
anchors = (
{
name = bottom;
pos = (242,0);
},
{
name = ogonek;
pos = (435,10);
},
{
name = top;
pos = (252,470);
}
);
associatedMasterId = m002;
guides = (
{
angle = 90;
pos = (236,72);
}
);
layerId = "77FCC6D2-AF48-4E5D-94EF-8564647503AB";
name = "11 mai 24 à 12:24";
shapes = (
{
closed = 1;
nodes = (
(111,-10,o),
(192,-10,cs),
(278,-10,o),
(335,37,o),
(335,120,c),
(311,120,l),
(311,0,l),
(433,0,l),
(433,350,ls),
(433,442,o),
(338,480,o),
(236,480,cs),
(110,480,o),
(46,421,o),
(46,293,c),
(170,293,l),
(170,379,o),
(191,400,o),
(236,400,cs),
(273,400,o),
(311,386,o),
(311,346,cs),
(311,228,o),
(47,312,o),
(47,120,cs),
(47,26,o)
);
},
{
closed = 1;
nodes = (
(197,72,o),
(166,96,o),
(166,130,cs),
(166,207,o),
(326,182,o),
(326,279,c),
(311,279,l),
(311,181,ls),
(311,103,o),
(290,72,o),
(236,72,cs)
);
}
);
width = 483;
},
{
anchors = (
{
name = bottom;
pos = (222,0);
},
{
name = ogonek;
pos = (407,10);
},
{
name = top;
pos = (225,470);
}
);
annotations = (
{
angle = 132.44751;
pos = (36,408);
type = Arrow;
}
);
associatedMasterId = m01;
layerId = "FB42BCB9-45B0-4D31-9802-70E76065F2DA";
name = "11 mai 24 à 12:36";
shapes = (
{
closed = 1;
nodes = (
(76,-10,o),
(157,-10,cs),
(243,-10,o),
(295,37,o),
(295,120,c),
(281,120,l),
(281,0,l),
(403,0,l),
(403,350,ls),
(403,442,o),
(327,480,o),
(225,480,cs),
(79,480,o),
(26,400,o),
(26,293,c),
(150,293,l),
(150,379,o),
(183,400,o),
(225,400,cs),
(259,400,o),
(281,386,o),
(281,346,cs),
(281,228,o),
(26,302,o),
(26,120,cs),
(26,39,o)
);
},
{
closed = 1;
nodes = (
(171,72,o),
(150,94,o),
(150,124,cs),
(150,160,o),
(180,175,o),
(213,188,cs),
(250,203,o),
(300,220,o),
(300,269,c),
(281,269,l),
(281,181,ls),
(281,103,o),
(248,72,o),
(206,72,cs)
);
}
);
width = 449;
}
);
metricRight = n;
unicode = 97;
},
{
color = 4;
glyphname = aogonek;
kernLeft = a;
kernRight = n;
lastChange = "2024-06-19 07:53:22 +0000";
layers = (
{
layerId = m01;
shapes = (
{
closed = 1;
nodes = (
(30,39,o),
(80,-10,o),
(161,-10,cs),
(247,-10,o),
(299,37,o),
(299,120,c),
(285,120,l),
(285,0,l),
(397,0,l),
(397,350,ls),
(397,442,o),
(331,480,o),
(229,480,cs),
(88,480,o),
(30,407,o),
(30,300,c),
(150,300,l),
(150,376,o),
(190,400,o),
(229,400,cs),
(263,400,o),
(285,381,o),
(285,346,cs),
(285,228,o),
(30,302,o),
(30,120,cs)
);
},
{
closed = 1;
nodes = (
(171,72,o),
(150,94,o),
(150,124,cs),
(150,160,o),
(180,175,o),
(213,188,cs),
(250,203,o),
(304,220,o),
(304,269,c),
(285,269,l),
(285,181,ls),
(285,103,o),
(248,72,o),
(206,72,cs)
);
},
{
closed = 1;
nodes = (
(428,-240,l),
(428,-150,l),
(380,-150,ls),
(362,-150,o),
(358,-140,o),
(363,-123,cs),
(397,0,l),
(338,38,l),
(289,-135,ls),
(284,-153,o),
(281,-168,o),
(281,-182,cs),
(281,-221,o),
(304,-240,o),
(356,-240,cs)
);
}
);
width = 443;
},
{
layerId = m002;
shapes = (
{
closed = 1;
nodes = (
(37,26,o),
(101,-10,o),
(182,-10,cs),
(268,-10,o),
(325,37,o),
(325,120,c),
(301,120,l),
(301,0,l),
(423,0,l),
(423,330,ls),
(423,454,o),
(325,480,o),
(236,480,cs),
(101,480,o),
(36,421,o),
(36,293,c),
(160,293,l),
(160,367,o),
(187,400,o),
(236,400,cs),
(279,400,o),
(301,380,o),
(301,346,cs),
(301,228,o),
(37,312,o),
(37,120,cs)
);
},
{
closed = 1;
nodes = (
(191,72,o),
(161,95,o),
(161,130,cs),
(161,165,o),
(193,177,o),
(225,186,cs),
(269,198,o),
(326,215,o),
(326,279,c),
(301,279,l),
(301,181,ls),
(301,103,o),
(271,72,o),
(226,72,cs)
);
},
{
closed = 1;
nodes = (
(449,-240,l),
(449,-150,l),
(391,-150,ls),
(373,-150,o),
(367,-140,o),
(374,-123,cs),
(423,0,l),
(369,38,l),
(300,-135,ls),
(293,-153,o),
(289,-169,o),
(289,-183,cs),
(289,-221,o),
(316,-240,o),
(367,-240,cs)
);
}
);
width = 473;
}
);
unicode = 261;
},
{
color = 4;
glyphname = ae;
kernLeft = a;
kernRight = o;
lastChange = "2024-06-19 07:03:14 +0000";
layers = (
{
anchors = (
{
name = bottom;
pos = (339,0);
},
{
name = top;
pos = (339,470);
}
);
layerId = m01;
shapes = (
{
closed = 1;
nodes = (
(247,-10,o),
(339,37,o),
(339,120,c),
(275,120,l),
(275,70,l),
(367,70,l),
(367,350,ls),
(367,442,o),
(321,480,o),
(219,480,cs),
(88,480,o),
(30,407,o),
(30,300,c),
(150,300,l),
(150,376,o),
(180,400,o),
(219,400,cs),
(253,400,o),
(275,381,o),
(275,346,cs),
(275,228,o),
(30,302,o),
(30,120,cs),
(30,39,o),
(80,-10,o),
(161,-10,cs)
);
},
{
closed = 1;
nodes = (
(171,72,o),
(150,94,o),
(150,124,cs),
(150,160,o),
(170,175,o),
(203,188,cs),
(241,203,o),
(294,220,o),
(294,269,c),
(275,269,l),
(275,181,ls),
(275,103,o),
(238,72,o),
(196,72,cs)
);
},
{
closed = 1;
nodes = (
(465,70,l),
(420,70,o),
(388,127,o),
(388,235,cs),
(388,346,o),
(422,400,o),
(465,400,c),
(465,480,l),
(352,480,o),
(274,412,o),
(274,235,cs),
(274,81,o),
(331,-10,o),
(465,-10,c)
);
},
{
closed = 1;
nodes = (
(638,235,l),
(638,300,l),
(337,300,l),
(337,235,l)
);
},
{
closed = 1;
nodes = (
(588,-10,o),
(652,70,o),
(652,177,c),
(528,177,l),
(528,101,o),
(495,70,o),
(465,70,c),
(465,-10,l)
);
},
{
closed = 1;
nodes = (
(653,235,l),
(653,427,o),
(563,480,o),
(465,480,c),
(465,400,l),
(500,400,o),
(527,358,o),
(527,235,c)
);
}
);
width = 677;
},
{
anchors = (
{
name = bottom;
pos = (360,0);
},
{
name = top;
pos = (360,470);
}
);
layerId = m002;
shapes = (
{
closed = 1;
nodes = (
(328,-10,o),
(387,39,o),
(387,122,c),
(293,122,l),
(293,108,l),
(415,108,l),
(415,330,ls),
(415,454,o),
(311,480,o),
(222,480,cs),
(110,480,o),
(36,421,o),
(36,293,c),
(160,293,l),
(160,373,o),
(190,400,o),
(222,400,cs),
(267,400,o),
(293,374,o),
(293,346,cs),
(293,228,o),
(37,312,o),
(37,120,cs),
(37,26,o),
(101,-10,o),
(182,-10,cs)
);
},
{
closed = 1;
nodes = (
(191,72,o),
(161,95,o),
(161,130,cs),
(161,165,o),
(193,177,o),
(221,186,cs),
(265,200,o),
(318,215,o),
(318,279,c),
(293,279,l),
(293,181,ls),
(293,103,o),
(267,72,o),
(222,72,cs)
);
},
{
closed = 1;
nodes = (
(495,70,l),
(449,70,o),
(415,116,o),
(415,235,cs),
(415,352,o),
(447,400,o),
(495,400,c),
(495,480,l),
(368,480,o),
(293,409,o),
(293,235,cs),
(293,81,o),
(350,-10,o),
(495,-10,c)
);
},
{
closed = 1;
nodes = (
(654,236,l),
(654,301,l),
(341,301,l),
(341,236,l)
);
},
{
closed = 1;
nodes = (
(621,-10,o),
(677,59,o),
(677,177,c),
(553,177,l),
(553,101,o),
(529,70,o),
(495,70,c),
(495,-10,l)
);
},
{
closed = 1;
nodes = (
(683,236,l),
(683,425,o),
(603,480,o),
(495,480,c),
(495,400,l),
(536,400,o),
(557,358,o),
(557,236,c)
);
}
);
width = 719;
}
);
metricLeft = a;
metricRight = e;
unicode = 230;
},
{
color = 4;
glyphname = b;
kernRight = o;
lastChange = "2024-05-10 14:49:52 +0000";
layers = (
{
guides = (
{
pos = (225,-10);
}
);
layerId = m01;
shapes = (
{
closed = 1;
nodes = (
(158,0,l),
(158,720,l),
(46,720,l),
(46,0,l)
);
},
{
closed = 1;
nodes = (
(304,130,o),
(279,70,o),
(235,70,cs),
(197,70,o),
(158,112,o),
(158,221,c),
(147,221,l),
(131,108,l),
(147,52,o),
(172,-10,o),
(260,-10,cs),
(367,-10,o),
(428,86,o),
(428,235,cs),
(428,384,o),
(367,480,o),
(260,480,cs),
(172,480,o),
(137,418,o),
(121,362,c),
(147,249,l),
(158,249,l),
(158,358,o),
(197,400,o),
(235,400,cs),
(279,400,o),
(304,340,o),
(304,235,cs)
);
}
);
width = 452;
},
{
associatedMasterId = m01;
layerId = "56FBB010-05B8-4AFA-9D0F-3BB295AE4119";
name = "24 avr. 23 à 14:39";
shapes = (
{
closed = 1;
nodes = (
(50,720,l),
(50,0,l),
(162,0,l),
(162,720,l)
);
},
{
closed = 1;
nodes = (
(264,480,cs),
(239,480,o),
(216,475,o),
(196,465,c),
(151,374,l),
(152,298,l),
(162,298,l),
(162,361,o),
(198,400,o),
(239,400,cs),
(283,400,o),
(318,354,o),
(318,239,cs),
(318,128,o),
(285,77,o),
(240,77,cs),
(209,77,o),
(172,101,o),
(137,146,c),
(152,105,l),
(199,11,l),
(223,-2,o),
(247,-8,o),
(272,-8,cs),
(376,-8,o),
(432,97,o),
(432,239,cs),
(432,388,o),
(371,480,o)
);
}
);
width = 462;
},
{
layerId = m002;
shapes = (
{
closed = 1;
nodes = (
(182,0,l),
(182,720,l),
(50,720,l),
(50,0,l)
);
},
{
closed = 1;
nodes = (
(326,130,o),
(303,70,o),
(259,70,cs),
(221,70,o),
(182,112,o),
(182,221,c),
(171,221,l),
(155,108,l),
(171,52,o),
(196,-10,o),
(284,-10,cs),
(391,-10,o),
(460,86,o),
(460,235,cs),
(460,384,o),
(391,480,o),
(284,480,cs),
(196,480,o),
(161,418,o),
(145,362,c),
(171,249,l),
(182,249,l),
(182,358,o),
(221,400,o),
(259,400,cs),
(303,400,o),
(326,340,o),
(326,235,cs)
);
}
);
width = 496;
},
{
anchors = (
{
name = bottom;
pos = (242,0);
},
{
name = center;
pos = (242,235);
},
{
name = top;
pos = (242,470);
}
);
associatedMasterId = m01;
layerId = "94FF74D3-E52E-4FAC-8AF9-B32353008876";
name = "30 avr. 24 à 15:34";
shapes = (
{
closed = 1;
nodes = (
(162,0,l),
(162,720,l),
(50,720,l),
(50,0,l)
);
},
{
closed = 1;
nodes = (
(442,239,l),
(442,388,o),
(381,480,o),
(274,480,cs),
(186,480,o),
(141,418,o),
(125,362,c),
(151,249,l),
(162,249,l),
(162,358,o),
(211,400,o),
(249,400,cs),
(293,400,o),
(326,344,o),
(326,239,c)
);
},
{
closed = 1;
nodes = (
(326,134,o),
(293,78,o),
(249,78,cs),
(211,78,o),
(162,120,o),
(162,229,c),
(151,229,l),
(135,116,l),
(151,60,o),
(186,-2,o),
(274,-2,cs),
(381,-2,o),
(442,90,o),
(442,239,c),
(326,239,l)
);
}
);
width = 468;
}
);
metricLeft = h;
metricRight = o;
unicode = 98;
},
{
color = 4;
glyphname = c;
kernLeft = o;
kernRight = o;
lastChange = "2024-06-19 07:23:55 +0000";
layers = (
{
anchors = (
{
name = bottom;
pos = (223,0);
},
{
name = top;
pos = (223,470);
}
);
guides = (
{
pos = (544,400);
}
);
layerId = m01;
shapes = (
{
closed = 1;
nodes = (
(223,70,l),
(178,70,o),
(148,127,o),
(148,235,cs),
(148,346,o),
(180,400,o),
(223,400,c),
(223,480,l),
(110,480,o),
(24,412,o),
(24,235,cs),
(24,81,o),
(89,-10,o),
(223,-10,c)
);
},
{
closed = 1;
nodes = (
(349,-10,o),
(408,70,o),
(408,177,c),
(284,177,l),
(284,101,o),
(256,70,o),
(223,70,c),
(223,-10,l)
);
},
{
closed = 1;
nodes = (
(408,272,l),
(408,423,o),
(328,480,o),
(223,480,c),
(223,400,l),
(261,400,o),
(282,357,o),
(282,272,c)
);
}
);
width = 429;
},
{
associatedMasterId = m01;
layerId = "F7E7E70E-A68D-4633-90C5-28324D87BC88";
name = "24 avr. 23 à 10:22";
shapes = (
{
closed = 1;
nodes = (
(303,177,l),
(303,101,o),
(275,70,o),
(233,70,c),
(233,-10,l),
(339,-10,o),
(422,59,o),
(432,177,c)
);
},
{
closed = 1;
nodes = (
(111,480,o),
(30,389,o),
(30,235,cs),
(30,81,o),
(111,-10,o),
(233,-10,c),
(233,70,l),
(182,70,o),
(150,116,o),
(150,235,cs),
(150,354,o),
(172,400,o),
(233,400,c),
(233,480,l)
);
},
{
closed = 1;
nodes = (
(439,420,o),
(350,480,o),
(233,480,c),
(233,400,l),
(284,400,o),
(316,368,o),
(299,240,c),
(259,266,l),
(556,310,l),
(433,274,l)
);
}
);
width = 600;
},
{
anchors = (
{
name = bottom;
pos = (250,0);
},
{
name = top;
pos = (250,470);
}
);
guides = (
{
pos = (591,400);
}
);
layerId = m002;
shapes = (
{
closed = 1;
nodes = (
(250,70,l),
(204,70,o),
(170,116,o),
(170,235,cs),
(170,352,o),
(202,400,o),
(250,400,c),
(250,480,l),
(123,480,o),
(36,409,o),
(36,235,cs),
(36,81,o),
(105,-10,o),
(250,-10,c)
);
},
{
closed = 1;
nodes = (
(376,-10,o),
(436,59,o),
(436,177,c),
(312,177,l),
(312,101,o),
(288,70,o),
(250,70,c),
(250,-10,l)
);
},
{
closed = 1;
nodes = (
(442,272,l),
(442,419,o),
(368,480,o),
(250,480,c),
(250,400,l),
(295,400,o),
(316,358,o),
(316,272,c)
);
}
);
width = 468;
}
);
metricLeft = o;
unicode = 99;
},
{
color = 4;
glyphname = d;
kernLeft = o;
lastChange = "2024-06-19 05:59:09 +0000";
layers = (
{
anchors = (
{
name = bottom;
pos = (228,0);
},
{
name = center;
pos = (342,576);
},
{
name = top;
pos = (228,470);
},
{
name = topright;
pos = (536,720);
}
);
guides = (
{
angle = 270;
pos = (286,215);
},
{
pos = (295,-8);
},
{
pos = (556,400);
},
{
pos = (239,480);
},
{
pos = (517,77);
}
);
layerId = m01;
shapes = (
{
closed = 1;
nodes = (
(294,720,l),
(294,0,l),
(406,0,l),
(406,720,l)
);
},
{
closed = 1;
nodes = (
(148,340,o),
(173,400,o),
(217,400,cs),
(255,400,o),
(294,358,o),
(294,249,c),
(305,249,l),
(321,362,l),
(305,418,o),
(280,480,o),
(192,480,cs),
(85,480,o),
(24,384,o),
(24,235,cs),
(24,86,o),
(85,-10,o),
(192,-10,cs),
(280,-10,o),
(315,52,o),
(331,108,c),
(305,221,l),
(294,221,l),
(294,112,o),
(255,70,o),
(217,70,cs),
(173,70,o),
(148,130,o),
(148,235,cs)
);
}
);
width = 456;
},
{
associatedMasterId = m01;
guides = (
{
angle = 270;
pos = (313,215);
}
);
layerId = "B234ADF1-C22D-4FBA-8602-2E55EFCED2C2";
name = "24 avr. 23 à 14:22";
shapes = (
{
closed = 1;
nodes = (
(313,0,l),
(425,0,l),
(425,720,l),
(313,720,l)
);
},
{
closed = 1;
nodes = (
(333,94,l),
(312,80,o),
(287,73,o),
(264,73,cs),
(203,73,o),
(146,122,o),
(146,240,cs),
(146,359,o),
(192,402,o),
(244,402,cs),
(285,402,o),
(310,375,o),
(338,333,c),
(287,465,l),
(277,477,o),
(262,487,o),
(228,487,cs),
(100,487,o),
(30,379,o),
(30,237,cs),
(30,82,o),
(114,-10,o),
(238,-10,cs),
(253,-10,o),
(268,-9,o),
(283,-6,c)
);
},
{
closed = 1;
nodes = (
(56,120,l),
(56,36,o),
(127,-8,o),
(196,-8,cs),
(223,-8,o),
(255,-1,o),
(276,10,c),
(324,105,l),
(323,181,l),
(313,181,l),
(313,103,o),
(274,72,o),
(223,72,cs),
(177,72,o),
(158,97,o),
(158,143,c)
);
}
);
width = 600;
},
{
associatedMasterId = m01;
guides = (
{
angle = 270;
pos = (313,215);
},
{
pos = (322,-8);
}
);
layerId = "658C5F65-375E-4079-B2E5-7282F8B16357";
name = "24 avr. 23 à 14:26";
shapes = (
{
closed = 1;
nodes = (
(313,0,l),
(425,0,l),
(425,720,l),
(313,720,l)
);
},
{
closed = 1;
nodes = (
(30,242,cs),
(30,76,o),
(119,-8,o),
(213,-8,cs),
(250,-8,o),
(284,5,o),
(311,35,c),
(270,-28,l),
(323,105,l),
(338,146,l),
(310,104,o),
(285,77,o),
(244,77,cs),
(192,77,o),
(146,120,o),
(146,239,cs),
(146,312,o),
(162,407,o),
(223,407,cs),
(274,407,o),
(313,376,o),
(313,298,c),
(323,298,l),
(324,374,l),
(276,469,l),
(253,482,o),
(229,487,o),
(206,487,cs),
(103,487,o),
(30,387,o)
);
},
{
closed = 1;
nodes = (
(55,120,l),
(55,36,o),
(126,-8,o),
(195,-8,cs),
(222,-8,o),
(254,-1,o),
(275,10,c),
(323,105,l),
(322,181,l),
(312,181,l),
(312,103,o),
(273,72,o),
(222,72,cs),
(176,72,o),
(157,97,o),
(157,143,c)
);
}
);
width = 600;
},
{
associatedMasterId = m01;
guides = (
{
angle = 270;
pos = (313,215);
},
{
pos = (322,-8);
}
);
layerId = "84D39773-4BFE-4E80-A06C-924F976DDC4D";
name = "24 avr. 23 à 14:29";
shapes = (
{
closed = 1;
nodes = (
(313,0,l),
(425,0,l),
(425,720,l),
(313,720,l)
);
},
{
closed = 1;
nodes = (
(103,487,o),
(30,387,o),
(30,242,cs),
(30,76,o),
(119,-8,o),
(213,-8,cs),
(240,-8,o),
(261,-1,o),
(276,11,c),
(323,105,l),
(338,146,l),
(310,104,o),
(285,77,o),
(244,77,cs),
(192,77,o),
(146,120,o),
(146,239,cs),
(146,312,o),
(162,407,o),
(223,407,cs),
(274,407,o),
(313,376,o),
(313,298,c),
(323,298,l),
(324,374,l),
(276,469,l),
(253,482,o),
(229,487,o),
(206,487,cs)
);
}
);
width = 475;
},
{
anchors = (
{
name = bottom;
pos = (251,0);
},
{
name = center;
pos = (377,576);
},
{
name = top;
pos = (251,470);
},
{
name = topright;
pos = (582,720);
}
);
guides = (
{
angle = 270;
pos = (284,215);
},
{
pos = (293,-8);
},
{
pos = (554,400);
},
{
pos = (237,480);
},
{
pos = (515,77);
}
);
layerId = m002;
shapes = (
{
closed = 1;
nodes = (
(314,720,l),
(314,0,l),
(446,0,l),
(446,720,l)
);
},
{
closed = 1;
nodes = (
(170,340,o),
(193,400,o),
(237,400,cs),
(275,400,o),
(314,358,o),
(314,249,c),
(325,249,l),
(341,362,l),
(325,418,o),
(300,480,o),
(212,480,cs),
(105,480,o),
(36,384,o),
(36,235,cs),
(36,86,o),
(105,-10,o),
(212,-10,cs),
(300,-10,o),
(325,52,o),
(341,108,c),
(325,221,l),
(314,221,l),
(314,112,o),
(275,70,o),
(237,70,cs),
(193,70,o),
(170,130,o),
(170,235,cs)
);
}
);
width = 502;
}
);
metricLeft = o;
unicode = 100;
},
{
color = 4;
glyphname = dcroat;
kernLeft = o;
lastChange = "2024-06-19 07:53:35 +0000";
layers = (
{
layerId = m01;
shapes = (
{
alignment = -1;
ref = d;
},
{
closed = 1;
nodes = (
(446,560,l),
(446,620,l),
(146,620,l),
(146,560,l)
);
}
);
width = 452;
},
{
layerId = m002;
shapes = (
{
alignment = -1;
ref = d;
},
{
closed = 1;
nodes = (
(480,560,l),
(480,620,l),
(160,620,l),
(160,560,l)
);
}
);
width = 496;
}
);
metricLeft = o;
unicode = 273;
},
{
color = 4;
glyphname = eth;
kernLeft = o;
lastChange = "2024-06-19 06:55:25 +0000";
layers = (
{
layerId = m01;
shapes = (
{
closed = 1;
nodes = (
(422,235,l),
(422,436,o),
(368,581,o),
(268,700,c),
(146,700,l),
(281,543,o),
(357,393,o),
(357,235,c)
);
},
{
closed = 1;
nodes = (
(357,-10,o),
(422,81,o),
(422,235,c),
(298,235,l),
(298,127,o),
(268,70,o),
(223,70,cs),
(178,70,o),
(148,127,o),
(148,235,c),
(24,235,l),
(24,81,o),
(89,-10,o),
(223,-10,cs)
);
},
{
closed = 1;
nodes = (
(148,235,l),
(148,346,o),
(180,400,o),
(223,400,cs),
(266,400,o),
(298,346,o),
(298,235,c),
(372,235,l),
(372,412,o),
(335,480,o),
(223,480,cs),
(111,480,o),
(24,412,o),
(24,235,c)
);
},
{
closed = 1;
nodes = (
(406,610,l),
(406,685,l),
(104,570,l),
(104,495,l)
);
}
);
width = 446;
},
{
layerId = m002;
shapes = (
{
closed = 1;
nodes = (
(464,235,l),
(464,436,o),
(410,581,o),
(310,700,c),
(178,700,l),
(313,543,o),
(399,393,o),
(399,235,c)
);
},
{
closed = 1;
nodes = (
(389,-10,o),
(464,81,o),
(464,235,c),
(330,235,l),
(330,116,o),
(296,70,o),
(250,70,cs),
(204,70,o),
(170,116,o),
(170,235,c),
(36,235,l),
(36,81,o),
(111,-10,o),
(250,-10,cs)
);
},
{
closed = 1;
nodes = (
(170,235,l),
(170,352,o),
(206,400,o),
(250,400,cs),
(294,400,o),
(330,352,o),
(330,235,c),
(404,235,l),
(404,409,o),
(357,480,o),
(240,480,cs),
(123,480,o),
(36,409,o),
(36,235,c)
);
},
{
closed = 1;
nodes = (
(448,610,l),
(448,685,l),
(146,570,l),
(146,495,l)
);
}
);
width = 500;
}
);
metricLeft = o;
metricRight = o;
unicode = 240;
},
{
color = 4;
glyphname = e;
kernLeft = o;
kernRight = o;
lastChange = "2024-06-19 07:19:59 +0000";
layers = (
{
associatedMasterId = m01;
backgroundImage = {
imagePath = e.jpg;
locked = 1;
pos = (0,-47);
scale = (3.314,3.314);
};
layerId = "E6D492EC-C3F6-4B74-8116-671124891F7E";
name = "24 avr. 23 à 10:17";
shapes = (
{
closed = 1;
nodes = (
(111,480,o),
(30,389,o),
(30,235,cs),
(30,81,o),
(111,-10,o),
(233,-10,c),
(233,70,l),
(182,70,o),
(150,116,o),
(150,235,cs),
(150,354,o),
(172,400,o),
(233,400,c),
(233,480,l)
);
},
{
closed = 1;
nodes = (
(313,177,l),
(304,101,o),
(275,70,o),
(233,70,c),
(233,-10,l),
(339,-10,o),
(414,59,o),
(432,177,c)
);
},
{
closed = 1;
nodes = (
(436,389,o),
(355,480,o),
(233,480,c),
(233,400,l),
(284,400,o),
(316,354,o),
(316,235,c),
(436,235,l)
);
},
{
closed = 1;
nodes = (
(86,235,l),
(398,235,l),
(398,295,l),
(86,295,l)
);
}
);
width = 600;
},
{
associatedMasterId = m01;
backgroundImage = {
imagePath = e.jpg;
locked = 1;
pos = (0,-47);
scale = (3.314,3.314);
};
layerId = "32B0F4DE-C5A0-49B7-AFDE-81D2BCA1B664";
name = "24 avr. 23 à 13:39";
shapes = (
{
closed = 1;
nodes = (
(111,480,o),
(30,389,o),
(30,235,cs),
(30,81,o),
(111,-10,o),
(233,-10,c),
(233,70,l),
(182,70,o),
(150,116,o),
(150,235,cs),
(150,354,o),
(172,400,o),
(233,400,c),
(233,480,l)
);
},
{
closed = 1;
nodes = (
(303,177,l),
(303,101,o),
(275,70,o),
(233,70,c),
(233,-10,l),
(339,-10,o),
(422,59,o),
(432,177,c)
);
},
{
closed = 1;
nodes = (
(436,389,o),
(355,480,o),
(233,480,c),
(233,400,l),
(284,400,o),
(316,354,o),
(316,235,c),
(436,235,l)
);
},
{
closed = 1;
nodes = (
(86,235,l),
(398,235,l),
(398,310,l),
(86,310,l)
);
}
);
width = 466;
},
{
anchors = (
{
name = bottom;
pos = (217,0);
},
{
name = ogonek;
pos = (391,10);
},
{
name = top;
pos = (217,470);
}
);
associatedMasterId = m01;
layerId = "6038E806-F52B-4E3F-999E-DA7131914B41";
name = "20 janv. 24 à 11:12";
shapes = (
{
closed = 1;
nodes = (
(394,264,l),
(394,340,l),
(394,424,o),
(319,478,o),
(249,478,cs),
(217,478,l),
(217,398,l),
(263,398,o),
(284,373,o),
(284,301,cs),
(284,264,l)
);
},
{
closed = 1;
nodes = (
(150,301,ls),
(150,373,o),
(171,398,o),
(217,398,c),
(217,478,l),
(185,478,ls),
(115,478,o),
(40,424,o),
(40,340,c),
(40,234,l),
(150,234,l)
);
},
{
closed = 1;
nodes = (
(284,167,l),
(284,95,o),
(263,70,o),
(217,70,c),
(217,-10,l),
(249,-10,ls),
(319,-10,o),
(394,44,o),
(394,128,c),
(394,167,l)
);
},
{
closed = 1;
nodes = (
(40,234,l),
(40,128,l),
(40,44,o),
(115,-10,o),
(185,-10,cs),
(217,-10,l),
(217,70,l),
(171,70,o),
(150,95,o),
(150,167,cs),
(150,234,l)
);
},
{
closed = 1;
nodes = (
(86,234,l),
(394,234,l),
(394,299,l),
(86,299,l)
);
}
);
width = 434;
},
{
anchors = (
{
name = bottom;
pos = (234,0);
},
{
name = ogonek;
pos = (425,10);
},
{
name = top;
pos = (234,470);
}
);
layerId = m01;
name = Regular;
shapes = (
{
closed = 1;
nodes = (
(228,70,l),
(183,70,o),
(148,127,o),
(148,235,cs),
(148,346,o),
(185,400,o),
(228,400,c),
(228,480,l),
(115,480,o),
(24,412,o),
(24,235,cs),
(24,81,o),
(94,-10,o),
(228,-10,c)
);
},
{
closed = 1;
nodes = (
(404,235,l),
(404,300,l),
(87,300,l),
(87,235,l)
);
},
{
closed = 1;
nodes = (
(354,-10,o),
(418,70,o),
(418,177,c),
(294,177,l),
(294,101,o),
(261,70,o),
(228,70,c),
(228,-10,l)
);
},
{
closed = 1;
nodes = (
(419,235,l),
(419,427,o),
(329,480,o),
(228,480,c),
(228,400,l),
(266,400,o),
(293,358,o),
(293,235,c)
);
}
);
width = 443;
},
{
anchors = (
{
name = bottom;
pos = (250,0);
},
{
name = ogonek;
pos = (430,10);
},
{
name = top;
pos = (250,470);
}
);
layerId = m002;
name = Regular;
shapes = (
{
closed = 1;
nodes = (
(250,70,l),
(204,70,o),
(166,116,o),
(166,235,cs),
(166,352,o),
(202,400,o),
(250,400,c),
(250,480,l),
(123,480,o),
(36,409,o),
(36,235,cs),
(36,81,o),
(105,-10,o),
(250,-10,c)
);
},
{
closed = 1;
nodes = (
(413,236,l),
(413,301,l),
(92,301,l),
(92,236,l)
);
},
{
closed = 1;
nodes = (
(376,-10,o),
(436,59,o),
(436,177,c),
(312,177,l),
(312,101,o),
(288,70,o),
(250,70,c),
(250,-10,l)
);
},
{
closed = 1;
nodes = (
(442,236,l),
(442,425,o),
(362,480,o),
(250,480,c),
(250,400,l),
(295,400,o),
(316,358,o),
(316,236,c)
);
}
);
width = 478;
},
{
anchors = (
{
name = bottom;
pos = (229,0);
},
{
name = ogonek;
pos = (420,10);
},
{
name = top;
pos = (229,470);
}
);
associatedMasterId = m01;
layerId = "4A8F50E8-31E0-4406-A32D-1AA31A9C5AAF";
name = "11 mai 24 à 12:33";
shapes = (
{
closed = 1;
nodes = (
(229,70,l),
(178,70,o),
(146,126,o),
(146,245,cs),
(146,364,o),
(168,400,o),
(229,400,c),
(229,480,l),
(107,480,o),
(26,389,o),
(26,235,cs),
(26,81,o),
(107,-10,o),
(229,-10,c)
);
},
{
closed = 1;
nodes = (
(335,-10,o),
(418,59,o),
(428,177,c),
(299,177,l),
(299,101,o),
(271,70,o),
(229,70,c),
(229,-10,l)
);
},
{
closed = 1;
nodes = (
(394,245,l),
(394,310,l),
(82,310,l),
(82,245,l)
);
},
{
closed = 1;
nodes = (
(432,245,l),
(432,399,o),
(351,480,o),
(229,480,c),
(229,400,l),
(280,400,o),
(312,364,o),
(312,245,c)
);
}
);
width = 458;
},
{
anchors = (
{
name = bottom;
pos = (229,0);
},
{
name = ogonek;
pos = (420,10);
},
{
name = top;
pos = (229,470);
}
);
associatedMasterId = m01;
layerId = "843F593F-4249-4A44-A436-F2EC1FB2E02F";
name = "11 mai 24 à 12:41";
shapes = (
{
closed = 1;
nodes = (
(223,70,l),
(178,70,o),
(148,127,o),
(148,235,cs),
(148,346,o),
(180,400,o),
(223,400,c),
(223,480,l),
(110,480,o),
(24,412,o),
(24,235,cs),
(24,81,o),
(89,-10,o),
(223,-10,c)
);
},
{
closed = 1;
nodes = (
(394,235,l),
(394,300,l),
(82,300,l),
(82,235,l)
);
},
{
closed = 1;
nodes = (
(349,-10,o),
(408,70,o),
(408,177,c),
(284,177,l),
(284,101,o),
(256,70,o),
(223,70,c),
(223,-10,l)
);
},
{
closed = 1;
nodes = (
(409,235,l),
(409,427,o),
(324,480,o),
(223,480,c),
(223,400,l),
(261,400,o),
(283,358,o),
(283,235,c)
);
}
);
width = 433;
}
);
metricLeft = o;
metricRight = o;
unicode = 101;
},
{
color = 4;
glyphname = eogonek;
kernLeft = o;
kernRight = o;
lastChange = "2024-06-19 05:47:24 +0000";
layers = (
{
layerId = m01;
shapes = (
{
closed = 1;
nodes = (
(228,70,l),
(183,70,o),
(148,127,o),
(148,235,cs),
(148,346,o),
(185,400,o),
(228,400,c),
(228,480,l),
(115,480,o),
(24,412,o),
(24,235,cs),
(24,81,o),
(94,-10,o),
(228,-10,c)
);
},
{
closed = 1;
nodes = (
(404,235,l),
(404,300,l),
(87,300,l),
(87,235,l)
);
},
{
closed = 1;
nodes = (
(354,-10,o),
(418,70,o),
(418,177,c),
(294,177,l),
(294,101,o),
(261,70,o),
(228,70,c),
(228,-10,l)
);
},
{
closed = 1;
nodes = (
(419,235,l),
(419,427,o),
(329,480,o),
(228,480,c),
(228,400,l),
(266,400,o),
(293,358,o),
(293,235,c)
);
},
{
closed = 1;
nodes = (
(409,-240,l),
(409,-150,l),
(361,-150,ls),
(343,-150,o),
(339,-140,o),
(344,-123,cs),
(411,118,l),
(343,124,l),
(270,-135,ls),
(265,-153,o),
(262,-168,o),
(262,-182,cs),
(262,-221,o),
(285,-240,o),
(337,-240,cs)
);
}
);
width = 443;
},
{
layerId = m002;
shapes = (
{
closed = 1;
nodes = (
(250,70,l),
(204,70,o),
(166,116,o),
(166,235,cs),
(166,352,o),
(202,400,o),
(250,400,c),
(250,480,l),
(123,480,o),
(36,409,o),
(36,235,cs),
(36,81,o),
(105,-10,o),
(250,-10,c)
);
},
{
closed = 1;
nodes = (
(413,236,l),
(413,301,l),
(92,301,l),
(92,236,l)
);
},
{
closed = 1;
nodes = (
(376,-10,o),
(436,59,o),
(436,177,c),
(312,177,l),
(312,101,o),
(288,70,o),
(250,70,c),
(250,-10,l)
);
},
{
closed = 1;
nodes = (
(442,236,l),
(442,425,o),
(362,480,o),
(250,480,c),
(250,400,l),
(295,400,o),
(316,358,o),
(316,236,c)
);
},
{
closed = 1;
nodes = (
(411,-240,l),
(411,-150,l),
(353,-150,ls),
(335,-150,o),
(329,-140,o),
(336,-123,cs),
(419,84,l),
(365,122,l),
(262,-135,ls),
(255,-153,o),
(251,-169,o),
(251,-183,cs),
(251,-221,o),
(278,-240,o),
(329,-240,cs)
);
}
);
width = 478;
}
);
unicode = 281;
},
{
color = 4;
glyphname = schwa;
kernLeft = o;
kernRight = o;
lastChange = "2024-06-18 12:42:34 +0000";
layers = (
{
layerId = m01;
shapes = (
{
closed = 1;
nodes = (
(215,400,l),
(260,400,o),
(295,353,o),
(295,245,cs),
(295,124,o),
(258,70,o),
(215,70,c),
(215,-10,l),
(328,-10,o),
(419,58,o),
(419,245,cs),
(419,399,o),
(349,480,o),
(215,480,c)
);
},
{
closed = 1;
nodes = (
(39,245,l),
(39,180,l),
(356,180,l),
(356,245,l)
);
},
{
closed = 1;
nodes = (
(89,480,o),
(25,410,o),
(25,303,c),
(149,303,l),
(149,379,o),
(182,400,o),
(215,400,c),
(215,480,l)
);
},
{
closed = 1;
nodes = (
(24,245,l),
(24,43,o),
(114,-10,o),
(215,-10,c),
(215,70,l),
(177,70,o),
(150,112,o),
(150,245,c)
);
}
);
width = 443;
},
{
layerId = m002;
shapes = (
{
closed = 1;
nodes = (
(228,400,l),
(274,400,o),
(312,364,o),
(312,245,cs),
(312,118,o),
(276,70,o),
(228,70,c),
(228,-10,l),
(355,-10,o),
(442,61,o),
(442,245,cs),
(442,399,o),
(373,480,o),
(228,480,c)
);
},
{
closed = 1;
nodes = (
(65,244,l),
(65,179,l),
(386,179,l),
(386,244,l)
);
},
{
closed = 1;
nodes = (
(102,480,o),
(42,421,o),
(42,303,c),
(166,303,l),
(166,379,o),
(190,400,o),
(228,400,c),
(228,480,l)
);
},
{
closed = 1;
nodes = (
(36,244,l),
(36,45,o),
(116,-10,o),
(228,-10,c),
(228,70,l),
(183,70,o),
(162,112,o),
(162,244,c)
);
}
);
width = 478;
}
);
metricLeft = o;
metricRight = o;
unicode = 601;
},
{
color = 4;
glyphname = f;
kernLeft = t;
kernRight = f;
lastChange = "2024-06-19 07:40:36 +0000";
layers = (
{
anchors = (
{
name = bottom;
pos = (192,0);
},
{
name = top;
pos = (192,720);
}
);
layerId = m01;
shapes = (
{
closed = 1;
nodes = (
(228,0,l),
(228,582,l),
(116,582,l),
(116,0,l)
);
},
{
closed = 1;
nodes = (
(328,380,l),
(328,470,l),
(16,470,l),
(16,380,l)
);
},
{
closed = 1;
nodes = (
(228,582,l),
(228,615,o),
(239,630,o),
(264,630,cs),
(328,630,l),
(328,720,l),
(254,720,ls),
(151,720,o),
(116,689,o),
(116,582,c)
);
}
);
width = 348;
},
{
anchors = (
{
name = bottom;
pos = (206,0);
},
{
name = top;
pos = (206,720);
}
);
layerId = m002;
shapes = (
{
closed = 1;
nodes = (
(252,0,l),
(252,582,l),
(120,582,l),
(120,0,l)
);
},
{
closed = 1;
nodes = (
(352,380,l),
(352,470,l),
(20,470,l),
(20,380,l)
);
},
{
closed = 1;
nodes = (
(252,582,l),
(252,612,o),
(270,630,o),
(300,630,cs),
(352,630,l),
(352,720,l),
(258,720,ls),
(155,720,o),
(120,684,o),
(120,582,c)
);
}
);
width = 378;
}
);
unicode = 102;
},
{
color = 4;
glyphname = g;
kernLeft = g;
kernRight = u;
lastChange = "2024-06-19 07:28:12 +0000";
layers = (
{
anchors = (
{
name = bottom;
pos = (229,-240);
},
{
name = top;
pos = (222,470);
}
);
guides = (
{
pos = (238,73);
}
);
layerId = m01;
shapes = (
{
closed = 1;
nodes = (
(294,-150,o),
(267,-170,o),
(229,-170,cs),
(190,-170,o),
(163,-137,o),
(163,-63,c),
(43,-63,l),
(43,-191,o),
(104,-250,o),
(229,-250,cs),
(308,-250,o),
(406,-227,o),
(406,-106,cs),
(406,470,l),
(294,470,l),
(294,-106,ls)
);
},
{
closed = 1;
nodes = (
(24,235,l),
(24,86,o),
(85,-10,o),
(192,-10,cs),
(280,-10,o),
(305,52,o),
(321,108,c),
(305,221,l),
(294,221,l),
(294,112,o),
(255,70,o),
(217,70,cs),
(173,70,o),
(148,130,o),
(148,235,c)
);
},
{
closed = 1;
nodes = (
(148,340,o),
(173,400,o),
(217,400,cs),
(255,400,o),
(294,358,o),
(294,249,c),
(305,249,l),
(321,362,l),
(305,418,o),
(280,480,o),
(192,480,cs),
(85,480,o),
(24,384,o),
(24,235,c),
(148,235,l)
);
}
);
width = 452;
},
{
associatedMasterId = m01;
backgroundImage = {
imagePath = gq.jpg;
locked = 1;
pos = (4,-284);
scale = (3.3122,3.3122);
};
layerId = "D6D667BE-64C4-4048-88C2-E98A46E888DE";
name = "24 avr. 23 à 08:35";
shapes = (
{
closed = 1;
nodes = (
(381,-250,o),
(455,-197,o),
(455,-37,cs),
(455,471,l),
(342,471,l),
(342,66,l),
(376,46,l),
(337,-42,l),
(337,-101,o),
(335,-166,o),
(258,-166,cs),
(194,-166,o),
(177,-122,o),
(205,-46,c),
(80,-41,l),
(55,-142,o),
(53,-250,o),
(248,-250,cs)
);
},
{
closed = 1;
nodes = (
(299,-17,o),
(335,-2,o),
(376,46,c),
(410,90,l),
(368,131,l),
(335,85,o),
(308,73,o),
(269,73,cs),
(214,73,o),
(156,105,o),
(156,240,cs),
(156,359,o),
(202,403,o),
(254,403,cs),
(295,403,o),
(340,375,o),
(368,333,c),
(317,465,l),
(307,477,o),
(272,487,o),
(238,487,cs),
(110,487,o),
(40,379,o),
(40,237,cs),
(40,72,o),
(124,-17,o),
(248,-17,cs)
);
}
);
width = 505;
},
{
associatedMasterId = m01;
backgroundImage = {
imagePath = gq.jpg;
locked = 1;
pos = (-26,-284);
scale = (3.3122,3.3122);
};
guides = (
{
pos = (259,73);
}
);
layerId = "925E40D6-C7A7-458F-A52D-9C8443C0DCF2";
name = "24 avr. 23 à 14:14";
shapes = (
{
closed = 1;
nodes = (
(401,-250,o),
(425,-177,o),
(425,-17,cs),
(425,471,l),
(312,471,l),
(312,66,l),
(346,46,l),
(307,-42,l),
(307,-101,o),
(325,-166,o),
(248,-166,cs),
(184,-166,o),
(167,-125,o),
(195,-46,c),
(70,-46,l),
(45,-145,o),
(43,-250,o),
(238,-250,cs)
);
},
{
closed = 1;
nodes = (
(291,-10,o),
(350,7,o),
(391,55,c),
(378,136,l),
(350,96,o),
(306,73,o),
(264,73,cs),
(203,73,o),
(146,122,o),
(146,240,cs),
(146,359,o),
(192,402,o),
(244,402,cs),
(285,402,o),
(310,375,o),
(338,333,c),
(287,465,l),
(277,477,o),
(262,487,o),
(228,487,cs),
(100,487,o),
(30,379,o),
(30,237,cs),
(30,82,o),
(114,-10,o),
(238,-10,cs)
);
}
);
width = 475;
},
{
anchors = (
{
name = bottom;
pos = (249,-240);
},
{
name = top;
pos = (245,470);
}
);
annotations = (
{
angle = 219.89488;
pos = (47,-243);
type = Arrow;
}
);
guides = (
{
pos = (258,73);
}
);
layerId = m002;
shapes = (
{
closed = 1;
nodes = (
(314,-140,o),
(287,-170,o),
(249,-170,cs),
(210,-170,o),
(183,-137,o),
(183,-63,c),
(59,-63,l),
(59,-191,o),
(124,-250,o),
(249,-250,cs),
(338,-250,o),
(446,-220,o),
(446,-86,cs),
(446,470,l),
(314,470,l),
(314,-86,ls)
);
},
{
closed = 1;
nodes = (
(36,235,l),
(36,86,o),
(105,-10,o),
(212,-10,cs),
(300,-10,o),
(325,52,o),
(341,108,c),
(325,221,l),
(314,221,l),
(314,112,o),
(275,70,o),
(237,70,cs),
(193,70,o),
(170,130,o),
(170,235,c)
);
},
{
closed = 1;
nodes = (
(170,340,o),
(193,400,o),
(237,400,cs),
(275,400,o),
(314,358,o),
(314,249,c),
(325,249,l),
(341,362,l),
(325,418,o),
(300,480,o),
(212,480,cs),
(105,480,o),
(36,384,o),
(36,235,c),
(170,235,l)
);
}
);
width = 496;
}
);
metricLeft = o;
metricRight = n;
unicode = 103;
},
{
color = 4;
glyphname = h;
kernRight = n;
lastChange = "2024-06-19 07:15:23 +0000";
layers = (
{
anchors = (
{
name = bottom;
pos = (230,0);
},
{
name = center;
pos = (230,576);
},
{
name = top;
pos = (230,720);
}
);
layerId = m01;
shapes = (
{
closed = 1;
nodes = (
(158,462,l),
(158,720,l),
(46,720,l),
(46,462,l)
);
},
{
ref = n;
}
);
width = 452;
},
{
anchors = (
{
name = bottom;
pos = (258,0);
},
{
name = center;
pos = (258,576);
},
{
name = top;
pos = (258,720);
}
);
layerId = m002;
shapes = (
{
closed = 1;
nodes = (
(182,462,l),
(182,720,l),
(50,720,l),
(50,462,l)
);
},
{
ref = n;
}
);
width = 504;
}
);
metricRight = n;
unicode = 104;
},
{
color = 4;
glyphname = hbar;
kernRight = n;
lastChange = "2024-06-19 07:53:57 +0000";
layers = (
{
layerId = m01;
shapes = (
{
alignment = -1;
ref = h;
},
{
closed = 1;
nodes = (
(306,560,l),
(306,620,l),
(6,620,l),
(6,560,l)
);
}
);
width = 452;
},
{
layerId = m002;
shapes = (
{
alignment = -1;
ref = h;
},
{
closed = 1;
nodes = (
(336,560,l),
(336,620,l),
(16,620,l),
(16,560,l)
);
}
);
width = 600;
}
);
unicode = 295;
},
{
color = 4;
glyphname = idotless;
lastChange = "2024-06-18 12:29:46 +0000";
layers = (
{
anchors = (
{
name = bottom;
pos = (112,0);
},
{
name = ogonek;
pos = (168,0);
},
{
name = top;
pos = (112,470);
}
);
layerId = m01;
shapes = (
{
closed = 1;
nodes = (
(168,0,l),
(168,470,l),
(56,470,l),
(56,0,l)
);
}
);
width = 224;
},
{
anchors = (
{
name = bottom;
pos = (122,0);
},
{
name = ogonek;
pos = (188,0);
},
{
name = top;
pos = (122,470);
}
);
layerId = m002;
shapes = (
{
closed = 1;
nodes = (
(188,0,l),
(188,470,l),
(56,470,l),
(56,0,l)
);
}
);
width = 244;
}
);
unicode = 305;
},
{
color = 4;
glyphname = iogonek;
lastChange = "2024-06-19 05:47:24 +0000";
layers = (
{
layerId = m01;
shapes = (
{
closed = 1;
nodes = (
(168,0,l),
(168,470,l),
(56,470,l),
(56,0,l)
);
},
{
closed = 1;
nodes = (
(168,530,l),
(168,650,l),
(56,650,l),
(56,530,l)
);
},
{
closed = 1;
nodes = (
(199,-240,l),
(199,-150,l),
(151,-150,ls),
(133,-150,o),
(129,-140,o),
(134,-123,cs),
(168,0,l),
(109,38,l),
(60,-135,ls),
(55,-153,o),
(52,-168,o),
(52,-182,cs),
(52,-221,o),
(75,-240,o),
(127,-240,cs)
);
}
);
width = 224;
},
{
layerId = m002;
shapes = (
{
closed = 1;
nodes = (
(188,0,l),
(188,470,l),
(56,470,l),
(56,0,l)
);
},
{
closed = 1;
nodes = (
(188,530,l),
(188,650,l),
(56,650,l),
(56,530,l)
);
},
{
closed = 1;
nodes = (
(214,-240,l),
(214,-150,l),
(156,-150,ls),
(138,-150,o),
(132,-140,o),
(139,-123,cs),
(188,0,l),
(134,38,l),
(65,-135,ls),
(58,-153,o),
(54,-169,o),
(54,-183,cs),
(54,-221,o),
(81,-240,o),
(132,-240,cs)
);
}
);
width = 244;
}
);
unicode = 303;
},
{
color = 4;
glyphname = jdotless;
lastChange = "2024-06-18 13:55:37 +0000";
layers = (
{
anchors = (
{
name = bottom;
pos = (108,-240);
},
{
name = top;
pos = (108,470);
}
);
layerId = m01;
shapes = (
{
closed = 1;
nodes = (
(164,-102,l),
(164,470,l),
(52,470,l),
(52,-102,l)
);
},
{
closed = 1;
nodes = (
(26,-240,ls),
(129,-240,o),
(164,-209,o),
(164,-102,c),
(52,-102,l),
(52,-135,o),
(41,-150,o),
(16,-150,cs),
(-36,-150,l),
(-36,-240,l)
);
}
);
width = 220;
},
{
anchors = (
{
name = bottom;
pos = (107,-240);
},
{
name = top;
pos = (122,470);
}
);
layerId = m002;
shapes = (
{
closed = 1;
nodes = (
(188,-102,l),
(188,470,l),
(56,470,l),
(56,-102,l)
);
},
{
closed = 1;
nodes = (
(30,-240,ls),
(153,-240,o),
(188,-209,o),
(188,-102,c),
(56,-102,l),
(56,-135,o),
(45,-150,o),
(20,-150,cs),
(-32,-150,l),
(-32,-240,l)
);
}
);
width = 244;
}
);
metricRight = idotless;
unicode = 567;
},
{
color = 4;
glyphname = k;
kernRight = k;
lastChange = "2024-06-19 08:03:23 +0000";
layers = (
{
anchors = (
{
name = bottom;
pos = (226,0);
},
{
name = top;
pos = (226,720);
}
);
layerId = m002;
shapes = (
{
closed = 1;
nodes = (
(182,0,l),
(182,720,l),
(50,720,l),
(50,0,l)
);
},
{
closed = 1;
nodes = (
(156,76,l),
(434,470,l),
(305,470,l),
(97,175,l)
);
},
{
closed = 1;
nodes = (
(212,252,l),
(324,0,l),
(446,0,l),
(282,370,l)
);
}
);
width = 460;
},
{
anchors = (
{
name = bottom;
pos = (212,0);
},
{
name = top;
pos = (212,720);
}
);
associatedMasterId = m01;
layerId = "8581326C-5408-4033-9690-32C7AD1EDCF9";
name = "10 mai 24 à 17:07";
shapes = (
{
closed = 1;
nodes = (
(119,76,l),
(407,470,l),
(288,470,l),
(49,143,l)
);
},
{
closed = 1;
nodes = (
(158,0,l),
(158,700,l),
(46,700,l),
(46,0,l)
);
},
{
closed = 1;
nodes = (
(192,230,l),
(302,0,l),
(412,0,l),
(255,343,l)
);
}
);
width = 428;
},
{
anchors = (
{
name = bottom;
pos = (214,0);
},
{
name = top;
pos = (214,720);
}
);
guides = (
{
angle = 90;
pos = (407,470);
}
);
layerId = m01;
name = Kondensiert;
shapes = (
{
closed = 1;
nodes = (
(158,0,l),
(158,720,l),
(46,720,l),
(46,0,l)
);
},
{
closed = 1;
nodes = (
(119,76,l),
(407,470,l),
(288,470,l),
(49,143,l)
);
},
{
closed = 1;
nodes = (
(201,238,l),
(307,0,l),
(417,0,l),
(253,370,l)
);
}
);
width = 427;
},
{
anchors = (
{
name = bottom;
pos = (212,0);
},
{
name = top;
pos = (212,720);
}
);
associatedMasterId = m01;
layerId = "FAF1CB45-8420-4E8E-AF59-3329698F193D";
name = "10 mai 24 à 17:07";
shapes = (
{
closed = 1;
nodes = (
(119,76,l),
(407,470,l),
(288,470,l),
(49,143,l)
);
},
{
closed = 1;
nodes = (
(158,0,l),
(158,700,l),
(46,700,l),
(46,0,l)
);
},
{
closed = 1;
nodes = (
(195,257,l),
(312,0,l),
(422,0,l),
(258,370,l)
);
}
);
width = 428;
},
{
anchors = (
{
name = bottom;
pos = (226,0);
},
{
name = top;
pos = (226,720);
}
);
associatedMasterId = m002;
layerId = "3823AD11-5AD3-4411-A2DA-D434B375F87B";
name = "10 mai 24 à 17:14";
shapes = (
{
closed = 1;
nodes = (
(182,71,l),
(421,470,l),
(315,470,l),
(76,71,l)
);
},
{
closed = 1;
nodes = (
(182,0,l),
(182,700,l),
(50,700,l),
(50,0,l)
);
},
{
closed = 1;
nodes = (
(432,0,l),
(296,354,l),
(219,257,l),
(326,0,l)
);
}
);
width = 452;
}
);
metricLeft = h;
unicode = 107;
},
{
color = 4;
glyphname = l;
lastChange = "2024-06-19 06:00:31 +0000";
layers = (
{
anchors = (
{
name = bottom;
pos = (131,0);
},
{
name = center;
pos = (131,235);
},
{
name = top;
pos = (131,720);
},
{
name = topright;
pos = (306,720);
}
);
layerId = m01;
shapes = (
{
closed = 1;
nodes = (
(158,138,l),
(158,720,l),
(46,720,l),
(46,138,l)
);
},
{
closed = 1;
nodes = (
(224,0,l),
(224,90,l),
(194,90,ls),
(169,90,o),
(158,105,o),
(158,138,c),
(46,138,l),
(46,31,o),
(81,0,o),
(184,0,cs)
);
}
);
width = 240;
},
{
anchors = (
{
name = bottom;
pos = (135,0);
},
{
name = center;
pos = (135,235);
},
{
name = top;
pos = (135,720);
},
{
name = topright;
pos = (350,720);
}
);
layerId = m002;
shapes = (
{
closed = 1;
nodes = (
(182,138,l),
(182,720,l),
(50,720,l),
(50,138,l)
);
},
{
closed = 1;
nodes = (
(260,0,l),
(260,90,l),
(230,90,ls),
(200,90,o),
(182,108,o),
(182,138,c),
(50,138,l),
(50,36,o),
(85,0,o),
(188,0,cs)
);
}
);
width = 270;
}
);
metricLeft = h;
unicode = 108;
},
{
color = 4;
glyphname = lslash;
lastChange = "2024-06-18 14:27:59 +0000";
layers = (
{
layerId = m01;
shapes = (
{
alignment = -1;
ref = l;
},
{
closed = 1;
nodes = (
(224,403,l),
(6,320,l),
(6,218,l),
(224,301,l)
);
}
);
width = 240;
},
{
guides = (
{
angle = 90;
pos = (260,367);
}
);
layerId = m002;
shapes = (
{
alignment = -1;
ref = l;
},
{
closed = 1;
nodes = (
(260,417,l),
(6,320,l),
(6,218,l),
(260,315,l)
);
}
);
width = 270;
}
);
unicode = 322;
},
{
color = 4;
glyphname = m;
kernLeft = n;
kernRight = n;
lastChange = "2024-06-19 07:24:24 +0000";
layers = (
{
anchors = (
{
name = bottom;
pos = (334,0);
},
{
name = top;
pos = (334,470);
}
);
layerId = m01;
shapes = (
{
closed = 1;
nodes = (
(158,0,l),
(158,470,l),
(46,470,l),
(46,0,l)
);
},
{
closed = 1;
nodes = (
(614,0,l),
(614,322,ls),
(614,439,o),
(550,478,o),
(475,478,cs),
(399,478,o),
(365,418,o),
(349,362,c),
(375,249,l),
(386,249,l),
(386,358,o),
(415,398,o),
(452,398,cs),
(481,398,o),
(510,373,o),
(507,301,cs),
(502,197,l),
(502,0,l)
);
},
{
closed = 1;
nodes = (
(386,0,l),
(386,322,ls),
(386,439,o),
(322,478,o),
(247,478,cs),
(171,478,o),
(137,418,o),
(121,362,c),
(147,249,l),
(158,249,l),
(158,358,o),
(187,398,o),
(224,398,cs),
(253,398,o),
(282,373,o),
(279,301,cs),
(274,197,l),
(274,0,l)
);
}
);
width = 660;
},
{
associatedMasterId = m01;
backgroundImage = {
imagePath = mbdc.jpg;
locked = 1;
pos = (0,-48);
scale = (3.3158,3.3158);
};
layerId = "17B376F9-135B-4CF7-8200-563BE9AA9314";
name = "24 avr. 23 à 11:15";
shapes = (
{
closed = 1;
nodes = (
(50,0,l),
(162,0,l),
(162,327,l),
(50,327,l)
);
},
{
closed = 1;
nodes = (
(279,0,l),
(387,0,l),
(387,350,ls),
(387,434,o),
(325,479,o),
(251,478,cs),
(232,478,o),
(212,475,o),
(193,469,c),
(141,365,l),
(151,289,l),
(162,289,l),
(162,367,o),
(173,398,o),
(224,398,cs),
(270,398,o),
(293,373,o),
(288,301,c),
(279,197,l)
);
},
{
closed = 1;
nodes = (
(50,273,l),
(152,273,l),
(152,470,l),
(50,470,l)
);
},
{
closed = 1;
nodes = (
(504,0,l),
(616,0,l),
(616,350,ls),
(616,434,o),
(549,478,o),
(476,478,cs),
(457,478,o),
(437,475,o),
(418,469,c),
(366,365,l),
(376,289,l),
(387,289,l),
(387,367,o),
(398,398,o),
(449,398,cs),
(495,398,o),
(518,373,o),
(513,301,c),
(504,197,l)
);
}
);
width = 600;
},
{
associatedMasterId = m01;
backgroundImage = {
imagePath = mbdc.jpg;
locked = 1;
pos = (0,-48);
scale = (3.3158,3.3158);
};
layerId = "0563E0F4-F7C0-416B-8753-EAEAD44E91C6";
name = "24 avr. 23 à 11:15";
shapes = (
{
closed = 1;
nodes = (
(50,0,l),
(162,0,l),
(162,327,l),
(50,327,l)
);
},
{
closed = 1;
nodes = (
(279,0,l),
(387,0,l),
(387,350,l),
(366,365,l),
(371,416,l),
(348,457,o),
(302,479,o),
(251,478,cs),
(232,478,o),
(212,475,o),
(193,469,c),
(141,365,l),
(151,289,l),
(162,289,l),
(162,367,o),
(173,398,o),
(224,398,cs),
(270,398,o),
(293,373,o),
(288,301,c),
(279,197,l)
);
},
{
closed = 1;
nodes = (
(50,273,l),
(152,273,l),
(152,470,l),
(50,470,l)
);
},
{
closed = 1;
nodes = (
(504,0,l),
(616,0,l),
(616,350,ls),
(616,434,o),
(549,478,o),
(476,478,cs),
(457,478,o),
(437,475,o),
(418,469,c),
(366,365,l),
(376,289,l),
(387,289,l),
(387,367,o),
(398,398,o),
(449,398,cs),
(495,398,o),
(518,373,o),
(513,301,c),
(504,197,l)
);
}
);
width = 666;
},
{
associatedMasterId = m01;
backgroundImage = {
imagePath = mbdc.jpg;
locked = 1;
pos = (0,-48);
scale = (3.3158,3.3158);
};
layerId = "8E441FC3-7490-462D-AC5E-544FC5DEBC7D";
name = "24 avr. 23 à 11:17";
shapes = (
{
closed = 1;
nodes = (
(50,0,l),
(162,0,l),
(162,470,l),
(50,470,l)
);
},
{
closed = 1;
nodes = (
(279,0,l),
(387,0,l),
(387,352,ls),
(387,436,o),
(315,478,o),
(251,478,cs),
(234,478,o),
(218,475,o),
(204,470,c),
(151,365,l),
(151,229,l),
(162,229,l),
(162,338,o),
(166,398,o),
(224,398,cs),
(262,398,o),
(293,373,o),
(288,301,c),
(279,197,l)
);
},
{
closed = 1;
nodes = (
(504,0,l),
(616,0,l),
(616,352,ls),
(616,436,o),
(540,478,o),
(476,478,cs),
(459,478,o),
(443,475,o),
(429,470,c),
(376,365,l),
(376,229,l),
(387,229,l),
(387,338,o),
(391,398,o),
(449,398,cs),
(487,398,o),
(518,373,o),
(513,301,c),
(504,197,l)
);
}
);
width = 666;
},
{
associatedMasterId = m01;
backgroundImage = {
imagePath = mbdc.jpg;
locked = 1;
pos = (0,-48);
scale = (3.3158,3.3158);
};
guides = (
{
angle = 270;
pos = (376,297);
}
);
layerId = "AF9A536E-C69B-4B62-890A-6D276BA35696";
name = "24 avr. 23 à 11:19";
shapes = (
{
closed = 1;
nodes = (
(50,0,l),
(162,0,l),
(162,470,l),
(50,470,l)
);
},
{
closed = 1;
nodes = (
(279,0,l),
(387,0,l),
(387,229,l),
(376,365,l),
(376,404,l),
(354,453,o),
(300,478,o),
(251,478,cs),
(234,478,o),
(218,475,o),
(204,470,c),
(151,365,l),
(151,229,l),
(162,229,l),
(162,338,o),
(166,398,o),
(224,398,cs),
(262,398,o),
(293,373,o),
(288,301,c),
(279,197,l)
);
},
{
closed = 1;
nodes = (
(504,0,l),
(616,0,l),
(616,352,ls),
(616,436,o),
(540,478,o),
(476,478,cs),
(459,478,o),
(443,475,o),
(429,470,c),
(376,365,l),
(376,229,l),
(387,229,l),
(387,338,o),
(391,398,o),
(449,398,cs),
(487,398,o),
(518,373,o),
(513,301,c),
(504,197,l)
);
}
);
width = 666;
},
{
associatedMasterId = m01;
backgroundImage = {
imagePath = mbdc.jpg;
locked = 1;
pos = (0,-48);
scale = (3.3158,3.3158);
};
guides = (
{
angle = 270;
pos = (376,297);
}
);
layerId = "3CB0EBB1-C4B4-4321-B243-478EF733E32A";
name = "24 avr. 23 à 11:21";
shapes = (
{
closed = 1;
nodes = (
(50,0,l),
(162,0,l),
(162,470,l),
(50,470,l)
);
},
{
closed = 1;
nodes = (
(279,0,l),
(387,0,l),
(387,229,l),
(376,365,l),
(376,404,l),
(354,453,o),
(300,478,o),
(251,478,cs),
(231,478,o),
(210,474,o),
(197,470,c),
(144,365,l),
(144,229,l),
(162,229,l),
(162,338,o),
(166,398,o),
(224,398,cs),
(262,398,o),
(293,373,o),
(288,301,c),
(279,197,l)
);
},
{
closed = 1;
nodes = (
(504,0,l),
(616,0,l),
(616,352,ls),
(616,436,o),
(540,478,o),
(476,478,cs),
(448,478,o),
(423,470,o),
(405,458,c),
(439,510,l),
(366,365,l),
(366,229,l),
(387,229,l),
(387,338,o),
(391,398,o),
(449,398,cs),
(487,398,o),
(518,373,o),
(513,301,c),
(504,197,l)
);
}
);
width = 666;
},
{
anchors = (
{
name = bottom;
pos = (364,0);
},
{
name = top;
pos = (364,470);
}
);
guides = (
{
pos = (529,478);
}
);
layerId = m002;
shapes = (
{
closed = 1;
nodes = (
(182,0,l),
(182,470,l),
(50,470,l),
(50,0,l)
);
},
{
closed = 1;
nodes = (
(668,0,l),
(668,322,ls),
(668,439,o),
(604,478,o),
(529,478,cs),
(453,478,o),
(409,438,o),
(373,362,c),
(409,249,l),
(420,249,l),
(420,358,o),
(449,398,o),
(486,398,cs),
(515,398,o),
(544,373,o),
(541,301,cs),
(536,197,l),
(536,0,l)
);
},
{
closed = 1;
nodes = (
(420,0,l),
(420,322,ls),
(420,432,o),
(349,478,o),
(277,478,cs),
(209,478,o),
(160,437,o),
(135,332,c),
(171,249,l),
(182,249,l),
(182,358,o),
(211,398,o),
(248,398,cs),
(277,398,o),
(306,373,o),
(303,301,cs),
(298,197,l),
(298,0,l)
);
}
);
width = 718;
},
{
anchors = (
{
name = bottom;
pos = (350,0);
},
{
name = top;
pos = (350,470);
}
);
associatedMasterId = m002;
layerId = "7B41ED00-3F3A-4A4B-B80C-FA84B307D745";
name = "30 avr. 24 à 10:15";
shapes = (
{
closed = 1;
nodes = (
(168,0,l),
(168,470,l),
(56,470,l),
(56,0,l)
);
},
{
closed = 1;
nodes = (
(644,0,l),
(644,322,ls),
(644,439,o),
(580,478,o),
(505,478,cs),
(429,478,o),
(395,438,o),
(349,362,c),
(395,249,l),
(406,249,l),
(406,358,o),
(445,398,o),
(482,398,cs),
(511,398,o),
(540,373,o),
(537,301,cs),
(532,197,l),
(532,0,l)
);
},
{
closed = 1;
nodes = (
(406,0,l),
(406,322,ls),
(406,439,o),
(342,478,o),
(267,478,cs),
(191,478,o),
(157,438,o),
(111,362,c),
(157,249,l),
(168,249,l),
(168,358,o),
(207,398,o),
(244,398,cs),
(273,398,o),
(302,373,o),
(299,301,cs),
(294,197,l),
(294,0,l)
);
}
);
width = 700;
}
);
metricLeft = n;
metricRight = n;
unicode = 109;
},
{
color = 4;
glyphname = n;
kernLeft = n;
kernRight = n;
lastChange = "2024-06-19 07:15:57 +0000";
layers = (
{
associatedMasterId = m01;
backgroundImage = {
imagePath = nh.jpg;
locked = 1;
pos = (-18,-47);
scale = (3.2973,3.2973);
};
layerId = "40045745-1492-49F6-8C81-7ED0B5CBAE80";
name = "23 avr. 23 à 16:29";
shapes = (
{
closed = 1;
nodes = (
(50,0,l),
(162,0,l),
(162,470,l),
(50,470,l)
);
},
{
closed = 1;
nodes = (
(302,0,l),
(414,0,l),
(414,359,ls),
(414,456,o),
(335,487,o),
(268,487,cs),
(235,487,o),
(215,480,o),
(198,470,c),
(156,365,l),
(146,290,l),
(162,289,l),
(162,352,o),
(170,402,o),
(251,402,cs),
(316,402,o),
(327,370,o),
(327,331,c),
(302,197,l)
);
}
);
width = 464;
},
{
associatedMasterId = m01;
backgroundImage = {
imagePath = nh.jpg;
locked = 1;
pos = (-18,-47);
scale = (3.2973,3.2973);
};
guides = (
{
pos = (184,289);
},
{
pos = (364,478);
}
);
layerId = "6355D261-165E-4DE2-9736-770D56F557CB";
name = "24 avr. 23 à 10:46";
shapes = (
{
closed = 1;
nodes = (
(50,0,l),
(162,0,l),
(162,327,l),
(50,327,l)
);
},
{
closed = 1;
nodes = (
(297,0,l),
(409,0,l),
(409,350,ls),
(409,434,o),
(338,478,o),
(269,478,cs),
(242,478,o),
(210,471,o),
(189,460,c),
(141,365,l),
(151,289,l),
(162,289,l),
(162,367,o),
(191,398,o),
(242,398,cs),
(288,398,o),
(311,373,o),
(306,301,c),
(297,197,l)
);
},
{
closed = 1;
nodes = (
(50,273,l),
(152,273,l),
(152,470,l),
(50,470,l)
);
}
);
width = 459;
},
{
associatedMasterId = m01;
backgroundImage = {
imagePath = nh.jpg;
locked = 1;
pos = (-18,-47);
scale = (3.2973,3.2973);
};
guides = (
{
pos = (184,289);
},
{
pos = (364,478);
}
);
layerId = "0FAC1479-8E4B-44A3-BA4E-B24C7BD212CA";
name = "24 avr. 23 à 10:46";
shapes = (
{
closed = 1;
nodes = (
(50,0,l),
(162,0,l),
(162,327,l),
(50,327,l)
);
},
{
closed = 1;
nodes = (
(297,0,l),
(409,0,l),
(409,350,ls),
(409,434,o),
(338,478,o),
(269,478,cs),
(242,478,o),
(210,471,o),
(189,460,c),
(141,365,l),
(151,289,l),
(162,289,l),
(162,367,o),
(191,398,o),
(242,398,cs),
(288,398,o),
(311,373,o),
(306,301,c),
(297,197,l)
);
},
{
closed = 1;
nodes = (
(50,273,l),
(152,273,l),
(152,470,l),
(50,470,l)
);
}
);
width = 459;
},
{
anchors = (
{
name = bottom;
pos = (226,0);
},
{
name = top;
pos = (226,470);
}
);
guides = (
{
pos = (180,289);
},
{
pos = (360,478);
}
);
layerId = m01;
name = Regular;
shapes = (
{
closed = 1;
nodes = (
(406,0,l),
(406,322,ls),
(406,439,o),
(332,478,o),
(257,478,cs),
(181,478,o),
(137,418,o),
(121,362,c),
(147,249,l),
(158,249,l),
(158,358,o),
(187,398,o),
(234,398,cs),
(263,398,o),
(302,373,o),
(299,301,cs),
(294,197,l),
(294,0,l)
);
},
{
closed = 1;
nodes = (
(158,0,l),
(158,470,l),
(46,470,l),
(46,0,l)
);
}
);
width = 452;
},
{
anchors = (
{
name = bottom;
pos = (252,0);
},
{
name = top;
pos = (252,470);
}
);
guides = (
{
pos = (204,289);
},
{
pos = (384,478);
}
);
layerId = m002;
name = Regular;
shapes = (
{
closed = 1;
nodes = (
(454,0,l),
(454,322,ls),
(454,439,o),
(390,478,o),
(315,478,cs),
(239,478,o),
(171,438,o),
(125,362,c),
(171,249,l),
(182,249,l),
(182,358,o),
(210,398,o),
(262,398,cs),
(303,398,o),
(330,373,o),
(327,301,cs),
(322,197,l),
(322,0,l)
);
},
{
closed = 1;
nodes = (
(182,0,l),
(182,470,l),
(50,470,l),
(50,0,l)
);
}
);
width = 504;
}
);
unicode = 110;
},
{
color = 4;
glyphname = o;
kernLeft = o;
kernRight = o;
lastChange = "2024-06-19 07:39:21 +0000";
layers = (
{
anchors = (
{
name = bottom;
pos = (223,0);
},
{
name = center;
pos = (223,235);
},
{
name = ogonek;
pos = (400,10);
},
{
name = top;
pos = (223,470);
},
{
name = topright;
pos = (424,470);
}
);
guides = (
{
pos = (223,-10);
}
);
layerId = m01;
shapes = (
{
closed = 1;
nodes = (
(111,480,o),
(24,412,o),
(24,235,cs),
(24,81,o),
(89,-10,o),
(223,-10,c),
(223,70,l),
(178,70,o),
(148,127,o),
(148,235,cs),
(148,346,o),
(180,400,o),
(223,400,c),
(223,480,l)
);
},
{
closed = 1;
nodes = (
(223,400,l),
(266,400,o),
(298,346,o),
(298,235,cs),
(298,127,o),
(268,70,o),
(223,70,c),
(223,-10,l),
(357,-10,o),
(422,81,o),
(422,235,cs),
(422,412,o),
(335,480,o),
(223,480,c)
);
}
);
width = 446;
},
{
anchors = (
{
name = bottom;
pos = (250,0);
},
{
name = center;
pos = (250,235);
},
{
name = ogonek;
pos = (454,10);
},
{
name = top;
pos = (250,470);
},
{
name = topright;
pos = (485,470);
}
);
guides = (
{
pos = (250,-10);
}
);
layerId = m002;
shapes = (
{
closed = 1;
nodes = (
(133,480,o),
(36,409,o),
(36,235,cs),
(36,81,o),
(111,-10,o),
(250,-10,c),
(250,70,l),
(204,70,o),
(170,116,o),
(170,235,cs),
(170,352,o),
(206,400,o),
(250,400,c),
(250,480,l)
);
},
{
closed = 1;
nodes = (
(250,400,l),
(294,400,o),
(330,352,o),
(330,235,cs),
(330,116,o),
(296,70,o),
(250,70,c),
(250,-10,l),
(389,-10,o),
(464,81,o),
(464,235,cs),
(464,409,o),
(367,480,o),
(250,480,c)
);
}
);
width = 500;
},
{
anchors = (
{
name = bottom;
pos = (223,0);
},
{
name = center;
pos = (223,235);
},
{
name = ogonek;
pos = (400,10);
},
{
name = top;
pos = (223,470);
},
{
name = topright;
pos = (424,470);
}
);
associatedMasterId = m01;
guides = (
{
pos = (223,-10);
}
);
layerId = "1A91625F-327D-47B6-A0CB-5B1E127D6E35";
name = "10 mai 24 à 17:09";
shapes = (
{
closed = 1;
nodes = (
(111,480,o),
(24,412,o),
(24,235,cs),
(24,81,o),
(89,-10,o),
(223,-10,c),
(223,70,l),
(178,70,o),
(148,127,o),
(148,235,cs),
(148,346,o),
(180,400,o),
(223,400,c),
(223,480,l)
);
},
{
closed = 1;
nodes = (
(223,400,l),
(266,400,o),
(298,346,o),
(298,235,cs),
(298,127,o),
(268,70,o),
(223,70,c),
(223,-10,l),
(357,-10,o),
(422,81,o),
(422,235,cs),
(422,412,o),
(335,480,o),
(223,480,c)
);
}
);
width = 446;
}
);
unicode = 111;
},
{
color = 4;
glyphname = oslash;
kernLeft = o;
kernRight = o;
lastChange = "2024-06-18 14:27:59 +0000";
layers = (
{
layerId = m01;
shapes = (
{
closed = 1;
nodes = (
(111,480,o),
(24,412,o),
(24,235,cs),
(24,81,o),
(89,-10,o),
(223,-10,cs),
(357,-10,o),
(422,81,o),
(422,235,cs),
(422,412,o),
(335,480,o),
(223,480,cs)
);
},
{
closed = 1;
nodes = (
(138,346,o),
(170,400,o),
(223,400,cs),
(276,400,o),
(308,346,o),
(308,235,cs),
(308,127,o),
(278,70,o),
(223,70,cs),
(168,70,o),
(138,127,o),
(138,235,cs)
);
},
{
closed = 1;
nodes = (
(371,493,l),
(316,517,l),
(75,-23,l),
(130,-48,l)
);
}
);
width = 446;
},
{
layerId = m002;
shapes = (
{
closed = 1;
nodes = (
(133,479,o),
(36,408,o),
(36,234,cs),
(36,80,o),
(111,-11,o),
(250,-11,cs),
(389,-11,o),
(464,80,o),
(464,234,cs),
(464,408,o),
(367,479,o),
(250,479,cs)
);
},
{
closed = 1;
nodes = (
(160,351,o),
(196,399,o),
(250,399,cs),
(304,399,o),
(340,351,o),
(340,234,cs),
(340,115,o),
(306,69,o),
(250,69,cs),
(194,69,o),
(160,115,o),
(160,234,cs)
);
},
{
closed = 1;
nodes = (
(424,475,l),
(372,505,l),
(76,-7,l),
(128,-37,l)
);
}
);
width = 500;
}
);
metricLeft = o;
metricRight = o;
unicode = 248;
},
{
color = 4;
glyphname = oe;
kernLeft = o;
kernRight = o;
lastChange = "2024-06-19 07:05:52 +0000";
layers = (
{
layerId = m01;
shapes = (
{
closed = 1;
nodes = (
(469,70,l),
(424,70,o),
(392,127,o),
(392,235,cs),
(392,346,o),
(426,400,o),
(469,400,c),
(469,480,l),
(356,480,o),
(278,412,o),
(278,235,cs),
(278,81,o),
(335,-10,o),
(469,-10,c)
);
},
{
closed = 1;
nodes = (
(642,235,l),
(642,300,l),
(341,300,l),
(341,235,l)
);
},
{
closed = 1;
nodes = (
(592,-10,o),
(656,70,o),
(656,177,c),
(532,177,l),
(532,101,o),
(499,70,o),
(469,70,c),
(469,-10,l)
);
},
{
closed = 1;
nodes = (
(657,235,l),
(657,427,o),
(567,480,o),
(469,480,c),
(469,400,l),
(504,400,o),
(531,358,o),
(531,235,c)
);
},
{
closed = 1;
nodes = (
(111,480,o),
(24,412,o),
(24,235,cs),
(24,81,o),
(89,-10,o),
(213,-10,c),
(213,70,l),
(168,70,o),
(148,127,o),
(148,235,cs),
(148,346,o),
(170,400,o),
(213,400,c),
(213,480,l)
);
},
{
closed = 1;
nodes = (
(213,400,l),
(256,400,o),
(278,346,o),
(278,235,cs),
(278,127,o),
(258,70,o),
(213,70,c),
(213,-10,l),
(337,-10,o),
(382,81,o),
(382,235,cs),
(382,412,o),
(315,480,o),
(213,480,c)
);
}
);
width = 681;
},
{
layerId = m002;
shapes = (
{
closed = 1;
nodes = (
(522,70,l),
(476,70,o),
(442,116,o),
(442,235,cs),
(442,352,o),
(474,400,o),
(522,400,c),
(522,480,l),
(395,480,o),
(320,409,o),
(320,235,cs),
(320,81,o),
(377,-10,o),
(522,-10,c)
);
},
{
closed = 1;
nodes = (
(681,236,l),
(681,301,l),
(368,301,l),
(368,236,l)
);
},
{
closed = 1;
nodes = (
(648,-10,o),
(704,59,o),
(704,177,c),
(580,177,l),
(580,101,o),
(556,70,o),
(522,70,c),
(522,-10,l)
);
},
{
closed = 1;
nodes = (
(710,236,l),
(710,425,o),
(630,480,o),
(522,480,c),
(522,400,l),
(563,400,o),
(584,358,o),
(584,236,c)
);
},
{
closed = 1;
nodes = (
(138,480,o),
(36,409,o),
(36,235,cs),
(36,81,o),
(116,-10,o),
(245,-10,c),
(245,70,l),
(199,70,o),
(170,116,o),
(170,235,cs),
(170,352,o),
(201,400,o),
(245,400,c),
(245,480,l)
);
},
{
closed = 1;
nodes = (
(245,400,l),
(289,400,o),
(320,352,o),
(320,235,cs),
(320,116,o),
(291,70,o),
(245,70,c),
(245,-10,l),
(384,-10,o),
(434,81,o),
(434,235,cs),
(434,409,o),
(362,480,o),
(245,480,c)
);
}
);
width = 746;
}
);
metricLeft = o;
metricRight = o;
unicode = 339;
},
{
color = 4;
glyphname = p;
kernLeft = n;
kernRight = o;
lastChange = "2024-06-17 11:39:20 +0000";
layers = (
{
layerId = m01;
shapes = (
{
closed = 1;
nodes = (
(158,-240,l),
(158,470,l),
(46,470,l),
(46,-240,l)
);
},
{
closed = 1;
nodes = (
(304,130,o),
(279,70,o),
(235,70,cs),
(197,70,o),
(158,112,o),
(158,221,c),
(147,221,l),
(131,108,l),
(147,52,o),
(172,-10,o),
(260,-10,cs),
(367,-10,o),
(428,86,o),
(428,235,cs),
(428,384,o),
(367,480,o),
(260,480,cs),
(172,480,o),
(137,418,o),
(121,362,c),
(147,249,l),
(158,249,l),
(158,358,o),
(197,400,o),
(235,400,cs),
(279,400,o),
(304,340,o),
(304,235,cs)
);
}
);
width = 452;
},
{
associatedMasterId = m01;
layerId = "B1057437-B2CD-4038-838F-3EE745F3E175";
name = "24 avr. 23 à 14:37";
shapes = (
{
closed = 1;
nodes = (
(50,470,l),
(50,-240,l),
(162,-240,l),
(162,470,l)
);
},
{
closed = 1;
nodes = (
(246,487,o),
(222,482,o),
(199,469,c),
(151,374,l),
(152,298,l),
(162,298,l),
(162,376,o),
(201,407,o),
(252,407,cs),
(313,407,o),
(329,312,o),
(329,239,cs),
(329,120,o),
(283,77,o),
(231,77,cs),
(190,77,o),
(165,104,o),
(137,146,c),
(152,105,l),
(199,11,l),
(214,-1,o),
(235,-8,o),
(262,-8,cs),
(356,-8,o),
(445,76,o),
(445,242,cs),
(445,387,o),
(372,487,o),
(269,487,cs)
);
}
);
width = 475;
},
{
associatedMasterId = m01;
layerId = "C976251A-4D28-4D64-9F74-A03FFA75D5A7";
name = "24 avr. 23 à 14:41";
shapes = (
{
closed = 1;
nodes = (
(50,470,l),
(50,-240,l),
(162,-240,l),
(162,470,l)
);
},
{
closed = 1;
nodes = (
(246,487,o),
(222,482,o),
(199,469,c),
(151,374,l),
(152,298,l),
(162,298,l),
(162,376,o),
(201,407,o),
(252,407,cs),
(313,407,o),
(326,312,o),
(326,239,cs),
(326,120,o),
(283,77,o),
(231,77,cs),
(190,77,o),
(165,104,o),
(137,146,c),
(152,105,l),
(199,11,l),
(214,-1,o),
(235,-8,o),
(262,-8,cs),
(356,-8,o),
(442,76,o),
(442,242,cs),
(442,387,o),
(372,487,o),
(269,487,cs)
);
}
);
width = 475;
},
{
associatedMasterId = m01;
layerId = "DE014CFF-D8E4-46EA-A32D-28041E5B92BF";
name = "24 avr. 23 à 14:43";
shapes = (
{
closed = 1;
nodes = (
(50,470,l),
(50,-240,l),
(162,-240,l),
(162,470,l)
);
},
{
closed = 1;
nodes = (
(376,-8,o),
(432,97,o),
(432,239,cs),
(432,388,o),
(371,480,o),
(264,480,cs),
(239,480,o),
(216,475,o),
(196,465,c),
(151,374,l),
(152,298,l),
(162,298,l),
(162,361,o),
(184,400,o),
(229,400,cs),
(283,400,o),
(318,344,o),
(318,239,cs),
(318,120,o),
(272,77,o),
(220,77,cs),
(179,77,o),
(154,104,o),
(126,146,c),
(126,105,l),
(152,105,l),
(199,11,l),
(223,-2,o),
(247,-8,o),
(272,-8,cs)
);
}
);
width = 462;
},
{
associatedMasterId = m01;
layerId = "4F83F6EC-B279-4D2A-A0A9-C6CCD04DDF4F";
name = "19 janv. 24 à 12:08";
shapes = (
{
closed = 1;
nodes = (
(50,470,l),
(50,-240,l),
(162,-240,l),
(162,470,l)
);
},
{
closed = 1;
nodes = (
(376,-8,o),
(432,97,o),
(432,239,cs),
(432,388,o),
(371,480,o),
(264,480,cs),
(239,480,o),
(216,475,o),
(196,465,c),
(151,374,l),
(152,298,l),
(162,298,l),
(162,361,o),
(184,400,o),
(229,400,cs),
(283,400,o),
(318,344,o),
(318,239,cs),
(318,120,o),
(272,77,o),
(220,77,cs),
(179,77,o),
(154,104,o),
(126,146,c),
(126,105,l),
(152,105,l),
(199,11,l),
(223,-2,o),
(247,-8,o),
(272,-8,cs)
);
}
);
width = 462;
},
{
layerId = m002;
shapes = (
{
closed = 1;
nodes = (
(182,-240,l),
(182,470,l),
(50,470,l),
(50,-240,l)
);
},
{
closed = 1;
nodes = (
(326,130,o),
(303,70,o),
(259,70,cs),
(221,70,o),
(182,112,o),
(182,221,c),
(171,221,l),
(155,108,l),
(171,52,o),
(196,-10,o),
(284,-10,cs),
(391,-10,o),
(460,86,o),
(460,235,cs),
(460,384,o),
(391,480,o),
(284,480,cs),
(196,480,o),
(161,418,o),
(145,362,c),
(171,249,l),
(182,249,l),
(182,358,o),
(221,400,o),
(259,400,cs),
(303,400,o),
(326,340,o),
(326,235,cs)
);
}
);
width = 496;
}
);
metricLeft = n;
metricRight = o;
unicode = 112;
},
{
color = 4;
glyphname = thorn;
kernRight = o;
lastChange = "2024-06-17 12:06:12 +0000";
layers = (
{
layerId = m01;
shapes = (
{
closed = 1;
nodes = (
(158,-240,l),
(158,720,l),
(46,720,l),
(46,-240,l)
);
},
{
closed = 1;
nodes = (
(304,130,o),
(279,70,o),
(235,70,cs),
(197,70,o),
(158,112,o),
(158,221,c),
(147,221,l),
(131,108,l),
(147,52,o),
(172,-10,o),
(260,-10,cs),
(367,-10,o),
(428,86,o),
(428,235,cs),
(428,384,o),
(367,480,o),
(260,480,cs),
(172,480,o),
(137,418,o),
(121,362,c),
(147,249,l),
(158,249,l),
(158,358,o),
(197,400,o),
(235,400,cs),
(279,400,o),
(304,340,o),
(304,235,cs)
);
}
);
width = 452;
},
{
layerId = m002;
shapes = (
{
closed = 1;
nodes = (
(182,-240,l),
(182,720,l),
(50,720,l),
(50,-240,l)
);
},
{
closed = 1;
nodes = (
(326,130,o),
(303,70,o),
(259,70,cs),
(221,70,o),
(182,112,o),
(182,221,c),
(171,221,l),
(155,108,l),
(171,52,o),
(196,-10,o),
(284,-10,cs),
(391,-10,o),
(460,86,o),
(460,235,cs),
(460,384,o),
(391,480,o),
(284,480,cs),
(196,480,o),
(161,418,o),
(145,362,c),
(171,249,l),
(182,249,l),
(182,358,o),
(221,400,o),
(259,400,cs),
(303,400,o),
(326,340,o),
(326,235,cs)
);
}
);
width = 496;
}
);
metricRight = o;
unicode = 254;
},
{
color = 4;
glyphname = q;
kernLeft = o;
kernRight = u;
lastChange = "2024-05-10 14:50:49 +0000";
layers = (
{
layerId = m01;
shapes = (
{
closed = 1;
nodes = (
(294,470,l),
(294,-240,l),
(406,-240,l),
(406,470,l)
);
},
{
closed = 1;
nodes = (
(148,340,o),
(173,400,o),
(217,400,cs),
(255,400,o),
(294,358,o),
(294,249,c),
(305,249,l),
(321,362,l),
(305,418,o),
(280,480,o),
(192,480,cs),
(85,480,o),
(24,384,o),
(24,235,cs),
(24,86,o),
(85,-10,o),
(192,-10,cs),
(280,-10,o),
(315,52,o),
(331,108,c),
(305,221,l),
(294,221,l),
(294,112,o),
(255,70,o),
(217,70,cs),
(173,70,o),
(148,130,o),
(148,235,cs)
);
}
);
width = 452;
},
{
layerId = m002;
shapes = (
{
closed = 1;
nodes = (
(314,470,l),
(314,-240,l),
(446,-240,l),
(446,470,l)
);
},
{
closed = 1;
nodes = (
(170,340,o),
(193,400,o),
(237,400,cs),
(275,400,o),
(314,358,o),
(314,249,c),
(325,249,l),
(341,362,l),
(325,418,o),
(300,480,o),
(212,480,cs),
(105,480,o),
(36,384,o),
(36,235,cs),
(36,86,o),
(105,-10,o),
(212,-10,cs),
(300,-10,o),
(335,52,o),
(351,108,c),
(325,221,l),
(314,221,l),
(314,112,o),
(275,70,o),
(237,70,cs),
(193,70,o),
(170,130,o),
(170,235,cs)
);
}
);
width = 496;
}
);
metricLeft = o;
metricRight = n;
unicode = 113;
},
{
color = 4;
glyphname = r;
kernLeft = n;
kernRight = r;
lastChange = "2024-06-18 12:00:11 +0000";
layers = (
{
anchors = (
{
name = bottom;
pos = (102,0);
},
{
name = top;
pos = (162,470);
}
);
layerId = m01;
shapes = (
{
closed = 1;
nodes = (
(158,0,l),
(158,470,l),
(46,470,l),
(46,0,l)
);
},
{
closed = 1;
nodes = (
(284,478,l),
(208,478,o),
(137,401,o),
(121,302,c),
(147,229,l),
(158,229,l),
(158,328,o),
(212,358,o),
(284,358,c)
);
}
);
width = 300;
},
{
associatedMasterId = m01;
backgroundImage = {
imagePath = r.jpg;
locked = 1;
pos = (20,-46);
scale = (3.306,3.306);
};
layerId = "63D706B2-6F29-47DD-A463-90C048B0B1DC";
name = "24 avr. 23 à 10:47";
shapes = (
{
closed = 1;
nodes = (
(279,477,l),
(274,478,o),
(268,478,o),
(263,478,cs),
(241,478,o),
(205,471,o),
(184,460,c),
(146,365,l),
(146,276,l),
(162,276,l),
(162,390,o),
(229,388,o),
(279,387,c)
);
},
{
closed = 1;
nodes = (
(50,0,l),
(162,0,l),
(162,280,l),
(50,280,l)
);
},
{
closed = 1;
nodes = (
(50,200,l),
(152,200,l),
(152,470,l),
(50,470,l)
);
}
);
width = 299;
},
{
associatedMasterId = m01;
layerId = "FAD5DD47-5F71-43F5-9161-4E5CBAD67D4F";
name = "19 janv. 24 à 13:11";
shapes = (
{
closed = 1;
nodes = (
(50,0,l),
(162,0,l),
(162,470,l),
(50,470,l)
);
},
{
closed = 1;
nodes = (
(289,478,l),
(258,478,o),
(218,470,o),
(199,460,c),
(151,345,l),
(151,239,l),
(162,239,l),
(162,351,o),
(211,392,o),
(289,392,c)
);
}
);
width = 305;
},
{
anchors = (
{
name = bottom;
pos = (116,0);
},
{
name = top;
pos = (186,470);
}
);
layerId = m002;
shapes = (
{
closed = 1;
nodes = (
(182,0,l),
(182,470,l),
(50,470,l),
(50,0,l)
);
},
{
closed = 1;
nodes = (
(328,478,l),
(238,478,o),
(164,411,o),
(145,312,c),
(171,239,l),
(182,239,l),
(182,328,o),
(256,358,o),
(328,358,c)
);
}
);
width = 348;
}
);
metricLeft = n;
unicode = 114;
},
{
color = 4;
glyphname = s;
kernLeft = s;
kernRight = s;
lastChange = "2024-06-19 07:40:12 +0000";
layers = (
{
anchors = (
{
name = bottom;
pos = (221,0);
},
{
name = top;
pos = (221,470);
}
);
guides = (
{
angle = 90;
pos = (388,30);
}
);
layerId = m01;
shapes = (
{
closed = 1;
nodes = (
(334,-10,o),
(392,57,o),
(392,132,cs),
(392,193,o),
(354,250,o),
(266,277,cs),
(220,291,ls),
(173,305,o),
(150,324,o),
(150,349,cs),
(150,374,o),
(171,400,o),
(215,400,cs),
(261,400,o),
(284,372,o),
(284,331,c),
(391,331,l),
(391,393,o),
(359,480,o),
(214,480,cs),
(87,480,o),
(36,413,o),
(36,341,cs),
(36,285,o),
(67,223,o),
(178,189,cs),
(223,175,ls),
(260,164,o),
(278,145,o),
(278,122,cs),
(278,95,o),
(255,71,o),
(215,71,cs),
(166,71,o),
(131,89,o),
(131,150,c),
(24,150,l),
(26,38,o),
(105,-10,o),
(214,-10,cs)
);
}
);
width = 416;
},
{
associatedMasterId = m01;
layerId = "36BDA13B-F027-4843-8C6E-DBB4DC5219E9";
name = "21 janv. 24 à 12:09";
shapes = (
{
closed = 1;
nodes = (
(333,93,o),
(333,118,cs),
(333,143,o),
(308,169,o),
(251,182,cs),
(194,195,ls),
(99,217,o),
(51,278,o),
(51,338,cs),
(51,410,o),
(119,480,o),
(257,480,cs),
(417,480,o),
(452,386,o),
(464,341,c),
(341,324,l),
(341,355,o),
(304,400,o),
(258,400,cs),
(201,400,o),
(172,373,o),
(172,345,cs),
(172,322,o),
(193,298,o),
(234,290,cs),
(299,277,ls),
(380,261,o),
(456,210,o),
(456,130,cs),
(456,41,o),
(359,-10,o),
(257,-10,cs),
(155,-10,o),
(42,39,o),
(40,141,c),
(171,157,l),
(163,104,o),
(203,71,o),
(257,71,cs),
(305,71,o)
);
}
);
width = 504;
},
{
anchors = (
{
name = bottom;
pos = (238,0);
},
{
name = top;
pos = (238,470);
}
);
guides = (
{
pos = (433,71);
},
{
angle = 90;
pos = (234,400);
},
{
angle = 90;
pos = (295,18);
}
);
layerId = m002;
shapes = (
{
closed = 1;
nodes = (
(340,-10,o),
(425,41,o),
(425,130,cs),
(425,214,o),
(360,254,o),
(285,277,cs),
(239,291,ls),
(188,307,o),
(166,324,o),
(166,349,cs),
(166,374,o),
(186,400,o),
(234,400,cs),
(260,400,o),
(303,394,o),
(303,333,c),
(426,333,l),
(426,432,o),
(353,480,o),
(233,480,cs),
(99,480,o),
(44,414,o),
(44,338,cs),
(44,278,o),
(80,226,o),
(197,187,cs),
(242,172,ls),
(285,158,o),
(303,145,o),
(303,122,cs),
(303,95,o),
(272,71,o),
(234,71,cs),
(180,71,o),
(155,106,o),
(155,157,c),
(34,157,l),
(34,44,o),
(119,-10,o),
(233,-10,cs)
);
}
);
width = 460;
},
{
anchors = (
{
name = bottom;
pos = (248,0);
},
{
name = top;
pos = (248,470);
}
);
associatedMasterId = m002;
guides = (
{
pos = (443,71);
},
{
angle = 90;
pos = (244,400);
}
);
layerId = "940B454F-2AAA-470E-824A-7ED801358866";
name = "10 mai 24 à 16:11";
shapes = (
{
closed = 1;
nodes = (
(355,-10,o),
(452,41,o),
(452,130,cs),
(452,210,o),
(375,258,o),
(295,277,cs),
(240,290,ls),
(198,300,o),
(178,322,o),
(178,345,cs),
(178,373,o),
(207,400,o),
(244,400,cs),
(300,400,o),
(327,355,o),
(327,324,c),
(460,341,l),
(448,386,o),
(413,480,o),
(243,480,cs),
(115,480,o),
(47,421,o),
(47,338,cs),
(47,278,o),
(82,225,o),
(190,195,cs),
(237,182,ls),
(293,166,o),
(319,148,o),
(319,118,cs),
(319,89,o),
(295,71,o),
(244,71,cs),
(202,71,o),
(177,106,o),
(177,157,c),
(36,141,l),
(38,39,o),
(151,-10,o),
(243,-10,cs)
);
}
);
width = 496;
},
{
anchors = (
{
name = bottom;
pos = (248,0);
},
{
name = top;
pos = (248,470);
}
);
associatedMasterId = m002;
guides = (
{
pos = (443,71);
},
{
angle = 90;
pos = (244,400);
}
);
layerId = "099C859A-EF73-43F2-81F9-A01AA54756DE";
name = "10 mai 24 à 16:14";
shapes = (
{
closed = 1;
nodes = (
(345,-10,o),
(442,41,o),
(442,130,cs),
(442,210,o),
(364,253,o),
(285,277,cs),
(239,291,ls),
(209,300,o),
(192,322,o),
(192,345,cs),
(192,373,o),
(207,400,o),
(244,400,cs),
(290,400,o),
(317,365,o),
(317,324,c),
(440,341,l),
(440,390,o),
(387,480,o),
(243,480,cs),
(129,480,o),
(61,421,o),
(61,338,cs),
(61,278,o),
(96,230,o),
(203,197,cs),
(252,182,ls),
(299,168,o),
(309,148,o),
(309,118,cs),
(309,89,o),
(285,71,o),
(244,71,cs),
(216,71,o),
(191,106,o),
(191,157,c),
(50,141,l),
(52,39,o),
(165,-10,o),
(243,-10,cs)
);
}
);
width = 496;
},
{
anchors = (
{
name = bottom;
pos = (248,0);
},
{
name = top;
pos = (248,470);
}
);
associatedMasterId = m002;
guides = (
{
pos = (443,71);
},
{
angle = 90;
pos = (244,400);
}
);
layerId = "8FF626C0-424A-49A3-A538-217E28AF5DCC";
name = "10 mai 24 à 16:17";
shapes = (
{
closed = 1;
nodes = (
(341,-10,o),
(438,41,o),
(438,130,cs),
(438,210,o),
(360,254,o),
(285,277,cs),
(239,291,ls),
(213,299,o),
(186,322,o),
(186,345,cs),
(186,373,o),
(201,400,o),
(244,400,cs),
(290,400,o),
(313,365,o),
(313,324,c),
(436,341,l),
(436,390,o),
(383,480,o),
(243,480,cs),
(123,480,o),
(55,421,o),
(55,338,cs),
(55,278,o),
(90,236,o),
(207,197,cs),
(252,182,ls),
(295,168,o),
(305,148,o),
(305,118,cs),
(305,89,o),
(281,71,o),
(244,71,cs),
(210,71,o),
(165,106,o),
(165,157,c),
(44,141,l),
(46,39,o),
(159,-10,o),
(243,-10,cs)
);
}
);
width = 496;
},
{
anchors = (
{
name = bottom;
pos = (248,0);
},
{
name = top;
pos = (248,470);
}
);
associatedMasterId = m002;
guides = (
{
pos = (443,71);
},
{
angle = 90;
pos = (244,400);
},
{
angle = 90;
pos = (305,18);
}
);
layerId = "A21DD69D-A477-478F-BF9D-97F6F89AE8E4";
name = "10 mai 24 à 16:20";
shapes = (
{
closed = 1;
nodes = (
(351,-10,o),
(436,41,o),
(436,130,cs),
(436,214,o),
(370,254,o),
(295,277,cs),
(249,291,ls),
(223,299,o),
(186,322,o),
(186,345,cs),
(186,373,o),
(201,400,o),
(244,400,cs),
(290,400,o),
(313,365,o),
(313,324,c),
(436,341,l),
(436,390,o),
(383,480,o),
(243,480,cs),
(123,480,o),
(54,421,o),
(54,338,cs),
(54,278,o),
(90,226,o),
(207,187,cs),
(252,172,ls),
(288,160,o),
(305,145,o),
(305,122,cs),
(305,95,o),
(283,71,o),
(244,71,cs),
(200,71,o),
(165,106,o),
(165,157,c),
(44,141,l),
(46,39,o),
(139,-10,o),
(243,-10,cs)
);
}
);
width = 496;
},
{
anchors = (
{
name = bottom;
pos = (242,0);
},
{
name = top;
pos = (242,470);
}
);
associatedMasterId = m01;
layerId = "ED4A8F5A-5D40-4882-8BEF-1E7F669F0D1B";
name = "10 mai 24 à 16:25";
shapes = (
{
closed = 1;
nodes = (
(339,-10,o),
(436,41,o),
(436,130,cs),
(436,210,o),
(358,254,o),
(279,277,cs),
(234,290,ls),
(193,302,o),
(172,322,o),
(172,345,cs),
(172,373,o),
(201,400,o),
(238,400,cs),
(284,400,o),
(321,355,o),
(321,324,c),
(444,341,l),
(432,386,o),
(397,480,o),
(237,480,cs),
(119,480,o),
(51,410,o),
(51,338,cs),
(51,278,o),
(102,227,o),
(194,195,cs),
(231,182,ls),
(286,163,o),
(313,143,o),
(313,118,cs),
(313,93,o),
(285,71,o),
(237,71,cs),
(203,71,o),
(171,97,o),
(171,157,c),
(40,141,l),
(42,39,o),
(155,-10,o),
(237,-10,cs)
);
}
);
width = 484;
},
{
anchors = (
{
name = bottom;
pos = (240,0);
},
{
name = top;
pos = (240,470);
}
);
associatedMasterId = m002;
guides = (
{
pos = (435,71);
},
{
angle = 90;
pos = (236,400);
},
{
angle = 90;
pos = (297,18);
}
);
layerId = "F953CB40-A0A7-4159-A404-5F9EF2D8C7D5";
name = "18 juin 24 à 10:24";
shapes = (
{
closed = 1;
nodes = (
(342,-10,o),
(427,41,o),
(427,130,cs),
(427,214,o),
(362,254,o),
(287,277,cs),
(241,291,ls),
(199,304,o),
(178,324,o),
(178,349,cs),
(178,374,o),
(198,400,o),
(236,400,cs),
(282,400,o),
(305,365,o),
(305,324,c),
(428,341,l),
(428,390,o),
(375,480,o),
(235,480,cs),
(115,480,o),
(46,421,o),
(46,338,cs),
(46,278,o),
(82,226,o),
(199,187,cs),
(244,172,ls),
(280,160,o),
(297,145,o),
(297,122,cs),
(297,95,o),
(275,71,o),
(236,71,cs),
(192,71,o),
(157,106,o),
(157,157,c),
(36,141,l),
(38,39,o),
(131,-10,o),
(235,-10,cs)
);
}
);
width = 464;
},
{
anchors = (
{
name = bottom;
pos = (223,0);
},
{
name = top;
pos = (223,470);
}
);
associatedMasterId = m01;
guides = (
{
angle = 90;
pos = (390,30);
}
);
layerId = "565C26A4-85D8-4083-9893-29F81CD6EF08";
name = "18 juin 24 à 10:24";
shapes = (
{
closed = 1;
nodes = (
(336,-10,o),
(394,57,o),
(394,132,cs),
(394,193,o),
(356,250,o),
(268,277,cs),
(222,291,ls),
(175,305,o),
(152,324,o),
(152,349,cs),
(152,374,o),
(173,400,o),
(217,400,cs),
(263,400,o),
(286,365,o),
(286,324,c),
(393,338,l),
(393,400,o),
(351,480,o),
(216,480,cs),
(89,480,o),
(38,413,o),
(38,341,cs),
(38,285,o),
(69,223,o),
(180,189,cs),
(225,175,ls),
(262,164,o),
(280,145,o),
(280,122,cs),
(280,95,o),
(257,71,o),
(217,71,cs),
(168,71,o),
(133,106,o),
(133,157,c),
(26,143,l),
(28,41,o),
(107,-10,o),
(216,-10,cs)
);
}
);
width = 420;
}
);
unicode = 115;
},
{
color = 4;
glyphname = germandbls;
lastChange = "2024-06-19 06:24:49 +0000";
layers = (
{
guides = (
{
pos = (332,630);
}
);
layerId = m01;
shapes = (
{
closed = 1;
nodes = (
(188,0,l),
(188,535,l),
(76,535,l),
(76,0,l)
);
},
{
closed = 1;
nodes = (
(188,380,l),
(188,470,l),
(16,470,l),
(16,380,l)
);
},
{
closed = 1;
nodes = (
(188,535,l),
(188,599,o),
(208,630,o),
(247,630,cs),
(277,630,o),
(299,605,o),
(299,555,cs),
(299,511,o),
(277,470,o),
(248,470,c),
(248,390,l),
(336,390,o),
(409,436,o),
(409,555,cs),
(409,686,o),
(321,720,o),
(235,720,cs),
(155,720,o),
(76,694,o),
(76,535,c)
);
},
{
closed = 1;
nodes = (
(248,390,l),
(292,390,o),
(338,352,o),
(338,245,cs),
(338,140,o),
(294,124,o),
(248,124,c),
(248,0,l),
(387,0,o),
(458,91,o),
(458,245,cs),
(458,419,o),
(365,470,o),
(248,470,c)
);
}
);
width = 482;
},
{
layerId = m002;
shapes = (
{
closed = 1;
nodes = (
(212,0,l),
(212,545,l),
(80,545,l),
(80,0,l)
);
},
{
closed = 1;
nodes = (
(192,380,l),
(192,470,l),
(20,470,l),
(20,380,l)
);
},
{
closed = 1;
nodes = (
(212,545,l),
(212,595,o),
(241,630,o),
(274,630,cs),
(306,630,o),
(333,605,o),
(333,555,cs),
(333,510,o),
(311,470,o),
(282,470,c),
(282,390,l),
(370,390,o),
(447,436,o),
(447,555,cs),
(447,686,o),
(353,720,o),
(264,720,cs),
(169,720,o),
(80,676,o),
(80,545,c)
);
},
{
closed = 1;
nodes = (
(282,390,l),
(326,390,o),
(372,352,o),
(372,245,cs),
(372,140,o),
(328,124,o),
(282,124,c),
(282,0,l),
(421,0,o),
(496,91,o),
(496,245,cs),
(496,419,o),
(399,470,o),
(282,470,c)
);
}
);
width = 532;
}
);
metricLeft = t;
metricRight = o;
unicode = 223;
},
{
color = 4;
glyphname = t;
kernLeft = t;
lastChange = "2024-06-19 07:34:54 +0000";
layers = (
{
anchors = (
{
name = bottom;
pos = (224,0);
},
{
name = center;
pos = (182,235);
},
{
name = top;
pos = (182,470);
},
{
name = topright;
pos = (354,720);
}
);
guides = (
{
angle = 180;
pos = (168,470);
},
{
angle = 180;
pos = (386,700);
}
);
layerId = m01;
shapes = (
{
closed = 1;
nodes = (
(218,138,l),
(218,720,l),
(106,720,l),
(106,138,l)
);
},
{
closed = 1;
nodes = (
(308,0,l),
(308,90,l),
(254,90,ls),
(229,90,o),
(218,105,o),
(218,138,c),
(106,138,l),
(106,31,o),
(141,0,o),
(244,0,cs)
);
},
{
closed = 1;
nodes = (
(308,380,l),
(308,470,l),
(16,470,l),
(16,380,l)
);
}
);
width = 328;
},
{
anchors = (
{
name = bottom;
pos = (258,0);
},
{
name = center;
pos = (206,235);
},
{
name = top;
pos = (186,700);
},
{
name = topright;
pos = (408,720);
}
);
guides = (
{
angle = 180;
pos = (182,470);
},
{
angle = 180;
pos = (400,700);
}
);
layerId = m002;
shapes = (
{
closed = 1;
nodes = (
(252,138,l),
(252,720,l),
(120,720,l),
(120,138,l)
);
},
{
closed = 1;
nodes = (
(352,0,l),
(352,90,l),
(300,90,ls),
(270,90,o),
(252,108,o),
(252,138,c),
(120,138,l),
(120,36,o),
(155,0,o),
(258,0,cs)
);
},
{
closed = 1;
nodes = (
(352,380,l),
(352,470,l),
(20,470,l),
(20,380,l)
);
}
);
width = 378;
}
);
metricLeft = f;
unicode = 116;
},
{
color = 4;
glyphname = u;
kernLeft = u;
kernRight = u;
lastChange = "2024-06-19 07:30:30 +0000";
layers = (
{
anchors = (
{
name = bottom;
pos = (226,0);
},
{
name = ogonek;
pos = (410,10);
},
{
name = top;
pos = (226,470);
},
{
name = topright;
pos = (436,470);
}
);
layerId = m01;
shapes = (
{
closed = 1;
nodes = (
(46,470,l),
(46,148,ls),
(46,31,o),
(120,-8,o),
(195,-8,cs),
(271,-8,o),
(305,52,o),
(321,108,c),
(305,221,l),
(294,221,l),
(294,112,o),
(265,72,o),
(218,72,cs),
(189,72,o),
(150,97,o),
(153,169,cs),
(158,273,l),
(158,470,l)
);
},
{
closed = 1;
nodes = (
(294,470,l),
(294,0,l),
(406,0,l),
(406,470,l)
);
}
);
width = 452;
},
{
anchors = (
{
name = bottom;
pos = (252,0);
},
{
name = ogonek;
pos = (458,10);
},
{
name = top;
pos = (252,470);
},
{
name = topright;
pos = (490,470);
}
);
layerId = m002;
shapes = (
{
closed = 1;
nodes = (
(50,470,l),
(50,148,ls),
(50,31,o),
(114,-8,o),
(189,-8,cs),
(265,-8,o),
(323,32,o),
(369,108,c),
(333,221,l),
(322,221,l),
(322,112,o),
(294,72,o),
(242,72,cs),
(201,72,o),
(174,97,o),
(177,169,cs),
(182,273,l),
(182,470,l)
);
},
{
closed = 1;
nodes = (
(322,470,l),
(322,0,l),
(454,0,l),
(454,470,l)
);
}
);
width = 504;
},
{
anchors = (
{
name = bottom;
pos = (236,0);
},
{
name = ogonek;
pos = (425,10);
},
{
name = top;
pos = (236,470);
},
{
name = topright;
pos = (452,470);
}
);
associatedMasterId = m002;
layerId = "590D0CD8-CD7D-4282-9102-4310D6DECAD6";
name = "30 avr. 24 à 15:47";
shapes = (
{
closed = 1;
nodes = (
(224,-8,o),
(246,-1,o),
(267,10,c),
(315,85,l),
(315,221,l),
(304,221,l),
(304,112,o),
(282,72,o),
(224,72,cs),
(183,72,o),
(158,97,o),
(162,169,cs),
(168,273,l),
(168,470,l),
(56,470,l),
(56,120,ls),
(56,36,o),
(127,-8,o),
(197,-8,cs)
);
},
{
closed = 1;
nodes = (
(416,0,l),
(416,470,l),
(304,470,l),
(304,0,l)
);
}
);
width = 472;
},
{
anchors = (
{
name = bottom;
pos = (230,0);
},
{
name = ogonek;
pos = (414,10);
},
{
name = top;
pos = (230,470);
},
{
name = topright;
pos = (440,470);
}
);
associatedMasterId = m01;
layerId = "C74A380F-8297-45C4-A2FA-18F5C3BD50AD";
name = "30 avr. 24 à 15:47";
shapes = (
{
closed = 1;
nodes = (
(218,-8,o),
(240,-1,o),
(261,10,c),
(309,85,l),
(309,221,l),
(298,221,l),
(298,112,o),
(276,72,o),
(218,72,cs),
(177,72,o),
(152,97,o),
(156,169,cs),
(162,273,l),
(162,470,l),
(50,470,l),
(50,120,ls),
(50,36,o),
(121,-8,o),
(191,-8,cs)
);
},
{
closed = 1;
nodes = (
(410,0,l),
(410,470,l),
(298,470,l),
(298,0,l)
);
}
);
width = 460;
}
);
metricLeft = n;
metricRight = n;
unicode = 117;
},
{
color = 4;
glyphname = uogonek;
kernLeft = u;
kernRight = u;
lastChange = "2024-06-19 05:47:24 +0000";
layers = (
{
layerId = m01;
shapes = (
{
closed = 1;
nodes = (
(46,470,l),
(46,148,ls),
(46,31,o),
(120,-8,o),
(195,-8,cs),
(271,-8,o),
(305,52,o),
(321,108,c),
(305,221,l),
(294,221,l),
(294,112,o),
(265,72,o),
(218,72,cs),
(189,72,o),
(150,97,o),
(153,169,cs),
(158,273,l),
(158,470,l)
);
},
{
closed = 1;
nodes = (
(294,470,l),
(294,0,l),
(406,0,l),
(406,470,l)
);
},
{
closed = 1;
nodes = (
(437,-240,l),
(437,-150,l),
(389,-150,ls),
(371,-150,o),
(367,-140,o),
(372,-123,cs),
(406,0,l),
(347,38,l),
(298,-135,ls),
(293,-153,o),
(290,-168,o),
(290,-182,cs),
(290,-221,o),
(313,-240,o),
(365,-240,cs)
);
}
);
width = 452;
},
{
layerId = m002;
shapes = (
{
closed = 1;
nodes = (
(50,470,l),
(50,148,ls),
(50,31,o),
(114,-8,o),
(189,-8,cs),
(265,-8,o),
(323,32,o),
(369,108,c),
(333,221,l),
(322,221,l),
(322,112,o),
(294,72,o),
(242,72,cs),
(201,72,o),
(174,97,o),
(177,169,cs),
(182,273,l),
(182,470,l)
);
},
{
closed = 1;
nodes = (
(322,470,l),
(322,0,l),
(454,0,l),
(454,470,l)
);
},
{
closed = 1;
nodes = (
(480,-240,l),
(480,-150,l),
(422,-150,ls),
(404,-150,o),
(398,-140,o),
(405,-123,cs),
(454,0,l),
(400,38,l),
(331,-135,ls),
(324,-153,o),
(320,-169,o),
(320,-183,cs),
(320,-221,o),
(347,-240,o),
(398,-240,cs)
);
}
);
width = 504;
}
);
unicode = 371;
},
{
color = 4;
glyphname = v;
kernLeft = v;
kernRight = v;
lastChange = "2024-06-19 07:29:11 +0000";
layers = (
{
anchors = (
{
name = bottom;
pos = (211,0);
},
{
name = top;
pos = (211,470);
}
);
layerId = m01;
shapes = (
{
closed = 1;
nodes = (
(227,0,l),
(129,470,l),
(10,470,l),
(108,0,l)
);
},
{
closed = 1;
nodes = (
(313,0,l),
(411,470,l),
(301,470,l),
(203,0,l)
);
}
);
width = 421;
},
{
anchors = (
{
name = bottom;
pos = (223,0);
},
{
name = top;
pos = (223,470);
}
);
layerId = m002;
shapes = (
{
closed = 1;
nodes = (
(239,0,l),
(148,470,l),
(20,470,l),
(111,0,l)
);
},
{
closed = 1;
nodes = (
(333,0,l),
(423,470,l),
(305,470,l),
(215,0,l)
);
}
);
width = 443;
}
);
unicode = 118;
},
{
color = 4;
glyphname = w;
kernLeft = w;
kernRight = w;
lastChange = "2024-06-19 07:11:29 +0000";
layers = (
{
anchors = (
{
name = bottom;
pos = (316,0);
},
{
name = top;
pos = (316,470);
}
);
layerId = m01;
shapes = (
{
closed = 1;
nodes = (
(198,0,l),
(120,470,l),
(10,470,l),
(88,0,l)
);
},
{
closed = 1;
nodes = (
(258,0,l),
(336,470,l),
(257,470,l),
(179,0,l)
);
},
{
closed = 1;
nodes = (
(464,0,l),
(386,470,l),
(305,470,l),
(383,0,l)
);
},
{
closed = 1;
nodes = (
(544,0,l),
(622,470,l),
(523,470,l),
(445,0,l)
);
}
);
width = 632;
},
{
anchors = (
{
name = bottom;
pos = (336,0);
},
{
name = top;
pos = (336,470);
}
);
layerId = m002;
shapes = (
{
closed = 1;
nodes = (
(208,0,l),
(140,470,l),
(20,470,l),
(88,0,l)
);
},
{
closed = 1;
nodes = (
(278,0,l),
(346,470,l),
(257,470,l),
(189,0,l)
);
},
{
closed = 1;
nodes = (
(494,0,l),
(416,470,l),
(315,470,l),
(393,0,l)
);
},
{
closed = 1;
nodes = (
(584,0,l),
(652,470,l),
(543,470,l),
(475,0,l)
);
}
);
width = 672;
}
);
metricLeft = v;
metricRight = v;
unicode = 119;
},
{
color = 4;
glyphname = x;
kernLeft = x;
kernRight = x;
lastChange = "2024-06-19 07:39:12 +0000";
layers = (
{
layerId = m01;
shapes = (
{
closed = 1;
nodes = (
(378,0,l),
(130,470,l),
(10,470,l),
(258,0,l)
);
},
{
closed = 1;
nodes = (
(99,0,l),
(206,270,l),
(117,270,l),
(10,0,l)
);
},
{
closed = 1;
nodes = (
(271,200,l),
(378,470,l),
(289,470,l),
(182,200,l)
);
}
);
width = 388;
},
{
layerId = m002;
shapes = (
{
closed = 1;
nodes = (
(424,0,l),
(156,470,l),
(16,470,l),
(284,0,l)
);
},
{
closed = 1;
nodes = (
(125,0,l),
(252,270,l),
(143,270,l),
(16,0,l)
);
},
{
closed = 1;
nodes = (
(297,200,l),
(424,470,l),
(315,470,l),
(188,200,l)
);
}
);
width = 440;
}
);
unicode = 120;
},
{
color = 4;
glyphname = y;
kernLeft = v;
kernRight = v;
lastChange = "2024-06-19 07:36:02 +0000";
layers = (
{
anchors = (
{
name = bottom;
pos = (211,0);
},
{
name = top;
pos = (211,470);
}
);
layerId = m01;
shapes = (
{
closed = 1;
nodes = (
(259,-240,l),
(411,470,l),
(301,470,l),
(149,-240,l)
);
},
{
closed = 1;
nodes = (
(236,-44,l),
(129,470,l),
(10,470,l),
(117,-44,l)
);
}
);
width = 421;
},
{
associatedMasterId = m01;
layerId = "D87944A7-7657-4159-9E94-880E0CBA2153";
name = "19 janv. 24 à 11:34";
shapes = (
{
closed = 1;
nodes = (
(155,0,l),
(277,0,l),
(142,470,l),
(20,470,l)
);
},
{
closed = 1;
nodes = (
(340,470,l),
(137,-240,l),
(257,-240,l),
(460,470,l)
);
}
);
width = 480;
},
{
anchors = (
{
name = bottom;
pos = (211,0);
},
{
name = top;
pos = (211,470);
}
);
layerId = m002;
shapes = (
{
closed = 1;
nodes = (
(259,-240,l),
(411,470,l),
(301,470,l),
(149,-240,l)
);
},
{
closed = 1;
nodes = (
(236,-44,l),
(129,470,l),
(10,470,l),
(117,-44,l)
);
}
);
width = 421;
}
);
unicode = 121;
},
{
color = 4;
glyphname = z;
kernLeft = z;
kernRight = z;
lastChange = "2024-06-19 07:29:35 +0000";
layers = (
{
anchors = (
{
name = bottom;
pos = (188,0);
},
{
name = center;
pos = (188,235);
},
{
name = top;
pos = (188,470);
}
);
layerId = m01;
shapes = (
{
closed = 1;
nodes = (
(160,90,l),
(335,380,l),
(215,380,l),
(40,90,l)
);
},
{
closed = 1;
nodes = (
(345,0,l),
(345,90,l),
(40,90,l),
(40,0,l)
);
},
{
closed = 1;
nodes = (
(335,380,l),
(335,470,l),
(30,470,l),
(30,380,l)
);
}
);
width = 375;
},
{
anchors = (
{
name = bottom;
pos = (204,0);
},
{
name = center;
pos = (204,235);
},
{
name = top;
pos = (204,470);
}
);
layerId = m002;
shapes = (
{
closed = 1;
nodes = (
(186,90,l),
(361,380,l),
(221,380,l),
(46,90,l)
);
},
{
closed = 1;
nodes = (
(371,0,l),
(371,90,l),
(46,90,l),
(46,0,l)
);
},
{
closed = 1;
nodes = (
(361,380,l),
(361,470,l),
(36,470,l),
(36,380,l)
);
}
);
width = 407;
}
);
unicode = 122;
},
{
color = 4;
glyphname = saltillo;
lastChange = "2024-06-17 08:47:25 +0000";
layers = (
{
layerId = m01;
shapes = (
{
closed = 1;
nodes = (
(124,470,l),
(128,700,l),
(28,700,l),
(32,470,l)
);
}
);
width = 156;
},
{
layerId = m002;
shapes = (
{
closed = 1;
nodes = (
(154,470,l),
(158,700,l),
(38,700,l),
(42,470,l)
);
}
);
width = 196;
}
);
unicode = 42892;
},
{
color = 4;
glyphname = zero;
lastChange = "2024-06-17 15:07:55 +0000";
layers = (
{
layerId = m01;
shapes = (
{
closed = 1;
nodes = (
(332,220,ls),
(332,98,o),
(292,70,o),
(246,70,cs),
(200,70,o),
(160,98,o),
(160,220,cs),
(160,480,ls),
(160,602,o),
(200,630,o),
(246,630,cs),
(292,630,o),
(332,602,o),
(332,480,cs)
);
},
{
closed = 1;
nodes = (
(40,41,o),
(127,-10,o),
(246,-10,cs),
(365,-10,o),
(452,41,o),
(452,220,cs),
(452,480,ls),
(452,659,o),
(365,710,o),
(246,710,cs),
(127,710,o),
(40,659,o),
(40,480,cs),
(40,220,ls)
);
},
{
closed = 1;
nodes = (
(292,300,l),
(292,400,l),
(200,400,l),
(200,300,l)
);
}
);
width = 492;
},
{
layerId = m002;
shapes = (
{
closed = 1;
nodes = (
(352,220,ls),
(352,98,o),
(312,70,o),
(261,70,cs),
(210,70,o),
(170,98,o),
(170,220,cs),
(170,480,ls),
(170,602,o),
(210,630,o),
(261,630,cs),
(312,630,o),
(352,602,o),
(352,480,cs)
);
},
{
closed = 1;
nodes = (
(30,41,o),
(137,-10,o),
(261,-10,cs),
(385,-10,o),
(492,41,o),
(492,220,cs),
(492,480,ls),
(492,659,o),
(385,710,o),
(261,710,cs),
(137,710,o),
(30,659,o),
(30,480,cs),
(30,220,ls)
);
},
{
closed = 1;
nodes = (
(309,300,l),
(309,400,l),
(213,400,l),
(213,300,l)
);
}
);
width = 522;
},
{
associatedMasterId = m01;
layerId = "A9A01F33-9CED-4E37-8379-53A7C7A7EBB9";
name = "15 juin 24 à 12:57";
shapes = (
{
closed = 1;
nodes = (
(123,710,o),
(26,639,o),
(26,350,cs),
(26,81,o),
(101,-10,o),
(240,-10,c),
(240,70,l),
(194,70,o),
(160,116,o),
(160,350,cs),
(160,582,o),
(196,630,o),
(240,630,c),
(240,710,l)
);
},
{
closed = 1;
nodes = (
(240,630,l),
(284,630,o),
(320,582,o),
(320,350,cs),
(320,116,o),
(286,70,o),
(240,70,c),
(240,-10,l),
(379,-10,o),
(454,81,o),
(454,350,cs),
(454,639,o),
(357,710,o),
(240,710,c)
);
},
{
closed = 1;
nodes = (
(394,255,l),
(394,345,l),
(86,445,l),
(86,355,l)
);
}
);
width = 480;
},
{
associatedMasterId = m01;
layerId = "24A77407-07FE-4522-992C-268C7F690DBB";
name = "15 juin 24 à 12:58";
shapes = (
{
closed = 1;
nodes = (
(394,255,l),
(394,345,l),
(86,445,l),
(86,355,l)
);
},
{
closed = 1;
nodes = (
(401,-10,o),
(452,38,o),
(452,132,cs),
(452,568,ls),
(452,662,o),
(401,710,o),
(251,710,cs),
(102,710,o),
(50,662,o),
(50,569,cs),
(50,132,ls),
(50,38,o),
(101,-10,o),
(251,-10,cs)
);
},
{
closed = 1;
nodes = (
(201,70,o),
(170,85,o),
(170,132,cs),
(170,568,ls),
(170,615,o),
(201,630,o),
(251,630,cs),
(301,630,o),
(332,615,o),
(332,568,cs),
(332,132,ls),
(332,85,o),
(301,70,o),
(251,70,cs)
);
}
);
width = 502;
},
{
associatedMasterId = m002;
layerId = "21FB6306-512C-4D61-AB3E-B1064D137F2A";
name = "15 juin 24 à 13:03";
shapes = (
{
closed = 1;
nodes = (
(143,710,o),
(36,639,o),
(36,350,cs),
(36,81,o),
(121,-10,o),
(260,-10,c),
(260,70,l),
(214,70,o),
(180,116,o),
(180,350,cs),
(180,582,o),
(216,630,o),
(260,630,c),
(260,710,l)
);
},
{
closed = 1;
nodes = (
(260,630,l),
(304,630,o),
(340,582,o),
(340,350,cs),
(340,116,o),
(306,70,o),
(260,70,c),
(260,-10,l),
(399,-10,o),
(484,81,o),
(484,350,cs),
(484,639,o),
(377,710,o),
(260,710,c)
);
},
{
closed = 1;
nodes = (
(424,255,l),
(424,345,l),
(96,445,l),
(96,355,l)
);
}
);
width = 520;
},
{
associatedMasterId = m002;
layerId = "38FF8823-679D-4687-86AC-E964FF208BAA";
name = "17 juin 24 à 13:29";
shapes = (
{
closed = 1;
nodes = (
(428,255,l),
(428,345,l),
(100,445,l),
(100,355,l)
);
},
{
closed = 1;
nodes = (
(348,220,ls),
(348,98,o),
(308,70,o),
(264,70,cs),
(220,70,o),
(180,98,o),
(180,220,cs),
(180,480,ls),
(180,602,o),
(220,630,o),
(264,630,cs),
(308,630,o),
(348,602,o),
(348,480,cs)
);
},
{
closed = 1;
nodes = (
(40,41,o),
(147,-10,o),
(264,-10,cs),
(381,-10,o),
(488,41,o),
(488,220,cs),
(488,480,ls),
(488,659,o),
(381,710,o),
(264,710,cs),
(147,710,o),
(40,659,o),
(40,480,cs),
(40,220,ls)
);
}
);
width = 528;
},
{
associatedMasterId = m01;
layerId = "33EA3992-B345-4F4E-BE9C-709D607DBB52";
name = "17 juin 24 à 13:29";
shapes = (
{
closed = 1;
nodes = (
(398,255,l),
(398,345,l),
(90,445,l),
(90,355,l)
);
},
{
closed = 1;
nodes = (
(328,220,ls),
(328,98,o),
(288,70,o),
(244,70,cs),
(200,70,o),
(160,98,o),
(160,220,cs),
(160,480,ls),
(160,602,o),
(200,630,o),
(244,630,cs),
(288,630,o),
(328,602,o),
(328,480,cs)
);
},
{
closed = 1;
nodes = (
(40,41,o),
(127,-10,o),
(244,-10,cs),
(361,-10,o),
(448,41,o),
(448,220,cs),
(448,480,ls),
(448,659,o),
(361,710,o),
(244,710,cs),
(127,710,o),
(40,659,o),
(40,480,cs),
(40,220,ls)
);
}
);
width = 488;
}
);
unicode = 48;
},
{
color = 4;
glyphname = one;
kernLeft = one;
lastChange = "2024-06-17 15:07:55 +0000";
layers = (
{
layerId = m01;
shapes = (
{
closed = 1;
nodes = (
(121,390,l),
(205,700,l),
(95,700,l),
(16,407,l)
);
},
{
closed = 1;
nodes = (
(303,0,l),
(303,700,l),
(183,700,l),
(183,0,l)
);
}
);
width = 363;
},
{
layerId = m002;
shapes = (
{
closed = 1;
nodes = (
(121,346,l),
(206,700,l),
(86,700,l),
(6,368,l)
);
},
{
closed = 1;
nodes = (
(332,0,l),
(332,700,l),
(192,700,l),
(192,0,l)
);
}
);
width = 398;
}
);
metricRight = H;
unicode = 49;
},
{
color = 4;
glyphname = two;
lastChange = "2024-06-17 15:07:55 +0000";
layers = (
{
layerId = m01;
shapes = (
{
closed = 1;
nodes = (
(423,0,l),
(423,90,l),
(36,90,l),
(36,0,l)
);
},
{
closed = 1;
nodes = (
(423,568,l),
(423,662,o),
(372,710,o),
(232,710,c),
(232,630,l),
(282,630,o),
(303,615,o),
(303,568,c)
);
},
{
closed = 1;
nodes = (
(161,568,l),
(161,615,o),
(192,630,o),
(232,630,c),
(232,710,l),
(92,710,o),
(41,662,o),
(41,568,c)
);
},
{
closed = 1;
nodes = (
(161,470,l),
(161,568,l),
(41,568,l),
(41,470,l)
);
},
{
closed = 1;
nodes = (
(303,423,o),
(282,410,o),
(239,379,cs),
(197,349,ls),
(75,262,o),
(36,248,o),
(36,154,cs),
(36,66,l),
(156,66,l),
(156,154,ls),
(156,201,o),
(187,214,o),
(230,245,cs),
(272,275,ls),
(384,355,o),
(423,376,o),
(423,470,cs),
(423,568,l),
(303,568,l),
(303,470,ls)
);
}
);
width = 453;
},
{
guides = (
{
pos = (417,568);
}
);
layerId = m002;
shapes = (
{
closed = 1;
nodes = (
(487,0,l),
(487,90,l),
(40,90,l),
(40,0,l)
);
},
{
closed = 1;
nodes = (
(487,568,l),
(487,662,o),
(436,710,o),
(266,710,c),
(266,630,l),
(316,630,o),
(347,615,o),
(347,568,c)
);
},
{
closed = 1;
nodes = (
(185,568,l),
(185,615,o),
(216,630,o),
(266,630,c),
(266,710,l),
(96,710,o),
(45,662,o),
(45,568,c)
);
},
{
closed = 1;
nodes = (
(185,470,l),
(185,568,l),
(45,568,l),
(45,470,l)
);
},
{
closed = 1;
nodes = (
(347,423,o),
(322,399,o),
(273,379,cs),
(201,349,ls),
(63,291,o),
(40,248,o),
(40,154,cs),
(40,66,l),
(180,66,l),
(180,154,ls),
(180,201,o),
(205,224,o),
(254,245,cs),
(326,275,ls),
(461,331,o),
(487,376,o),
(487,470,cs),
(487,568,l),
(347,568,l),
(347,470,ls)
);
}
);
width = 527;
},
{
associatedMasterId = m002;
guides = (
{
pos = (413,568);
}
);
layerId = "1CF0B239-E945-4003-83AE-825D74CF7863";
name = "30 avr. 24 à 14:29";
shapes = (
{
closed = 1;
nodes = (
(482,0,l),
(482,90,l),
(41,90,l),
(41,0,l)
);
},
{
closed = 1;
nodes = (
(483,568,l),
(483,662,o),
(432,710,o),
(262,710,c),
(262,630,l),
(312,630,o),
(343,615,o),
(343,568,c)
);
},
{
closed = 1;
nodes = (
(181,32,l),
(181,238,l),
(41,238,l),
(41,32,l)
);
},
{
closed = 1;
nodes = (
(181,568,l),
(181,615,o),
(212,630,o),
(262,630,c),
(262,710,l),
(92,710,o),
(41,662,o),
(41,568,c)
);
},
{
closed = 1;
nodes = (
(483,442,l),
(483,568,l),
(343,568,l),
(343,442,l)
);
},
{
closed = 1;
nodes = (
(181,470,l),
(181,568,l),
(41,568,l),
(41,470,l)
);
},
{
closed = 1;
nodes = (
(343,395,o),
(312,380,o),
(262,380,c),
(262,300,l),
(432,300,o),
(483,348,o),
(483,442,c),
(343,442,l)
);
},
{
closed = 1;
nodes = (
(181,238,l),
(181,285,o),
(212,300,o),
(262,300,c),
(262,380,l),
(92,380,o),
(41,332,o),
(41,238,c)
);
}
);
width = 509;
},
{
associatedMasterId = m01;
layerId = "A0274D2E-11D4-4B7A-B6B7-42E44278C444";
name = "30 avr. 24 à 17:47";
shapes = (
{
closed = 1;
nodes = (
(437,0,l),
(437,90,l),
(30,90,l),
(30,0,l)
);
},
{
closed = 1;
nodes = (
(437,568,l),
(437,662,o),
(386,710,o),
(236,710,c),
(236,630,l),
(286,630,o),
(317,615,o),
(317,568,c)
);
},
{
closed = 1;
nodes = (
(155,568,l),
(155,615,o),
(186,630,o),
(236,630,c),
(236,710,l),
(86,710,o),
(35,662,o),
(35,568,c)
);
},
{
closed = 1;
nodes = (
(155,470,l),
(155,568,l),
(35,568,l),
(35,470,l)
);
},
{
closed = 1;
nodes = (
(317,423,o),
(289,406,o),
(243,379,cs),
(191,349,ls),
(61,274,o),
(30,248,o),
(30,154,cs),
(30,66,l),
(150,66,l),
(150,154,ls),
(150,201,o),
(178,218,o),
(224,245,cs),
(276,275,ls),
(403,348,o),
(437,376,o),
(437,470,cs),
(437,568,l),
(317,568,l),
(317,470,ls)
);
}
);
width = 467;
}
);
unicode = 50;
},
{
color = 4;
glyphname = three;
lastChange = "2024-06-17 15:07:55 +0000";
layers = (
{
layerId = m01;
shapes = (
{
closed = 1;
nodes = (
(433,570,l),
(433,664,o),
(382,710,o),
(242,710,c),
(242,630,l),
(282,630,o),
(313,617,o),
(313,570,c)
);
},
{
closed = 1;
nodes = (
(242,70,l),
(202,70,o),
(156,85,o),
(156,132,c),
(36,132,l),
(36,38,o),
(102,-10,o),
(242,-10,c)
);
},
{
closed = 1;
nodes = (
(156,132,l),
(156,268,l),
(36,269,l),
(36,132,l)
);
},
{
closed = 1;
nodes = (
(171,570,l),
(171,617,o),
(202,630,o),
(242,630,c),
(242,710,l),
(102,710,o),
(51,664,o),
(51,570,c)
);
},
{
closed = 1;
nodes = (
(433,470,l),
(433,570,l),
(313,570,l),
(313,470,l)
);
},
{
closed = 1;
nodes = (
(171,470,l),
(171,570,l),
(51,570,l),
(51,470,l)
);
},
{
closed = 1;
nodes = (
(313,470,l),
(313,423,o),
(282,420,o),
(242,420,c),
(242,370,l),
(382,370,o),
(433,376,o),
(433,470,c)
);
},
{
closed = 1;
nodes = (
(382,-10,o),
(448,38,o),
(448,132,c),
(328,132,l),
(328,85,o),
(282,70,o),
(242,70,c),
(242,-10,l)
);
},
{
closed = 1;
nodes = (
(448,268,l),
(328,268,l),
(328,132,l),
(448,132,l)
);
},
{
closed = 1;
nodes = (
(242,330,l),
(282,330,o),
(328,315,o),
(328,268,c),
(448,268,l),
(448,362,o),
(382,390,o),
(242,390,c)
);
},
{
closed = 1;
nodes = (
(273,330,l),
(273,420,l),
(153,420,l),
(153,330,l)
);
}
);
width = 478;
},
{
layerId = m002;
shapes = (
{
closed = 1;
nodes = (
(497,568,l),
(497,662,o),
(446,710,o),
(276,710,c),
(276,630,l),
(326,630,o),
(357,615,o),
(357,568,c)
);
},
{
closed = 1;
nodes = (
(276,70,l),
(226,70,o),
(180,85,o),
(180,132,c),
(40,132,l),
(40,38,o),
(106,-10,o),
(276,-10,c)
);
},
{
closed = 1;
nodes = (
(180,132,l),
(180,250,l),
(40,251,l),
(40,132,l)
);
},
{
closed = 1;
nodes = (
(195,568,l),
(195,615,o),
(226,630,o),
(276,630,c),
(276,710,l),
(106,710,o),
(55,662,o),
(55,568,c)
);
},
{
closed = 1;
nodes = (
(497,470,l),
(497,568,l),
(357,568,l),
(357,470,l)
);
},
{
closed = 1;
nodes = (
(195,470,l),
(195,568,l),
(55,569,l),
(55,470,l)
);
},
{
closed = 1;
nodes = (
(357,470,l),
(357,423,o),
(326,410,o),
(276,410,c),
(276,350,l),
(446,350,o),
(497,376,o),
(497,470,c)
);
},
{
closed = 1;
nodes = (
(446,-10,o),
(512,38,o),
(512,132,c),
(372,132,l),
(372,85,o),
(326,70,o),
(276,70,c),
(276,-10,l)
);
},
{
closed = 1;
nodes = (
(512,269,l),
(372,268,l),
(372,132,l),
(512,132,l)
);
},
{
closed = 1;
nodes = (
(276,320,l),
(326,320,o),
(372,315,o),
(372,268,c),
(512,268,l),
(512,362,o),
(446,370,o),
(276,370,c)
);
},
{
closed = 1;
nodes = (
(287,320,l),
(287,410,l),
(167,410,l),
(167,320,l)
);
}
);
width = 552;
},
{
associatedMasterId = m01;
layerId = "A83DF074-0FA9-4D6C-B953-D2BA917F5552";
name = "30 avr. 24 à 17:47";
shapes = (
{
closed = 1;
nodes = (
(447,568,l),
(447,662,o),
(396,710,o),
(246,710,c),
(246,630,l),
(296,630,o),
(327,615,o),
(327,568,c)
);
},
{
closed = 1;
nodes = (
(246,70,l),
(196,70,o),
(150,85,o),
(150,132,c),
(30,132,l),
(30,38,o),
(96,-10,o),
(246,-10,c)
);
},
{
closed = 1;
nodes = (
(150,132,l),
(150,268,l),
(30,269,l),
(30,132,l)
);
},
{
closed = 1;
nodes = (
(165,568,l),
(165,615,o),
(196,630,o),
(246,630,c),
(246,710,l),
(96,710,o),
(45,662,o),
(45,568,c)
);
},
{
closed = 1;
nodes = (
(447,470,l),
(447,568,l),
(327,568,l),
(327,470,l)
);
},
{
closed = 1;
nodes = (
(165,470,l),
(165,568,l),
(45,569,l),
(45,470,l)
);
},
{
closed = 1;
nodes = (
(327,470,l),
(327,423,o),
(296,420,o),
(246,420,c),
(246,370,l),
(396,370,o),
(447,376,o),
(447,470,c)
);
},
{
closed = 1;
nodes = (
(396,-10,o),
(462,38,o),
(462,132,c),
(342,132,l),
(342,85,o),
(296,70,o),
(246,70,c),
(246,-10,l)
);
},
{
closed = 1;
nodes = (
(462,268,l),
(342,268,l),
(342,132,l),
(462,132,l)
);
},
{
closed = 1;
nodes = (
(246,330,l),
(296,330,o),
(342,315,o),
(342,268,c),
(462,268,l),
(462,362,o),
(396,390,o),
(246,390,c)
);
},
{
closed = 1;
nodes = (
(287,330,l),
(287,420,l),
(147,420,l),
(147,330,l)
);
}
);
width = 492;
}
);
unicode = 51;
},
{
color = 4;
glyphname = four;
kernLeft = four;
lastChange = "2024-06-17 15:07:55 +0000";
layers = (
{
layerId = m01;
shapes = (
{
closed = 1;
nodes = (
(120,188,l),
(258,700,l),
(158,700,l),
(20,188,l)
);
},
{
closed = 1;
nodes = (
(416,98,l),
(416,188,l),
(20,188,l),
(20,98,l)
);
},
{
closed = 1;
nodes = (
(356,0,l),
(356,700,l),
(236,700,l),
(236,0,l)
);
}
);
width = 432;
},
{
layerId = m002;
shapes = (
{
closed = 1;
nodes = (
(146,188,l),
(275,700,l),
(155,700,l),
(26,188,l)
);
},
{
closed = 1;
nodes = (
(442,98,l),
(442,188,l),
(26,188,l),
(26,98,l)
);
},
{
closed = 1;
nodes = (
(402,0,l),
(402,700,l),
(262,700,l),
(262,0,l)
);
}
);
width = 468;
}
);
unicode = 52;
},
{
color = 4;
glyphname = five;
lastChange = "2024-06-17 15:07:55 +0000";
layers = (
{
layerId = m002;
shapes = (
{
closed = 1;
nodes = (
(422,-10,o),
(488,38,o),
(488,132,c),
(348,132,l),
(348,85,o),
(302,70,o),
(262,70,c),
(262,-10,l)
);
},
{
closed = 1;
nodes = (
(488,338,l),
(348,338,l),
(348,132,l),
(488,132,l)
);
},
{
closed = 1;
nodes = (
(262,70,l),
(222,70,o),
(176,85,o),
(176,132,c),
(36,132,l),
(36,38,o),
(102,-10,o),
(262,-10,c)
);
},
{
closed = 1;
nodes = (
(176,132,l),
(176,230,l),
(36,230,l),
(36,132,l)
);
},
{
closed = 1;
nodes = (
(176,700,l),
(36,700,l),
(36,348,l),
(176,348,l)
);
},
{
closed = 1;
nodes = (
(488,465,o),
(382,498,o),
(290,498,cs),
(207,498,o),
(126,471,o),
(126,348,c),
(176,348,l),
(176,395,o),
(222,408,o),
(262,408,cs),
(302,408,o),
(348,395,o),
(348,338,c),
(488,338,l)
);
},
{
closed = 1;
nodes = (
(473,610,l),
(473,700,l),
(66,700,l),
(66,610,l)
);
}
);
width = 524;
},
{
associatedMasterId = m01;
layerId = "12ABE8B8-664A-4715-BDE6-995E2521D739";
name = "30 avr. 24 à 18:40";
shapes = (
{
closed = 1;
nodes = (
(246,70,l),
(196,70,o),
(150,85,o),
(150,132,c),
(30,132,l),
(30,38,o),
(96,-10,o),
(246,-10,c)
);
},
{
closed = 1;
nodes = (
(150,132,l),
(150,268,l),
(30,269,l),
(30,132,l)
);
},
{
closed = 1;
nodes = (
(165,330,l),
(165,700,l),
(45,701,l),
(45,330,l)
);
},
{
closed = 1;
nodes = (
(396,-10,o),
(462,38,o),
(462,132,c),
(342,132,l),
(342,85,o),
(296,70,o),
(246,70,c),
(246,-10,l)
);
},
{
closed = 1;
nodes = (
(462,278,l),
(342,278,l),
(342,132,l),
(462,132,l)
);
},
{
closed = 1;
nodes = (
(246,330,l),
(246,420,l),
(147,420,l),
(147,330,l)
);
},
{
closed = 1;
nodes = (
(427,610,l),
(427,700,l),
(147,700,l),
(147,610,l)
);
},
{
closed = 1;
nodes = (
(246,330,l),
(296,330,o),
(342,325,o),
(342,278,c),
(462,278,l),
(462,372,o),
(396,420,o),
(246,420,c)
);
}
);
width = 600;
},
{
associatedMasterId = m01;
layerId = "56911331-5523-4561-8779-F620FED86EC2";
name = "30 avr. 24 à 18:42";
shapes = (
{
closed = 1;
nodes = (
(376,-10,o),
(442,38,o),
(442,132,c),
(322,132,l),
(322,85,o),
(276,70,o),
(236,70,c),
(236,-10,l)
);
},
{
closed = 1;
nodes = (
(442,298,l),
(322,298,l),
(322,132,l),
(442,132,l)
);
},
{
closed = 1;
nodes = (
(236,70,l),
(196,70,o),
(150,85,o),
(150,132,c),
(30,132,l),
(30,38,o),
(96,-10,o),
(236,-10,c)
);
},
{
closed = 1;
nodes = (
(150,132,l),
(150,208,l),
(30,208,l),
(30,132,l)
);
},
{
closed = 1;
nodes = (
(150,700,l),
(30,700,l),
(30,360,l),
(150,360,l)
);
},
{
closed = 1;
nodes = (
(427,610,l),
(427,700,l),
(147,700,l),
(147,610,l)
);
},
{
closed = 1;
nodes = (
(236,360,l),
(276,360,o),
(322,345,o),
(322,298,c),
(442,298,l),
(442,392,o),
(396,450,o),
(236,450,c)
);
},
{
closed = 1;
nodes = (
(236,360,l),
(236,450,l),
(96,450,l),
(96,360,l)
);
}
);
width = 472;
},
{
associatedMasterId = m01;
layerId = "2F099F03-F44B-49FC-A091-353B73AC37B4";
name = "30 avr. 24 à 18:43";
shapes = (
{
closed = 1;
nodes = (
(376,-10,o),
(442,38,o),
(442,132,c),
(322,132,l),
(322,85,o),
(276,70,o),
(236,70,c),
(236,-10,l)
);
},
{
closed = 1;
nodes = (
(442,298,l),
(322,298,l),
(322,132,l),
(442,132,l)
);
},
{
closed = 1;
nodes = (
(236,70,l),
(196,70,o),
(150,85,o),
(150,132,c),
(30,132,l),
(30,38,o),
(96,-10,o),
(236,-10,c)
);
},
{
closed = 1;
nodes = (
(150,132,l),
(150,208,l),
(30,208,l),
(30,132,l)
);
},
{
closed = 1;
nodes = (
(150,700,l),
(30,700,l),
(30,360,l),
(150,360,l)
);
},
{
closed = 1;
nodes = (
(427,610,l),
(427,700,l),
(147,700,l),
(147,610,l)
);
},
{
closed = 1;
nodes = (
(236,360,l),
(276,360,o),
(322,345,o),
(322,298,c),
(442,298,l),
(442,392,o),
(396,450,o),
(236,450,c)
);
},
{
closed = 1;
nodes = (
(236,360,l),
(236,450,l),
(96,450,l),
(96,360,l)
);
}
);
width = 472;
},
{
layerId = m01;
name = Condensed;
shapes = (
{
closed = 1;
nodes = (
(382,-10,o),
(448,38,o),
(448,132,c),
(328,132,l),
(328,85,o),
(282,70,o),
(242,70,c),
(242,-10,l)
);
},
{
closed = 1;
nodes = (
(448,338,l),
(328,338,l),
(328,132,l),
(448,132,l)
);
},
{
closed = 1;
nodes = (
(242,70,l),
(202,70,o),
(156,85,o),
(156,132,c),
(36,132,l),
(36,38,o),
(102,-10,o),
(242,-10,c)
);
},
{
closed = 1;
nodes = (
(156,132,l),
(156,230,l),
(36,230,l),
(36,132,l)
);
},
{
closed = 1;
nodes = (
(156,700,l),
(36,700,l),
(36,348,l),
(156,348,l)
);
},
{
closed = 1;
nodes = (
(448,465,o),
(362,498,o),
(270,498,cs),
(187,498,o),
(106,471,o),
(106,348,c),
(156,348,l),
(156,395,o),
(202,408,o),
(242,408,cs),
(282,408,o),
(328,395,o),
(328,338,c),
(448,338,l)
);
},
{
closed = 1;
nodes = (
(433,610,l),
(433,700,l),
(66,700,l),
(66,610,l)
);
}
);
width = 478;
},
{
associatedMasterId = m01;
layerId = "2AF5191A-C2E8-4960-877C-E45215756AB3";
name = "30 avr. 24 à 18:43";
shapes = (
{
closed = 1;
nodes = (
(376,-10,o),
(442,38,o),
(442,132,c),
(322,132,l),
(322,85,o),
(276,70,o),
(236,70,c),
(236,-10,l)
);
},
{
closed = 1;
nodes = (
(442,298,l),
(322,298,l),
(322,132,l),
(442,132,l)
);
},
{
closed = 1;
nodes = (
(236,70,l),
(196,70,o),
(150,85,o),
(150,132,c),
(30,132,l),
(30,38,o),
(96,-10,o),
(236,-10,c)
);
},
{
closed = 1;
nodes = (
(150,132,l),
(150,208,l),
(30,208,l),
(30,132,l)
);
},
{
closed = 1;
nodes = (
(150,700,l),
(30,700,l),
(30,308,l),
(150,308,l)
);
},
{
closed = 1;
nodes = (
(442,425,o),
(356,458,o),
(264,458,cs),
(181,458,o),
(100,431,o),
(100,308,c),
(150,308,l),
(150,355,o),
(196,368,o),
(236,368,cs),
(276,368,o),
(322,355,o),
(322,298,c),
(442,298,l)
);
},
{
closed = 1;
nodes = (
(427,610,l),
(427,700,l),
(147,700,l),
(147,610,l)
);
}
);
width = 472;
}
);
unicode = 53;
},
{
color = 4;
glyphname = six;
lastChange = "2024-06-17 15:07:55 +0000";
layers = (
{
guides = (
{
pos = (445,418);
}
);
layerId = m01;
shapes = (
{
closed = 1;
nodes = (
(382,-10,o),
(448,38,o),
(448,132,c),
(328,132,l),
(328,85,o),
(282,70,o),
(242,70,c),
(242,-10,l)
);
},
{
closed = 1;
nodes = (
(448,298,l),
(328,298,l),
(328,132,l),
(448,132,l)
);
},
{
closed = 1;
nodes = (
(448,570,l),
(328,570,l),
(328,510,l),
(448,510,l)
);
},
{
closed = 1;
nodes = (
(242,70,l),
(202,70,o),
(156,85,o),
(156,132,c),
(36,132,l),
(36,38,o),
(102,-10,o),
(242,-10,c)
);
},
{
closed = 1;
nodes = (
(156,132,l),
(156,308,l),
(36,308,l),
(36,132,l)
);
},
{
closed = 1;
nodes = (
(242,630,l),
(282,630,o),
(328,617,o),
(328,570,c),
(448,570,l),
(448,664,o),
(382,710,o),
(242,710,c)
);
},
{
closed = 1;
nodes = (
(102,710,o),
(36,664,o),
(36,570,c),
(156,570,l),
(156,617,o),
(202,630,o),
(242,630,c),
(242,710,l)
);
},
{
closed = 1;
nodes = (
(156,570,l),
(36,570,l),
(36,308,l),
(156,308,l)
);
},
{
closed = 1;
nodes = (
(362,458,o),
(270,458,cs),
(187,458,o),
(106,431,o),
(106,308,c),
(156,308,l),
(156,355,o),
(202,368,o),
(242,368,cs),
(282,368,o),
(328,355,o),
(328,298,c),
(448,298,l),
(448,425,o)
);
}
);
width = 478;
},
{
layerId = m002;
shapes = (
{
closed = 1;
nodes = (
(426,-10,o),
(492,38,o),
(492,132,c),
(352,132,l),
(352,85,o),
(306,70,o),
(266,70,c),
(266,-10,l)
);
},
{
closed = 1;
nodes = (
(492,298,l),
(352,298,l),
(352,132,l),
(492,132,l)
);
},
{
closed = 1;
nodes = (
(492,570,l),
(352,570,l),
(352,510,l),
(492,510,l)
);
},
{
closed = 1;
nodes = (
(266,70,l),
(226,70,o),
(180,85,o),
(180,132,c),
(40,132,l),
(40,38,o),
(106,-10,o),
(266,-10,c)
);
},
{
closed = 1;
nodes = (
(180,132,l),
(180,308,l),
(40,308,l),
(40,132,l)
);
},
{
closed = 1;
nodes = (
(266,630,l),
(306,630,o),
(352,617,o),
(352,570,c),
(492,570,l),
(492,664,o),
(426,710,o),
(266,710,c)
);
},
{
closed = 1;
nodes = (
(106,710,o),
(40,664,o),
(40,570,c),
(180,570,l),
(180,617,o),
(226,630,o),
(266,630,c),
(266,710,l)
);
},
{
closed = 1;
nodes = (
(180,570,l),
(40,570,l),
(40,308,l),
(180,308,l)
);
},
{
closed = 1;
nodes = (
(386,458,o),
(294,458,cs),
(211,458,o),
(130,431,o),
(130,308,c),
(180,308,l),
(180,355,o),
(226,368,o),
(266,368,cs),
(306,368,o),
(352,355,o),
(352,298,c),
(492,298,l),
(492,425,o)
);
}
);
width = 532;
},
{
associatedMasterId = m01;
guides = (
{
pos = (439,418);
}
);
layerId = "321CF9C5-2A64-4B3A-8776-2609BF078FE9";
name = "30 avr. 24 à 17:56";
shapes = (
{
closed = 1;
nodes = (
(376,-10,o),
(442,38,o),
(442,132,c),
(322,132,l),
(322,85,o),
(276,70,o),
(236,70,c),
(236,-10,l)
);
},
{
closed = 1;
nodes = (
(442,258,l),
(322,258,l),
(322,132,l),
(442,132,l)
);
},
{
closed = 1;
nodes = (
(442,570,l),
(322,570,l),
(322,470,l),
(442,470,l)
);
},
{
closed = 1;
nodes = (
(236,70,l),
(196,70,o),
(150,85,o),
(150,132,c),
(30,132,l),
(30,38,o),
(96,-10,o),
(236,-10,c)
);
},
{
closed = 1;
nodes = (
(150,132,l),
(150,268,l),
(30,268,l),
(30,132,l)
);
},
{
closed = 1;
nodes = (
(236,630,l),
(276,630,o),
(322,617,o),
(322,570,c),
(442,570,l),
(442,664,o),
(376,710,o),
(236,710,c)
);
},
{
closed = 1;
nodes = (
(96,710,o),
(30,664,o),
(30,570,c),
(150,570,l),
(150,617,o),
(196,630,o),
(236,630,c),
(236,710,l)
);
},
{
closed = 1;
nodes = (
(150,570,l),
(30,570,l),
(30,268,l),
(150,268,l)
);
},
{
closed = 1;
nodes = (
(356,418,o),
(264,418,cs),
(181,418,o),
(100,391,o),
(100,268,c),
(150,268,l),
(150,315,o),
(196,328,o),
(236,328,cs),
(276,328,o),
(322,315,o),
(322,258,c),
(442,258,l),
(442,385,o)
);
}
);
width = 472;
}
);
unicode = 54;
},
{
color = 4;
glyphname = seven;
lastChange = "2024-06-17 15:07:55 +0000";
layers = (
{
layerId = m01;
shapes = (
{
closed = 1;
nodes = (
(272,610,l),
(272,700,l),
(16,700,l),
(16,610,l)
);
},
{
closed = 1;
nodes = (
(202,0,l),
(352,700,l),
(232,700,l),
(82,0,l)
);
}
);
width = 353;
},
{
layerId = m002;
shapes = (
{
closed = 1;
nodes = (
(322,610,l),
(322,700,l),
(26,700,l),
(26,610,l)
);
},
{
closed = 1;
nodes = (
(232,0,l),
(422,700,l),
(282,700,l),
(92,0,l)
);
}
);
width = 448;
}
);
unicode = 55;
},
{
color = 4;
glyphname = eight;
lastChange = "2024-06-17 15:07:55 +0000";
layers = (
{
layerId = m01;
shapes = (
{
closed = 1;
nodes = (
(453,568,l),
(453,662,o),
(402,710,o),
(252,710,c),
(252,630,l),
(302,630,o),
(333,615,o),
(333,568,c)
);
},
{
closed = 1;
nodes = (
(252,70,l),
(202,70,o),
(156,85,o),
(156,132,c),
(36,132,l),
(36,38,o),
(102,-10,o),
(252,-10,c)
);
},
{
closed = 1;
nodes = (
(156,132,l),
(156,268,l),
(36,269,l),
(36,132,l)
);
},
{
closed = 1;
nodes = (
(171,568,l),
(171,615,o),
(202,630,o),
(252,630,c),
(252,710,l),
(102,710,o),
(51,662,o),
(51,568,c)
);
},
{
closed = 1;
nodes = (
(453,470,l),
(453,568,l),
(333,568,l),
(333,470,l)
);
},
{
closed = 1;
nodes = (
(171,470,l),
(171,568,l),
(51,569,l),
(51,470,l)
);
},
{
closed = 1;
nodes = (
(51,376,o),
(102,350,o),
(252,350,c),
(252,400,l),
(202,400,o),
(171,423,o),
(171,470,c),
(51,470,l)
);
},
{
closed = 1;
nodes = (
(333,470,l),
(333,423,o),
(302,400,o),
(252,400,c),
(252,350,l),
(402,350,o),
(453,376,o),
(453,470,c)
);
},
{
closed = 1;
nodes = (
(402,-10,o),
(468,38,o),
(468,132,c),
(348,132,l),
(348,85,o),
(302,70,o),
(252,70,c),
(252,-10,l)
);
},
{
closed = 1;
nodes = (
(468,269,l),
(348,268,l),
(348,132,l),
(468,132,l)
);
},
{
closed = 1;
nodes = (
(102,370,o),
(36,362,o),
(36,268,c),
(156,268,l),
(156,315,o),
(202,330,o),
(252,330,c),
(252,370,l)
);
},
{
closed = 1;
nodes = (
(252,330,l),
(302,330,o),
(348,315,o),
(348,268,c),
(468,268,l),
(468,362,o),
(402,370,o),
(252,370,c)
);
}
);
width = 498;
},
{
guides = (
{
angle = 90;
pos = (276,375);
},
{
pos = (291,330);
}
);
layerId = m002;
shapes = (
{
closed = 1;
nodes = (
(497,568,l),
(497,662,o),
(446,710,o),
(276,710,c),
(276,630,l),
(326,630,o),
(357,615,o),
(357,568,c)
);
},
{
closed = 1;
nodes = (
(276,70,l),
(226,70,o),
(180,85,o),
(180,132,c),
(40,132,l),
(40,38,o),
(106,-10,o),
(276,-10,c)
);
},
{
closed = 1;
nodes = (
(180,132,l),
(180,268,l),
(40,269,l),
(40,132,l)
);
},
{
closed = 1;
nodes = (
(195,568,l),
(195,615,o),
(226,630,o),
(276,630,c),
(276,710,l),
(106,710,o),
(55,662,o),
(55,568,c)
);
},
{
closed = 1;
nodes = (
(497,470,l),
(497,568,l),
(357,568,l),
(357,470,l)
);
},
{
closed = 1;
nodes = (
(195,470,l),
(195,568,l),
(55,569,l),
(55,470,l)
);
},
{
closed = 1;
nodes = (
(55,376,o),
(106,350,o),
(276,350,c),
(276,400,l),
(226,400,o),
(195,423,o),
(195,470,c),
(55,470,l)
);
},
{
closed = 1;
nodes = (
(357,470,l),
(357,423,o),
(326,400,o),
(276,400,c),
(276,350,l),
(446,350,o),
(497,376,o),
(497,470,c)
);
},
{
closed = 1;
nodes = (
(446,-10,o),
(512,38,o),
(512,132,c),
(372,132,l),
(372,85,o),
(326,70,o),
(276,70,c),
(276,-10,l)
);
},
{
closed = 1;
nodes = (
(512,269,l),
(372,268,l),
(372,132,l),
(512,132,l)
);
},
{
closed = 1;
nodes = (
(106,370,o),
(40,362,o),
(40,268,c),
(180,268,l),
(180,315,o),
(226,330,o),
(276,330,c),
(276,370,l)
);
},
{
closed = 1;
nodes = (
(276,330,l),
(326,330,o),
(372,315,o),
(372,268,c),
(512,268,l),
(512,362,o),
(446,370,o),
(276,370,c)
);
}
);
width = 552;
},
{
associatedMasterId = m002;
layerId = "299163D5-D32A-4274-9404-63BCA1AE4D0D";
name = "30 avr. 24 à 10:09";
shapes = (
{
closed = 1;
nodes = (
(452,568,l),
(452,662,o),
(401,710,o),
(251,710,c),
(251,630,l),
(301,630,o),
(332,615,o),
(332,568,c)
);
},
{
closed = 1;
nodes = (
(251,70,l),
(201,70,o),
(170,85,o),
(170,132,c),
(50,132,l),
(50,38,o),
(101,-10,o),
(251,-10,c)
);
},
{
closed = 1;
nodes = (
(170,132,l),
(170,268,l),
(50,269,l),
(50,132,l)
);
},
{
closed = 1;
nodes = (
(401,-10,o),
(452,38,o),
(452,132,c),
(332,132,l),
(332,85,o),
(301,70,o),
(251,70,c),
(251,-10,l)
);
},
{
closed = 1;
nodes = (
(170,268,l),
(170,315,o),
(201,330,o),
(251,330,c),
(251,400,l),
(101,400,o),
(50,362,o),
(50,268,c)
);
},
{
closed = 1;
nodes = (
(452,132,l),
(452,268,l),
(332,268,l),
(332,132,l)
);
},
{
closed = 1;
nodes = (
(251,460,l),
(201,460,o),
(170,475,o),
(170,522,c),
(50,522,l),
(50,428,o),
(101,390,o),
(251,390,c)
);
},
{
closed = 1;
nodes = (
(170,522,l),
(170,568,l),
(50,569,l),
(50,522,l)
);
},
{
closed = 1;
nodes = (
(452,268,l),
(452,362,o),
(401,400,o),
(251,400,c),
(251,330,l),
(301,330,o),
(332,315,o),
(332,268,c)
);
},
{
closed = 1;
nodes = (
(170,568,l),
(170,615,o),
(201,630,o),
(251,630,c),
(251,710,l),
(101,710,o),
(50,662,o),
(50,568,c)
);
},
{
closed = 1;
nodes = (
(401,390,o),
(452,428,o),
(452,522,c),
(332,522,l),
(332,475,o),
(301,460,o),
(251,460,c),
(251,390,l)
);
},
{
closed = 1;
nodes = (
(452,522,l),
(452,568,l),
(332,568,l),
(332,522,l)
);
}
);
width = 600;
},
{
associatedMasterId = m002;
layerId = "9184F490-4D0E-408A-8737-E1E7B6510ECD";
name = "30 avr. 24 à 12:35";
shapes = (
{
closed = 1;
nodes = (
(452,568,l),
(452,662,o),
(401,710,o),
(251,710,c),
(251,630,l),
(301,630,o),
(332,615,o),
(332,568,c)
);
},
{
closed = 1;
nodes = (
(251,70,l),
(201,70,o),
(170,85,o),
(170,132,c),
(50,132,l),
(50,38,o),
(101,-10,o),
(251,-10,c)
);
},
{
closed = 1;
nodes = (
(170,132,l),
(170,268,l),
(50,269,l),
(50,132,l)
);
},
{
closed = 1;
nodes = (
(401,-10,o),
(452,38,o),
(452,132,c),
(332,132,l),
(332,85,o),
(301,70,o),
(251,70,c),
(251,-10,l)
);
},
{
closed = 1;
nodes = (
(170,268,l),
(170,315,o),
(201,330,o),
(251,330,c),
(251,400,l),
(101,400,o),
(50,362,o),
(50,268,c)
);
},
{
closed = 1;
nodes = (
(452,132,l),
(452,268,l),
(332,268,l),
(332,132,l)
);
},
{
closed = 1;
nodes = (
(251,460,l),
(201,460,o),
(170,475,o),
(170,522,c),
(50,522,l),
(50,428,o),
(101,390,o),
(251,390,c)
);
},
{
closed = 1;
nodes = (
(170,522,l),
(170,568,l),
(50,569,l),
(50,522,l)
);
},
{
closed = 1;
nodes = (
(452,268,l),
(452,362,o),
(401,400,o),
(251,400,c),
(251,330,l),
(301,330,o),
(332,315,o),
(332,268,c)
);
},
{
closed = 1;
nodes = (
(170,568,l),
(170,615,o),
(201,630,o),
(251,630,c),
(251,710,l),
(101,710,o),
(50,662,o),
(50,568,c)
);
},
{
closed = 1;
nodes = (
(401,390,o),
(452,428,o),
(452,522,c),
(332,522,l),
(332,475,o),
(301,460,o),
(251,460,c),
(251,390,l)
);
},
{
closed = 1;
nodes = (
(452,522,l),
(452,568,l),
(332,568,l),
(332,522,l)
);
}
);
width = 600;
}
);
unicode = 56;
},
{
color = 4;
glyphname = nine;
lastChange = "2024-06-17 15:07:55 +0000";
layers = (
{
layerId = m01;
shapes = (
{
closed = 1;
nodes = (
(102,710,o),
(36,662,o),
(36,568,c),
(156,568,l),
(156,615,o),
(202,630,o),
(242,630,c),
(242,710,l)
);
},
{
closed = 1;
nodes = (
(36,402,l),
(156,402,l),
(156,568,l),
(36,568,l)
);
},
{
closed = 1;
nodes = (
(36,130,l),
(156,130,l),
(156,190,l),
(36,190,l)
);
},
{
closed = 1;
nodes = (
(242,630,l),
(282,630,o),
(328,615,o),
(328,568,c),
(448,568,l),
(448,662,o),
(382,710,o),
(242,710,c)
);
},
{
closed = 1;
nodes = (
(328,568,l),
(328,392,l),
(448,392,l),
(448,568,l)
);
},
{
closed = 1;
nodes = (
(242,70,l),
(202,70,o),
(156,83,o),
(156,130,c),
(36,130,l),
(36,36,o),
(102,-10,o),
(242,-10,c)
);
},
{
closed = 1;
nodes = (
(382,-10,o),
(448,36,o),
(448,130,c),
(328,130,l),
(328,83,o),
(282,70,o),
(242,70,c),
(242,-10,l)
);
},
{
closed = 1;
nodes = (
(328,130,l),
(448,130,l),
(448,392,l),
(328,392,l)
);
},
{
closed = 1;
nodes = (
(122,242,o),
(214,242,cs),
(297,242,o),
(378,269,o),
(378,392,c),
(328,392,l),
(328,345,o),
(282,332,o),
(242,332,cs),
(202,332,o),
(156,345,o),
(156,402,c),
(36,402,l),
(36,275,o)
);
}
);
width = 478;
},
{
layerId = m002;
shapes = (
{
closed = 1;
nodes = (
(106,710,o),
(40,662,o),
(40,568,c),
(180,568,l),
(180,615,o),
(226,630,o),
(266,630,c),
(266,710,l)
);
},
{
closed = 1;
nodes = (
(40,402,l),
(180,402,l),
(180,568,l),
(40,568,l)
);
},
{
closed = 1;
nodes = (
(40,130,l),
(180,130,l),
(180,190,l),
(40,190,l)
);
},
{
closed = 1;
nodes = (
(266,630,l),
(306,630,o),
(352,615,o),
(352,568,c),
(492,568,l),
(492,662,o),
(426,710,o),
(266,710,c)
);
},
{
closed = 1;
nodes = (
(352,568,l),
(352,392,l),
(492,392,l),
(492,568,l)
);
},
{
closed = 1;
nodes = (
(266,70,l),
(226,70,o),
(180,83,o),
(180,130,c),
(40,130,l),
(40,36,o),
(106,-10,o),
(266,-10,c)
);
},
{
closed = 1;
nodes = (
(426,-10,o),
(492,36,o),
(492,130,c),
(352,130,l),
(352,83,o),
(306,70,o),
(266,70,c),
(266,-10,l)
);
},
{
closed = 1;
nodes = (
(352,130,l),
(492,130,l),
(492,392,l),
(352,392,l)
);
},
{
closed = 1;
nodes = (
(146,242,o),
(238,242,cs),
(321,242,o),
(402,269,o),
(402,392,c),
(352,392,l),
(352,345,o),
(306,332,o),
(266,332,cs),
(226,332,o),
(180,345,o),
(180,402,c),
(40,402,l),
(40,275,o)
);
}
);
width = 532;
},
{
associatedMasterId = m01;
layerId = "09031016-DFA7-4D27-9405-BDACAA0A247F";
name = "30 avr. 24 à 17:56";
shapes = (
{
closed = 1;
nodes = (
(96,710,o),
(30,662,o),
(30,568,c),
(150,568,l),
(150,615,o),
(196,630,o),
(236,630,c),
(236,710,l)
);
},
{
closed = 1;
nodes = (
(30,402,l),
(150,402,l),
(150,568,l),
(30,568,l)
);
},
{
closed = 1;
nodes = (
(30,130,l),
(150,130,l),
(150,190,l),
(30,190,l)
);
},
{
closed = 1;
nodes = (
(236,630,l),
(276,630,o),
(322,615,o),
(322,568,c),
(442,568,l),
(442,662,o),
(376,710,o),
(236,710,c)
);
},
{
closed = 1;
nodes = (
(322,568,l),
(322,392,l),
(442,392,l),
(442,568,l)
);
},
{
closed = 1;
nodes = (
(236,70,l),
(196,70,o),
(150,83,o),
(150,130,c),
(30,130,l),
(30,36,o),
(96,-10,o),
(236,-10,c)
);
},
{
closed = 1;
nodes = (
(376,-10,o),
(442,36,o),
(442,130,c),
(322,130,l),
(322,83,o),
(276,70,o),
(236,70,c),
(236,-10,l)
);
},
{
closed = 1;
nodes = (
(322,130,l),
(442,130,l),
(442,392,l),
(322,392,l)
);
},
{
closed = 1;
nodes = (
(116,242,o),
(208,242,cs),
(291,242,o),
(372,269,o),
(372,392,c),
(322,392,l),
(322,345,o),
(276,332,o),
(236,332,cs),
(196,332,o),
(150,345,o),
(150,402,c),
(30,402,l),
(30,275,o)
);
}
);
width = 472;
}
);
metricLeft = six;
metricRight = six;
unicode = 57;
},
{
color = 4;
glyphname = .notdef;
lastChange = "2024-06-19 05:56:53 +0000";
layers = (
{
layerId = m01;
shapes = (
{
closed = 1;
nodes = (
(455,-10,o),
(580,115,o),
(580,270,cs),
(580,425,o),
(455,550,o),
(300,550,cs),
(145,550,o),
(20,425,o),
(20,270,cs),
(20,115,o),
(145,-10,o),
(300,-10,cs)
);
},
{
closed = 1;
nodes = (
(235,93,o),
(164,139,o),
(164,206,cs),
(164,225,o),
(176,235,o),
(189,235,cs),
(201,235,o),
(215,227,o),
(223,211,cs),
(228,201,o),
(246,159,o),
(302,159,cs),
(357,159,o),
(376,201,o),
(381,211,cs),
(388,227,o),
(402,235,o),
(414,235,cs),
(427,235,o),
(438,225,o),
(438,206,cs),
(438,140,o),
(370,93,o),
(302,93,cs)
);
},
{
closed = 1;
nodes = (
(176,265,o),
(163,274,o),
(163,294,cs),
(163,311,o),
(176,325,o),
(194,325,cs),
(214,325,o),
(223,311,o),
(223,294,cs),
(223,274,o),
(214,265,o),
(194,265,cs)
);
},
{
closed = 1;
nodes = (
(284,213,o),
(268,221,o),
(268,238,cs),
(269,360,l),
(258,359,o),
(245,358,o),
(230,358,cs),
(168,358,o),
(160,369,o),
(160,384,cs),
(160,399,o),
(165,417,o),
(189,421,cs),
(210,424,o),
(260,426,o),
(302,426,cs),
(344,426,o),
(394,425,o),
(414,421,cs),
(438,416,o),
(444,399,o),
(444,384,cs),
(444,369,o),
(435,358,o),
(373,358,cs),
(358,358,o),
(346,359,o),
(334,360,c),
(336,238,ls),
(336,221,o),
(319,213,o),
(302,213,cs)
);
},
{
closed = 1;
nodes = (
(387,265,o),
(377,274,o),
(377,294,cs),
(377,311,o),
(387,325,o),
(406,325,cs),
(425,325,o),
(437,311,o),
(437,294,cs),
(437,274,o),
(425,265,o),
(406,265,cs)
);
}
);
width = 600;
},
{
layerId = m002;
shapes = (
{
closed = 1;
nodes = (
(455,-10,o),
(580,115,o),
(580,270,cs),
(580,425,o),
(455,550,o),
(300,550,cs),
(145,550,o),
(20,425,o),
(20,270,cs),
(20,115,o),
(145,-10,o),
(300,-10,cs)
);
},
{
closed = 1;
nodes = (
(235,93,o),
(164,139,o),
(164,206,cs),
(164,225,o),
(176,235,o),
(189,235,cs),
(201,235,o),
(215,227,o),
(223,211,cs),
(228,201,o),
(246,159,o),
(302,159,cs),
(357,159,o),
(376,201,o),
(381,211,cs),
(388,227,o),
(402,235,o),
(414,235,cs),
(427,235,o),
(438,225,o),
(438,206,cs),
(438,140,o),
(370,93,o),
(302,93,cs)
);
},
{
closed = 1;
nodes = (
(176,265,o),
(163,274,o),
(163,294,cs),
(163,311,o),
(176,325,o),
(194,325,cs),
(214,325,o),
(223,311,o),
(223,294,cs),
(223,274,o),
(214,265,o),
(194,265,cs)
);
},
{
closed = 1;
nodes = (
(284,213,o),
(268,221,o),
(268,238,cs),
(269,360,l),
(258,359,o),
(245,358,o),
(230,358,cs),
(168,358,o),
(160,369,o),
(160,384,cs),
(160,399,o),
(165,417,o),
(189,421,cs),
(210,424,o),
(260,426,o),
(302,426,cs),
(344,426,o),
(394,425,o),
(414,421,cs),
(438,416,o),
(444,399,o),
(444,384,cs),
(444,369,o),
(435,358,o),
(373,358,cs),
(358,358,o),
(346,359,o),
(334,360,c),
(336,238,ls),
(336,221,o),
(319,213,o),
(302,213,cs)
);
},
{
closed = 1;
nodes = (
(387,265,o),
(377,274,o),
(377,294,cs),
(377,311,o),
(387,325,o),
(406,325,cs),
(425,325,o),
(437,311,o),
(437,294,cs),
(437,274,o),
(425,265,o),
(406,265,cs)
);
}
);
width = 600;
}
);
},
{
color = 4;
glyphname = period;
kernLeft = point;
kernRight = point;
lastChange = "2024-06-19 07:36:45 +0000";
layers = (
{
layerId = m01;
shapes = (
{
closed = 1;
nodes = (
(156,0,l),
(156,120,l),
(36,120,l),
(36,0,l)
);
}
);
width = 192;
},
{
layerId = m002;
shapes = (
{
closed = 1;
nodes = (
(162,0,l),
(162,120,l),
(42,120,l),
(42,0,l)
);
}
);
width = 204;
}
);
unicode = 46;
},
{
color = 4;
glyphname = comma;
kernLeft = point;
lastChange = "2024-06-17 15:04:52 +0000";
layers = (
{
guides = (
{
angle = 180;
pos = (102,120);
}
);
layerId = m01;
shapes = (
{
closed = 1;
nodes = (
(100,-170,l),
(128,120,l),
(38,120,l),
(10,-170,l)
);
}
);
width = 138;
},
{
guides = (
{
angle = 180;
pos = (102,120);
}
);
layerId = m002;
shapes = (
{
closed = 1;
nodes = (
(110,-170,l),
(138,120,l),
(38,120,l),
(10,-170,l)
);
}
);
width = 148;
}
);
unicode = 44;
},
{
color = 4;
glyphname = colon;
lastChange = "2024-06-17 15:04:52 +0000";
layers = (
{
guides = (
{
angle = 180;
pos = (102,120);
}
);
layerId = m01;
shapes = (
{
closed = 1;
nodes = (
(162,350,l),
(162,470,l),
(42,470,l),
(42,350,l)
);
},
{
closed = 1;
nodes = (
(162,0,l),
(162,120,l),
(42,120,l),
(42,0,l)
);
}
);
width = 204;
},
{
guides = (
{
angle = 180;
pos = (102,120);
}
);
layerId = m002;
shapes = (
{
closed = 1;
nodes = (
(162,350,l),
(162,470,l),
(42,470,l),
(42,350,l)
);
},
{
closed = 1;
nodes = (
(162,0,l),
(162,120,l),
(42,120,l),
(42,0,l)
);
}
);
width = 204;
}
);
unicode = 58;
},
{
color = 4;
glyphname = semicolon;
lastChange = "2024-06-17 15:04:52 +0000";
layers = (
{
layerId = m01;
shapes = (
{
closed = 1;
nodes = (
(162,350,l),
(162,470,l),
(42,470,l),
(42,350,l)
);
},
{
closed = 1;
nodes = (
(116,-170,l),
(144,120,l),
(54,120,l),
(26,-170,l)
);
}
);
width = 204;
},
{
layerId = m002;
shapes = (
{
closed = 1;
nodes = (
(162,350,l),
(162,470,l),
(42,470,l),
(42,350,l)
);
},
{
closed = 1;
nodes = (
(120,-170,l),
(148,120,l),
(48,120,l),
(20,-170,l)
);
}
);
width = 204;
}
);
unicode = 59;
},
{
color = 4;
glyphname = exclam;
lastChange = "2024-06-17 15:04:52 +0000";
layers = (
{
layerId = m01;
shapes = (
{
closed = 1;
nodes = (
(160,180,l),
(160,700,l),
(40,700,l),
(40,180,l)
);
},
{
closed = 1;
nodes = (
(160,0,l),
(160,120,l),
(40,120,l),
(40,0,l)
);
}
);
width = 200;
},
{
layerId = m002;
shapes = (
{
closed = 1;
nodes = (
(160,180,l),
(160,700,l),
(40,700,l),
(40,180,l)
);
},
{
closed = 1;
nodes = (
(160,0,l),
(160,120,l),
(40,120,l),
(40,0,l)
);
}
);
width = 200;
}
);
unicode = 33;
},
{
color = 4;
glyphname = exclamdown;
lastChange = "2024-06-17 15:04:52 +0000";
layers = (
{
layerId = m01;
shapes = (
{
closed = 1;
nodes = (
(160,-110,l),
(160,410,l),
(40,410,l),
(40,-110,l)
);
},
{
closed = 1;
nodes = (
(160,470,l),
(160,590,l),
(40,590,l),
(40,470,l)
);
}
);
width = 200;
},
{
layerId = m002;
shapes = (
{
closed = 1;
nodes = (
(160,-110,l),
(160,410,l),
(40,410,l),
(40,-110,l)
);
},
{
closed = 1;
nodes = (
(160,470,l),
(160,590,l),
(40,590,l),
(40,470,l)
);
}
);
width = 200;
}
);
unicode = 161;
},
